<svg id="Group_107" data-name="Group 107" xmlns="http://www.w3.org/2000/svg" xmlns:xlink="http://www.w3.org/1999/xlink" width="73.759" height="69.541" viewBox="0 0 73.759 69.541">
  <defs>
    <clipPath id="clip-path">
      <rect id="Rectangle_104" data-name="Rectangle 104" width="73.759" height="69.54" fill="none"/>
    </clipPath>
  </defs>
  <g id="Group_106" data-name="Group 106" clip-path="url(#clip-path)">
    <path id="Path_359" data-name="Path 359" d="M64.568,71.323a1.028,1.028,0,0,1-1.028-1.035l.017-2.373-57.933.016c-2.012,0-2.168-1.208-2.168-1.58V12.283l-2.435-.018A1.028,1.028,0,0,1,.09,10.816L3.726,2.7A1.028,1.028,0,0,1,4.665,2.1h0A1.025,1.025,0,0,1,5.6,2.71c3.652,8.276,3.652,8.276,3.652,8.576a1.025,1.025,0,0,1-.3.73.9.9,0,0,1-.732.3L5.511,12.3V65.87l.11,0,57.949-.017.019-2.771a1.03,1.03,0,0,1,1.45-.931l8.112,3.637a1.028,1.028,0,0,1-.005,1.879c-8.276,3.653-8.276,3.653-8.577,3.653Z" transform="translate(0 -1.783)" fill="#fff"/>
    <path id="Path_360" data-name="Path 360" d="M244.353,55.6c-.612,2.322.594,3.4,3.339,4.953V53.249a3.615,3.615,0,0,0-3.339,2.353Z" transform="translate(-207.584 -45.265)" fill="#f79826"/>
    <path id="Path_361" data-name="Path 361" d="M206.49,40.553l-9.118-9.117a.723.723,0,0,0-.114-.093,5.437,5.437,0,0,0-.858-.475,3.034,3.034,0,0,0-.843-.1c-.027,0-.054,0-.081,0l-1.765.2L189.757,27.1c.3-.412.7-.982.9-1.276a16.163,16.163,0,0,0,2.6-8.987,16.836,16.836,0,1,0-16.824,16.821h0a15.7,15.7,0,0,0,8.954-2.586c.271-.183.86-.6,1.28-.906l4.012,3.921-.2,1.762a.561.561,0,0,0,0,.122,3.117,3.117,0,0,0,.117.7,5.679,5.679,0,0,0,.428.8.771.771,0,0,0,.1.129l9.156,9.156a2.647,2.647,0,0,0,1.909.769,4.156,4.156,0,0,0,2.869-1.316l.751-.751a4.809,4.809,0,0,0,1.319-2.419,2.683,2.683,0,0,0-.641-2.489Z" transform="translate(-135.645)" fill="#f79826"/>
    <rect id="Rectangle_100" data-name="Rectangle 100" width="5.457" height="38.062" transform="translate(11.548 23.314)" fill="#fff"/>
    <rect id="Rectangle_101" data-name="Rectangle 101" width="5.457" height="25.468" transform="translate(24.562 35.908)" fill="#fff"/>
    <rect id="Rectangle_102" data-name="Rectangle 102" width="5.457" height="17.911" transform="translate(37.577 43.465)" fill="#fff"/>
    <rect id="Rectangle_103" data-name="Rectangle 103" width="5.457" height="12.874" transform="translate(50.591 48.503)" fill="#fff"/>
  </g>
</svg>
