<svg id="Group_108" data-name="Group 108" xmlns="http://www.w3.org/2000/svg" xmlns:xlink="http://www.w3.org/1999/xlink" width="65.838" height="67.056" viewBox="0 0 65.838 67.056">
  <defs>
    <clipPath id="clip-path">
      <rect id="Rectangle_105" data-name="Rectangle 105" width="65.838" height="67.056" fill="none"/>
    </clipPath>
  </defs>
  <g id="Group_108-2" data-name="Group 108" clip-path="url(#clip-path)">
    <path id="Path_362" data-name="Path 362" d="M286.473,237l7.908-7.908h0a8.179,8.179,0,0,0,2.129-3.692l3.918-14.616a2.3,2.3,0,0,0,.078-.613,2.345,2.345,0,0,0-1.873-2.3,2.491,2.491,0,0,0-2.79,1.882l-3.933,11.782c.055.083.118.155.173.242h0a4.705,4.705,0,0,1-1.723,6.428l-6.889,3.977a1.176,1.176,0,1,1-1.176-2.037l6.889-3.977h0a2.353,2.353,0,1,0-2.353-4.075l-11.594,6.7a8.254,8.254,0,0,0-4.117,7.131v11.036h12.941v-4.135A8.182,8.182,0,0,1,286.473,237Z" transform="translate(-234.669 -179.901)" fill="#fff"/>
    <path id="Path_363" data-name="Path 363" d="M132.292,35.292h30.587a1.176,1.176,0,0,0,1.176-1.176V1.176A1.176,1.176,0,0,0,162.878,0H152.291V12.941a1.177,1.177,0,0,1-1.829.979L147.585,12l-2.876,1.917a1.176,1.176,0,0,1-1.829-.976V0H132.291a1.176,1.176,0,0,0-1.176,1.176v32.94a1.177,1.177,0,0,0,1.176,1.176Zm6.714-12.109a1.177,1.177,0,0,1-1.664-1.664l3.529-3.529a1.177,1.177,0,0,1,1.664,0l3.529,3.529a1.177,1.177,0,1,1-1.664,1.664l-1.521-1.521v8.924h9.411V21.662l-1.521,1.521h0a1.177,1.177,0,0,1-1.664-1.664l3.529-3.529a1.177,1.177,0,0,1,1.664,0l3.529,3.529a1.177,1.177,0,1,1-1.664,1.664l-1.521-1.521v8.924H157a1.176,1.176,0,1,1,0,2.353H138.174a1.176,1.176,0,0,1,0-2.353h2.353V21.662Z" transform="translate(-113.487 0)" fill="#f79826"/>
    <path id="Path_364" data-name="Path 364" d="M237.812,9.61a1.176,1.176,0,0,1,1.306,0l1.7,1.133V0h-4.706V10.743Z" transform="translate(-204.367 -0.001)" fill="#fff"/>
    <path id="Path_365" data-name="Path 365" d="M25.274,228.8,13.68,222.1a2.353,2.353,0,0,0-2.353,4.075l6.889,3.978a1.176,1.176,0,1,1-1.176,2.037l-6.889-3.977a4.705,4.705,0,0,1-1.724-6.426,2.7,2.7,0,0,1,.174-.235L4.687,209.836a2.509,2.509,0,0,0-2.823-1.95,2.362,2.362,0,0,0-1.787,2.906L4,225.4a8.189,8.189,0,0,0,2.13,3.7l7.909,7.909a8.18,8.18,0,0,1,2.412,5.822v4.135H29.392V235.931a8.256,8.256,0,0,0-4.117-7.131Z" transform="translate(0 -179.912)" fill="#fff"/>
  </g>
</svg>
