<svg id="Group_110" data-name="Group 110" xmlns="http://www.w3.org/2000/svg" xmlns:xlink="http://www.w3.org/1999/xlink" width="78.4" height="71.551" viewBox="0 0 78.4 71.551">
  <defs>
    <clipPath id="clip-path">
      <rect id="Rectangle_106" data-name="Rectangle 106" width="78.4" height="71.551" fill="none"/>
    </clipPath>
  </defs>
  <g id="Group_109" data-name="Group 109" clip-path="url(#clip-path)">
    <path id="Path_366" data-name="Path 366" d="M188.071,4.189v6.32l.394-.565a1.038,1.038,0,0,1,1.442-.257l5.185,3.609a1.036,1.036,0,0,1,.259,1.442l-3.609,5.2a1.031,1.031,0,0,1-.851.446,1.1,1.1,0,0,1-.153-.023c-.034,0-.067-.007-.1-.015a1.023,1.023,0,0,1-.339-.147l-2.228-1.552V40.86a2.66,2.66,0,0,1,.447.9c.069.227.07.228.158.289s.089.064.328.049A2.4,2.4,0,0,1,191.6,43.9c.069.227.071.228.159.29s.09.064.329.049a2.409,2.409,0,0,1,2.6,1.807c.07.23.071.231.163.294s.093.064.331.05a2.375,2.375,0,0,1,1.637.419,1.037,1.037,0,1,1-1.185,1.7c-.091-.063-.093-.064-.331-.05a2.411,2.411,0,0,1-2.6-1.807c-.07-.23-.071-.231-.163-.294s-.09-.064-.33-.049a2.4,2.4,0,0,1-2.594-1.808c-.069-.227-.071-.229-.159-.29s-.09-.064-.328-.049a2.622,2.622,0,0,1-1.056-.125V59.327a1.042,1.042,0,0,1-.171.571l-3.165,4.743a1.037,1.037,0,0,1-.862.461h0a1.034,1.034,0,0,1-.862-.461l-2.3-3.447-2.3,3.447a1.076,1.076,0,0,1-1.724,0l-.16-.239-.066,3.336,3.862-1.516a1.038,1.038,0,0,1,1.416.986l-.083,4.146,3.86-1.522a1.037,1.037,0,0,1,1.417.985l-.083,4.148,3.559-1.4,31.777-45.616Zm15.781,34.332a1.036,1.036,0,0,1-1.443.258c-.091-.063-.093-.064-.331-.05a2.411,2.411,0,0,1-2.6-1.808c-.07-.23-.072-.231-.163-.294s-.091-.064-.329-.049a2.4,2.4,0,0,1-2.594-1.807c-.069-.227-.071-.228-.158-.289s-.093-.063-.328-.05a2.4,2.4,0,0,1-2.594-1.806c-.069-.228-.071-.228-.159-.29s-.09-.063-.325-.048a2.4,2.4,0,0,1-2.593-1.805c-.069-.228-.071-.228-.159-.29a1.037,1.037,0,0,1,1.185-1.7,2.364,2.364,0,0,1,.958,1.389c.069.228.071.229.16.291s.087.06.325.047a2.4,2.4,0,0,1,2.593,1.805c.069.227.071.229.159.29s.091.061.328.049a2.4,2.4,0,0,1,2.594,1.806c.069.227.071.229.159.29s.088.064.328.049a2.41,2.41,0,0,1,2.6,1.808c.07.23.071.231.163.294s.093.064.331.05a2.368,2.368,0,0,1,1.637.42A1.036,1.036,0,0,1,203.851,38.521Zm5.928-9.291a1.031,1.031,0,0,1-.592-.186c-.091-.062-.094-.064-.331-.05a2.413,2.413,0,0,1-2.6-1.809c-.07-.23-.072-.231-.163-.294s-.09-.064-.329-.049a2.4,2.4,0,0,1-2.594-1.807c-.069-.227-.07-.229-.158-.289s-.091-.064-.328-.049a2.4,2.4,0,0,1-2.594-1.807c-.069-.227-.071-.229-.159-.29s-.09-.062-.326-.048a2.4,2.4,0,0,1-2.593-1.805c-.069-.228-.071-.229-.159-.29a1.037,1.037,0,0,1,1.185-1.7A2.363,2.363,0,0,1,199,20.143c.069.228.071.228.16.291s.09.061.325.047a2.4,2.4,0,0,1,2.594,1.805c.069.227.071.228.159.29s.093.064.328.049a2.4,2.4,0,0,1,2.594,1.807c.069.227.07.228.158.289s.089.064.33.049a2.41,2.41,0,0,1,2.6,1.808c.07.23.072.231.163.294s.092.063.331.05a2.368,2.368,0,0,1,1.636.418,1.038,1.038,0,0,1-.6,1.89Z" transform="translate(-143.783 -3.413)" fill="#fff"/>
    <path id="Path_367" data-name="Path 367" d="M156.966,314.347l2.278-.893a1.051,1.051,0,0,1,.166-.05l-.907-1.358Z" transform="translate(-127.901 -254.264)"/>
    <path id="Path_368" data-name="Path 368" d="M31.463,55.336l2.3,3.447,2.3-3.447a1.076,1.076,0,0,1,1.724,0l2.3,3.447L42.215,55.6V38.118a1.006,1.006,0,0,1,0-.631V0H0V55.6l2.126,3.185,2.3-3.447a1.036,1.036,0,0,1,1.724,0l2.3,3.447,2.3-3.447a1.036,1.036,0,0,1,1.724,0l2.3,3.449,2.31-3.45a1.038,1.038,0,0,1,.861-.46h0a1.037,1.037,0,0,1,.861.462l2.3,3.444,2.3-3.446a1.037,1.037,0,0,1,1.723,0l2.3,3.449,2.3-3.447a1.077,1.077,0,0,1,1.726,0ZM8.06,43.8h.79a2.618,2.618,0,0,1,0,5.237H6.477a1.037,1.037,0,0,1,0-2.074H8.85a.545.545,0,1,0,0-1.089H8.06a2.614,2.614,0,0,1-.642-5.149v-.238a1.037,1.037,0,1,1,2.074,0v.15h.94a1.037,1.037,0,0,1,0,2.075H8.061a.545.545,0,1,0,0,1.089Zm4.592-9.248a1.037,1.037,0,0,1-1.037,1.037H5.29a1.037,1.037,0,0,1-1.037-1.037V28.225A1.037,1.037,0,0,1,5.29,27.188h6.325a1.037,1.037,0,0,1,1.037,1.037Zm0-11.862a1.037,1.037,0,0,1-1.037,1.037H5.29a1.037,1.037,0,0,1-1.037-1.037V16.363A1.037,1.037,0,0,1,5.29,15.326h6.325a1.037,1.037,0,0,1,1.037,1.037Zm0-11.863a1.037,1.037,0,0,1-1.037,1.037H5.29a1.037,1.037,0,0,1-1.037-1.037V4.5A1.037,1.037,0,0,1,5.29,3.463h6.325A1.037,1.037,0,0,1,12.652,4.5Zm4.5-4.649a2.235,2.235,0,0,1,1.656.74,1.478,1.478,0,0,0,.182.16.51.51,0,0,0,.255-.16,2.222,2.222,0,0,1,3.312,0,1.463,1.463,0,0,0,.182.16A.518.518,0,0,0,23,6.915a2.225,2.225,0,0,1,3.313,0,1.486,1.486,0,0,0,.182.16.511.511,0,0,0,.259-.161,2.231,2.231,0,0,1,3.317,0,1.519,1.519,0,0,0,.183.161.509.509,0,0,0,.265-.161,2.245,2.245,0,0,1,1.659-.739,1.037,1.037,0,1,1,0,2.074.643.643,0,0,0-.224.163,2.231,2.231,0,0,1-3.318,0,1.5,1.5,0,0,0-.183-.161.509.509,0,0,0-.263.161,2.227,2.227,0,0,1-3.315,0,1.5,1.5,0,0,0-.182-.16.517.517,0,0,0-.258.161,2.224,2.224,0,0,1-3.314,0,1.509,1.509,0,0,0-.182-.16.517.517,0,0,0-.255.16,2.223,2.223,0,0,1-3.313,0,1.5,1.5,0,0,0-.182-.16,1.053,1.053,0,0,1-1.055-1.038A1.022,1.022,0,0,1,17.155,6.176Zm0,11.864a2.235,2.235,0,0,1,1.656.74,1.478,1.478,0,0,0,.182.16.51.51,0,0,0,.255-.16,2.222,2.222,0,0,1,3.312,0,1.463,1.463,0,0,0,.182.16A.518.518,0,0,0,23,18.778a2.225,2.225,0,0,1,3.313,0,1.486,1.486,0,0,0,.182.16.511.511,0,0,0,.259-.161,2.231,2.231,0,0,1,3.317,0,1.519,1.519,0,0,0,.183.161.509.509,0,0,0,.265-.161,2.245,2.245,0,0,1,1.659-.739,1.037,1.037,0,1,1,0,2.074.643.643,0,0,0-.224.163,2.231,2.231,0,0,1-3.318,0,1.5,1.5,0,0,0-.183-.161.509.509,0,0,0-.263.161,2.227,2.227,0,0,1-3.315,0,1.5,1.5,0,0,0-.182-.16.517.517,0,0,0-.258.161,2.224,2.224,0,0,1-3.314,0,1.509,1.509,0,0,0-.182-.16.517.517,0,0,0-.255.16,2.223,2.223,0,0,1-3.313,0,1.5,1.5,0,0,0-.182-.16,1.053,1.053,0,0,1-1.055-1.038A1.022,1.022,0,0,1,17.155,18.04Zm0,11.864a2.235,2.235,0,0,1,1.656.74,1.479,1.479,0,0,0,.182.16.51.51,0,0,0,.255-.16,2.222,2.222,0,0,1,3.312,0,1.462,1.462,0,0,0,.182.16A.518.518,0,0,0,23,30.642a2.225,2.225,0,0,1,3.313,0,1.486,1.486,0,0,0,.182.16.511.511,0,0,0,.259-.161,2.231,2.231,0,0,1,3.317,0,1.519,1.519,0,0,0,.183.161.509.509,0,0,0,.265-.161,2.245,2.245,0,0,1,1.659-.739,1.037,1.037,0,1,1,0,2.074.643.643,0,0,0-.224.163,2.232,2.232,0,0,1-3.318,0,1.488,1.488,0,0,0-.183-.161.508.508,0,0,0-.263.161,2.227,2.227,0,0,1-3.315,0,1.5,1.5,0,0,0-.182-.16.516.516,0,0,0-.258.161,2.225,2.225,0,0,1-3.314,0,1.5,1.5,0,0,0-.182-.16.516.516,0,0,0-.255.16,2.223,2.223,0,0,1-3.313,0,1.494,1.494,0,0,0-.182-.16,1.053,1.053,0,0,1-1.055-1.038A1.021,1.021,0,0,1,17.155,29.9Zm-1.828,7.815a1.037,1.037,0,0,1,1.037-1.037H32.973a1.037,1.037,0,0,1,0,2.075H16.364a1.037,1.037,0,0,1-1.037-1.037Zm1.825,9.732a1.037,1.037,0,0,1-1.037-1.037V43.25a1.037,1.037,0,0,1,1.037-1.037H32.178a1.037,1.037,0,0,1,1.037,1.037v3.163a1.037,1.037,0,0,1-1.037,1.037Z" fill="#f79826"/>
  </g>
</svg>
