<svg id="Group_114" data-name="Group 114" xmlns="http://www.w3.org/2000/svg" xmlns:xlink="http://www.w3.org/1999/xlink" width="71.296" height="71.298" viewBox="0 0 71.296 71.298">
  <defs>
    <clipPath id="clip-path">
      <rect id="Rectangle_109" data-name="Rectangle 109" width="71.296" height="71.298" fill="none"/>
    </clipPath>
  </defs>
  <g id="Group_113" data-name="Group 113" clip-path="url(#clip-path)">
    <path id="Path_376" data-name="Path 376" d="M355.754,0a12.329,12.329,0,1,0,12.329,12.329A12.372,12.372,0,0,0,355.754,0" transform="translate(-296.786)" fill="#f79826"/>
    <path id="Path_377" data-name="Path 377" d="M406.093,60.984a1.189,1.189,0,0,1-1.682,1.68l-3.147-3.149-3.147,3.149a1.189,1.189,0,0,1-1.682-1.68l3.149-3.149-3.149-3.149a1.189,1.189,0,0,1,1.682-1.68l3.147,3.149,3.147-3.149a1.189,1.189,0,0,1,1.682,1.68l-3.149,3.149Z" transform="translate(-342.297 -45.506)" fill="#2a459e"/>
    <path id="Path_378" data-name="Path 378" d="M51.6,129.065l-4.634-4.636a28.72,28.72,0,0,0-40.569,0l-4.637,4.636a6.006,6.006,0,0,0,0,8.491l4.636,4.636A28.724,28.724,0,0,0,37.43,148.5a1.188,1.188,0,0,0,.743-1.1v-4.1a6.72,6.72,0,0,1,6.608-6.718,6.576,6.576,0,0,1,4.456,1.729,1.188,1.188,0,0,0,1.646-.033,6.543,6.543,0,0,0,2.477-4.964h0a5.96,5.96,0,0,0-1.763-4.246Z" transform="translate(0 -100.282)" fill="#fff"/>
    <path id="Path_379" data-name="Path 379" d="M285.969,310.411V316.2a1.188,1.188,0,0,1-1.188,1.188l-29.855-.149a1.188,1.188,0,0,1-1.188-1.188V304.193a1.857,1.857,0,1,1,3.713-.071V311.9a1.188,1.188,0,0,0,1.267,1.188,1.215,1.215,0,0,0,1.11-1.225V289a4.238,4.238,0,0,1,4.364-4.232,4.293,4.293,0,0,1,4.1,4.322V303.28a1.188,1.188,0,0,0,1.188,1.188h10.546a5.94,5.94,0,0,1,5.941,5.941Z" transform="translate(-219.278 -246.093)" fill="#f79826"/>
    <path id="Path_380" data-name="Path 380" d="M126.811,184.527a10.952,10.952,0,1,1,7.73-3.208,10.938,10.938,0,0,1-7.73,3.208" transform="translate(-100.134 -140.559)" fill="#2a459e"/>
  </g>
</svg>
