<svg id="Group_116" data-name="Group 116" xmlns="http://www.w3.org/2000/svg" xmlns:xlink="http://www.w3.org/1999/xlink" width="79.513" height="66.925" viewBox="0 0 79.513 66.925">
  <defs>
    <clipPath id="clip-path">
      <rect id="Rectangle_110" data-name="Rectangle 110" width="79.513" height="66.925" fill="none"/>
    </clipPath>
  </defs>
  <g id="Group_115" data-name="Group 115" clip-path="url(#clip-path)">
    <path id="Path_381" data-name="Path 381" d="M20.181,260.935c1.093-.725,1.264-1.6,1.08-3.016-.473-.236-.54-.237-.837-.034a16.968,16.968,0,0,0,.272-5.827c-.5-2.653-2.773-3.494-5.252-3.419s-4.557.316-5.108,3.037a14.354,14.354,0,0,0,.242,6.19c-.273-.184-.351-.176-.808.053-.181,1.387-.019,2.257,1.019,2.975,1.43,6.963,8.389,7.264,9.392.042Zm-5.363,8.951c-.246-.632-.582-1.4-.838-2.007l.46-.585c.785.014,1.58-.015,2.365,0l.473.567c-.246.606-.43,1.386-.65,2.026Zm-5.072-2.4c.842,4.348,2.519,7.289,4.545,8.492.2-1.81.4-3.684.614-5.541h1.705c.221,1.9.485,3.766.747,5.632,1.751-.976,3.374-3.828,4.483-8.639,3.4,3.142,7.514-.451,9.458,9.225-9.934,4.718-20.525,4.718-31.3,0,1.987-9.5,6.925-6.2,9.745-9.168Z" transform="translate(0 -213.262)" fill="#fff"/>
    <path id="Path_382" data-name="Path 382" d="M359.088,260.935c1.093-.725,1.264-1.6,1.08-3.016-.473-.236-.54-.237-.837-.034a16.979,16.979,0,0,0,.272-5.827c-.5-2.653-2.774-3.494-5.253-3.419s-4.557.316-5.108,3.037a14.355,14.355,0,0,0,.242,6.19c-.273-.184-.351-.176-.809.053-.181,1.387-.019,2.257,1.02,2.975,1.43,6.963,8.389,7.264,9.392.042Zm-5.363,8.951c-.247-.632-.583-1.4-.837-2.007l.459-.585c.785.014,1.58-.015,2.365,0l.473.567c-.246.606-.43,1.386-.65,2.026Zm-5.073-2.4c.842,4.348,2.519,7.289,4.545,8.492.2-1.81.4-3.684.614-5.541h1.706c.221,1.9.485,3.766.747,5.632,1.751-.976,3.374-3.828,4.483-8.639,3.4,3.142,7.514-.451,9.458,9.225-9.934,4.718-20.525,4.718-31.3,0,1.988-9.5,6.926-6.2,9.746-9.168Z" transform="translate(-290.691 -213.262)" fill="#fff"/>
    <path id="Path_383" data-name="Path 383" d="M189.631,12.3c1.093-.726,1.265-1.6,1.08-3.016-.473-.237-.54-.237-.837-.034a16.966,16.966,0,0,0,.271-5.827C189.643.771,187.373-.07,184.894,0s-4.557.317-5.108,3.037a14.357,14.357,0,0,0,.242,6.191c-.273-.183-.351-.176-.808.053-.181,1.387-.019,2.257,1.02,2.975,1.43,6.962,8.388,7.264,9.392.041Zm-5.363,8.95c-.247-.632-.583-1.4-.838-2.007l.459-.585c.785.015,1.58-.015,2.366,0l.473.567c-.246.606-.431,1.386-.65,2.026h-1.811Zm-5.072-2.4c.842,4.348,2.519,7.289,4.545,8.492.2-1.81.4-3.684.614-5.541h1.705c.221,1.9.485,3.765.747,5.632,1.751-.976,3.374-3.829,4.483-8.64,3.4,3.142,7.514-.451,9.458,9.226-9.933,4.718-20.525,4.718-31.3,0,1.987-9.5,6.926-6.2,9.745-9.168Z" transform="translate(-145.343 0)" fill="#f79826"/>
    <path id="Path_384" data-name="Path 384" d="M197.8,252.536v-3.995l5.326,4.806-5.326,4.746v-3.925h-19.7v3.925l-5.326-4.746,5.326-4.806v3.995h9.07V242.274H183.17l4.806-5.326,4.746,5.326H188.8v10.261Z" transform="translate(-148.189 -203.238)" fill="#f79826"/>
  </g>
</svg>
