<svg id="Group_118" data-name="Group 118" xmlns="http://www.w3.org/2000/svg" xmlns:xlink="http://www.w3.org/1999/xlink" width="58.214" height="63.506" viewBox="0 0 58.214 63.506">
  <defs>
    <clipPath id="clip-path">
      <rect id="Rectangle_111" data-name="Rectangle 111" width="58.214" height="63.506" fill="none"/>
    </clipPath>
  </defs>
  <g id="Group_117" data-name="Group 117" clip-path="url(#clip-path)">
    <path id="Path_385" data-name="Path 385" d="M248.8,25.966a1.058,1.058,0,0,1-.513.907l-3.78,2.268,3.78,2.268a1.058,1.058,0,0,1,.513.907v4.234h24.344V17.5H248.8Zm8.467,3.44h2.117v.265a1.59,1.59,0,0,0,1.588,1.588h1.058a1.588,1.588,0,0,0,0-3.175h-1.058a3.7,3.7,0,0,1-.529-7.355V18.557h2.117v2.171a3.7,3.7,0,0,1,3.175,3.651v.265h-2.117v-.265a1.59,1.59,0,0,0-1.588-1.588h-1.058a1.588,1.588,0,0,0,0,3.175h1.058a3.7,3.7,0,0,1,.529,7.355v2.171h-2.117V33.322a3.7,3.7,0,0,1-3.175-3.651Z" transform="translate(-214.934 -15.382)" fill="#fff"/>
    <path id="Path_386" data-name="Path 386" d="M8.857,282.843l.669,11.407H13.76L15.744,262.5H7.232l-.882,10.584L0,294.249H5.292Z" transform="translate(0 -230.744)" fill="#fff"/>
    <path id="Path_387" data-name="Path 387" d="M92.436,55.039V45.513h2.117a1.059,1.059,0,0,0,1.058-1.058V35.987a1.059,1.059,0,0,0-1.058-1.058H93.495V27.519a1.059,1.059,0,0,0-1.058-1.058H78.676a1.059,1.059,0,0,0-1.058,1.058v7.409H75.5V28.578H73.384v1.058H68.092V27.519l-11.12-6.672a8.811,8.811,0,0,0-4.852-8.481,6.325,6.325,0,0,0,4.172-7.4l3.422-.736L59.27,2.159l-3.8.817a6.345,6.345,0,1,0-7.09,9.482A8.094,8.094,0,0,0,44.633,20.4l1.232,9.241h8.467L55.9,24.959l12.188,5.736v1.058h5.292V59.272a1.059,1.059,0,0,0,1.058,1.058h.15a4.213,4.213,0,0,0,8.167,0h5.593a4.227,4.227,0,1,0,4.083-5.292Zm-13.76,5.292a1.058,1.058,0,1,1,1.058-1.058,1.059,1.059,0,0,1-1.058,1.058m13.76,0a1.058,1.058,0,1,1,1.058-1.058,1.059,1.059,0,0,1-1.058,1.058" transform="translate(-38.456)" fill="#f79826"/>
  </g>
</svg>
