<svg id="Group_120" data-name="Group 120" xmlns="http://www.w3.org/2000/svg" xmlns:xlink="http://www.w3.org/1999/xlink" width="71.67" height="59.348" viewBox="0 0 71.67 59.348">
  <defs>
    <clipPath id="clip-path">
      <rect id="Rectangle_112" data-name="Rectangle 112" width="71.67" height="59.348" fill="none"/>
    </clipPath>
  </defs>
  <g id="Group_119" data-name="Group 119" clip-path="url(#clip-path)">
    <path id="Path_388" data-name="Path 388" d="M67.524,57.56a1.787,1.787,0,0,0,1.788,1.788H96.722a1.788,1.788,0,1,0,0-3.575h.2c-6.252-.786-6.765-4.971-6.8-5.894h20.81a4.109,4.109,0,0,0,4.1-3.948h0v-.088c0-.025,0-.049,0-.074v-.341c0-.025,0-.049,0-.074V39.115c0-.019,0-.038,0-.057V4.664A4.669,4.669,0,0,0,110.375,0H55.562A4.669,4.669,0,0,0,50.9,4.665V21.49h3.847V4.665a.819.819,0,0,1,.817-.817h54.812a.819.819,0,0,1,.818.817V39.058a.819.819,0,0,1-.817.817H66.6v10h9.217c-.038.923-.551,5.108-6.8,5.894h.3a1.787,1.787,0,0,0-1.788,1.787Z" transform="translate(-43.37)" fill="#fff"/>
    <path id="Path_389" data-name="Path 389" d="M252.29,292.993a2.281,2.281,0,1,1,2.281,2.281,2.281,2.281,0,0,1-2.281-2.281" transform="translate(-214.975 -247.714)" fill="#2a459e"/>
    <path id="Path_390" data-name="Path 390" d="M0,166.329v25.622a4.927,4.927,0,0,0,4.927,4.927H15.569a4.927,4.927,0,0,0,4.927-4.927V166.329A4.927,4.927,0,0,0,15.57,161.4H4.928A4.927,4.927,0,0,0,0,166.329Z" transform="translate(0 -137.53)" fill="#f79826"/>
    <path id="Path_391" data-name="Path 391" d="M55.828,357.824a1.991,1.991,0,1,1,1.991,1.991,1.991,1.991,0,0,1-1.991-1.991" transform="translate(-47.571 -303.204)" fill="#2a459e"/>
    <path id="Path_392" data-name="Path 392" d="M323.694,126.425a.658.658,0,0,1,.006.089v1.422a.7.7,0,0,1-.7.7h-3.6a.7.7,0,0,1-.7-.7V113.654l.033-.034c.02-.02.039-.04.058-.061l-.023.025c.025-.027.144-.144.285-.286l3.09-3.09,0,0,1.518-1.518Z" transform="translate(-271.562 -92.617)" fill="#f79826"/>
    <path id="Path_393" data-name="Path 393" d="M323.694,126.425a.658.658,0,0,1,.006.089v1.422a.7.7,0,0,1-.7.7h-3.6a.7.7,0,0,1-.7-.7V113.654l.033-.034c.02-.02.039-.04.058-.061l-.023.025c.025-.027.144-.144.285-.286l3.09-3.09,0,0,1.518-1.518Z" transform="translate(-271.562 -92.617)" fill="#f79826"/>
    <path id="Path_394" data-name="Path 394" d="M279.778,152.346v12.787a.7.7,0,0,1-.7.7h-3.6a.7.7,0,0,1-.7-.7V157.3a2.527,2.527,0,0,0,.332-.28Z" transform="translate(-234.136 -129.813)" fill="#f79826"/>
    <path id="Path_395" data-name="Path 395" d="M235.852,173.106v7.369a.7.7,0,0,1-.7.7h-3.6a.7.7,0,0,1-.7-.7v-8.923l1.2-1.2,2.007,2.007A2.544,2.544,0,0,0,235.852,173.106Z" transform="translate(-196.707 -145.154)" fill="#f79826"/>
    <path id="Path_396" data-name="Path 396" d="M188.461,192.04l.227-.225,3.23-3.23v7.428a.7.7,0,0,1-.7.7h-3.6a.7.7,0,0,1-.7-.7v-2.437l1.162-1.162c.142-.142.227-.225.246-.243" transform="translate(-159.271 -160.692)" fill="#f79826"/>
    <path id="Path_397" data-name="Path 397" d="M188.6,51.577l-1.448,6.659c-.065.3-.218.653-.433.653-.059,0-.278-.025-.6-.349l-1.6-1.6-.538.538,0-.005L172.151,69.289a.711.711,0,0,1-1.005,0l-1.307-1.307a.692.692,0,0,0-.126-.126l-1.722-1.722L157.942,76.184a.711.711,0,0,1-1.005,0l-.058-.058a.429.429,0,0,1-.144-.094l-1.19-1.19a.428.428,0,0,1-.118-.375.706.706,0,0,1,.2-.6l11.858-11.858a.711.711,0,0,1,1.005,0l3.155,3.155L182.1,54.713a.827.827,0,0,1,.1-.08l-1.6-1.595c-.306-.306-.376-.548-.342-.663s.223-.281.646-.372l6.668-1.446a1.634,1.634,0,0,1,.346-.04.725.725,0,0,1,.573.22A.994.994,0,0,1,188.6,51.577Z" transform="translate(-132.434 -43.046)" fill="#f79826"/>
  </g>
</svg>
