<svg id="Group_103" data-name="Group 103" xmlns="http://www.w3.org/2000/svg" xmlns:xlink="http://www.w3.org/1999/xlink" width="479.857" height="206.354" viewBox="0 0 479.857 206.354">
  <defs>
    <clipPath id="clip-path">
      <rect id="Rectangle_99" data-name="Rectangle 99" width="479.857" height="206.354" fill="none"/>
    </clipPath>
    <clipPath id="clip-path-3">
      <path id="Path_163" data-name="Path 163" d="M583.717,151.09c-77.492,26.661-4.5,124.142-4.5,124.142s268.224.834,304.733.555,64.927-58.609,26.281-75.206c-24.637-10.581-48.694-25.987-42.661-38.873,5.521-11.793,4.517-44.551-39.148-55.907-21.8-5.67-44.044-3.983-65.064-2.3-24.823,1.991-47.94,3.983-66.61-6.14-17.22-9.336-31.286-13.11-42.928-13.11-46.978,0-54.46,61.453-70.1,66.835" transform="translate(-548.07 -84.255)" fill="none"/>
    </clipPath>
    <clipPath id="clip-path-4">
      <rect id="Rectangle_32" data-name="Rectangle 32" width="161.286" height="99.697" fill="none"/>
    </clipPath>
    <clipPath id="clip-path-5">
      <rect id="Rectangle_33" data-name="Rectangle 33" width="312.305" height="164.537" fill="none"/>
    </clipPath>
    <clipPath id="clip-path-7">
      <rect id="Rectangle_39" data-name="Rectangle 39" width="54.982" height="34.757" fill="none"/>
    </clipPath>
    <clipPath id="clip-path-8">
      <rect id="Rectangle_40" data-name="Rectangle 40" width="73.957" height="46.755" fill="none"/>
    </clipPath>
    <clipPath id="clip-path-9">
      <rect id="Rectangle_41" data-name="Rectangle 41" width="90.255" height="76.874" fill="none"/>
    </clipPath>
    <clipPath id="clip-path-10">
      <rect id="Rectangle_44" data-name="Rectangle 44" width="18.719" height="18.719" fill="none"/>
    </clipPath>
    <clipPath id="clip-path-11">
      <rect id="Rectangle_45" data-name="Rectangle 45" width="18.575" height="18.576" fill="none"/>
    </clipPath>
    <clipPath id="clip-path-12">
      <rect id="Rectangle_56" data-name="Rectangle 56" width="0.86" height="1.99" fill="none"/>
    </clipPath>
    <clipPath id="clip-path-13">
      <rect id="Rectangle_58" data-name="Rectangle 58" width="0.859" height="1.99" fill="none"/>
    </clipPath>
    <clipPath id="clip-path-14">
      <rect id="Rectangle_60" data-name="Rectangle 60" width="1.123" height="2.6" fill="none"/>
    </clipPath>
    <clipPath id="clip-path-18">
      <rect id="Rectangle_69" data-name="Rectangle 69" width="1.748" height="7.434" fill="none"/>
    </clipPath>
    <clipPath id="clip-path-19">
      <rect id="Rectangle_80" data-name="Rectangle 80" width="0.716" height="2.143" fill="none"/>
    </clipPath>
    <clipPath id="clip-path-20">
      <rect id="Rectangle_93" data-name="Rectangle 93" width="5.939" height="6.902" fill="none"/>
    </clipPath>
    <clipPath id="clip-path-21">
      <rect id="Rectangle_95" data-name="Rectangle 95" width="1.101" height="0.501" fill="none"/>
    </clipPath>
    <clipPath id="clip-path-22">
      <rect id="Rectangle_97" data-name="Rectangle 97" width="0.956" height="2.112" fill="none"/>
    </clipPath>
  </defs>
  <g id="Group_102" data-name="Group 102" clip-path="url(#clip-path)">
    <g id="Group_43" data-name="Group 43" transform="translate(0 0)">
      <g id="Group_42" data-name="Group 42" clip-path="url(#clip-path)">
        <path id="Path_160" data-name="Path 160" d="M583.717,151.09c19.519-6.716,26.328-100.735,113.03-53.725,34.48,18.695,84.128-3.928,131.674,8.437,43.665,11.356,44.669,44.114,39.148,55.907-6.032,12.886,18.024,28.292,42.661,38.873,38.646,16.6,10.228,74.927-26.281,75.206s-304.733-.555-304.733-.555-72.99-97.481,4.5-124.142" transform="translate(-463.287 -71.221)" fill="#ebf3fa"/>
      </g>
    </g>
    <g id="Group_51" data-name="Group 51" transform="translate(84.782 13.034)">
      <g id="Group_50" data-name="Group 50" clip-path="url(#clip-path-3)">
        <g id="Group_46" data-name="Group 46" transform="translate(233.789 93.623)" opacity="0.6">
          <g id="Group_45" data-name="Group 45">
            <g id="Group_44" data-name="Group 44" clip-path="url(#clip-path-4)">
              <path id="Path_161" data-name="Path 161" d="M2208.261,721.641V713.9h-2.9V700.585H2189.79V713.9h-14.555V692.205h-16.061v14.082h-3.662V689.475h-16.061V721h-20.312v18.382h-7.59V731.2h-17.433v4.84h-10.009V714.368h-12.364v16.038h-12.364v58.766h161.286V721.641Z" transform="translate(-2059.379 -689.475)" fill="#dcebf9"/>
            </g>
          </g>
        </g>
        <g id="Group_49" data-name="Group 49" transform="translate(-84.782 28.783)" opacity="0.6">
          <g id="Group_48" data-name="Group 48" transform="translate(0 0)">
            <g id="Group_47" data-name="Group 47" clip-path="url(#clip-path-5)">
              <path id="Path_162" data-name="Path 162" d="M299.469,310.627h-3V288.655h-16.11v21.972H265.293v-35.8h-16.62v23.241h-3.79V270.319h-16.62v52.024H207.244V352.68H199.39V339.174H181.35v7.988H170.993V311.4H158.2v26.469H145.4v2.983h-9.672V330.116h-2.647V311.652H118.893v18.464H105.623V300.029H90.981V319.56H87.642V296.243H73v43.719H54.481v25.494H47.562V354.105H31.669v6.713H22.544V330.767H11.272V353.01H0v81.5H145.4v.343H312.3V323.405H299.469Z" transform="translate(0 -270.319)" fill="#dcebf9"/>
            </g>
          </g>
        </g>
        <rect id="Rectangle_34" data-name="Rectangle 34" width="8.665" height="206.221" transform="translate(227.523 -13.034)" fill="#deedff"/>
        <rect id="Rectangle_35" data-name="Rectangle 35" width="8.665" height="206.221" transform="translate(59.427 -13.034)" fill="#deedff"/>
      </g>
    </g>
    <g id="Group_101" data-name="Group 101" transform="translate(0 0)">
      <g id="Group_100" data-name="Group 100" clip-path="url(#clip-path)">
        <rect id="Rectangle_36" data-name="Rectangle 36" width="96.931" height="82.285" transform="translate(211.196 53.717)" fill="#7283f7"/>
        <rect id="Rectangle_37" data-name="Rectangle 37" width="96.931" height="1.388" transform="translate(211.196 136.001)" fill="#6076e8"/>
        <rect id="Rectangle_38" data-name="Rectangle 38" width="90.256" height="76.874" transform="translate(214.532 56.422)" fill="#9ca8ff"/>
        <g id="Group_54" data-name="Group 54" transform="translate(249.806 56.423)" opacity="0.2">
          <g id="Group_53" data-name="Group 53">
            <g id="Group_52" data-name="Group 52" clip-path="url(#clip-path-7)">
              <path id="Path_164" data-name="Path 164" d="M1669.831,386.423v13.072l-54.983-34.757h20.672Z" transform="translate(-1614.849 -364.738)" fill="#fffdfc"/>
            </g>
          </g>
        </g>
        <g id="Group_57" data-name="Group 57" transform="translate(230.831 56.423)" opacity="0.2">
          <g id="Group_56" data-name="Group 56">
            <g id="Group_55" data-name="Group 55" clip-path="url(#clip-path-8)">
              <path id="Path_165" data-name="Path 165" d="M1566.151,404.391v7.1l-73.957-46.755h11.227Z" transform="translate(-1492.194 -364.738)" fill="#fffdfc"/>
            </g>
          </g>
        </g>
        <g id="Group_60" data-name="Group 60" transform="translate(214.533 56.423)" opacity="0.2">
          <g id="Group_59" data-name="Group 59">
            <g id="Group_58" data-name="Group 58" clip-path="url(#clip-path-9)">
              <path id="Path_166" data-name="Path 166" d="M1477.083,418.447v23.165h-18.111l-72.146-45.606V364.738h5.292Z" transform="translate(-1386.827 -364.738)" fill="#fffdfc"/>
            </g>
          </g>
        </g>
        <rect id="Rectangle_42" data-name="Rectangle 42" width="6.465" height="80.883" transform="translate(256.429 54.417)" fill="#7283f7"/>
        <path id="Path_167" data-name="Path 167" d="M1451.207,600.708H1350.822a.6.6,0,1,1,0-1.2h100.385a.6.6,0,1,1,0,1.2" transform="translate(-1141.354 -506.772)" fill="#6076e8"/>
        <path id="Path_168" data-name="Path 168" d="M1451.207,344.577H1350.822a.6.6,0,1,1,0-1.2h100.385a.6.6,0,1,1,0,1.2" transform="translate(-1141.354 -290.263)" fill="#6076e8"/>
        <path id="Path_169" data-name="Path 169" d="M1451.207,360.585H1350.822a.6.6,0,1,1,0-1.2h100.385a.6.6,0,1,1,0,1.2" transform="translate(-1141.354 -303.795)" fill="#6076e8"/>
        <path id="Path_170" data-name="Path 170" d="M1451.207,376.593H1350.822a.6.6,0,1,1,0-1.2h100.385a.6.6,0,1,1,0,1.2" transform="translate(-1141.354 -317.326)" fill="#6076e8"/>
        <path id="Path_171" data-name="Path 171" d="M1451.207,392.6H1350.822a.6.6,0,1,1,0-1.2h100.385a.6.6,0,1,1,0,1.2" transform="translate(-1141.354 -330.858)" fill="#6076e8"/>
        <path id="Path_172" data-name="Path 172" d="M1451.207,408.61H1350.822a.6.6,0,1,1,0-1.2h100.385a.6.6,0,1,1,0,1.2" transform="translate(-1141.354 -344.391)" fill="#6076e8"/>
        <path id="Path_173" data-name="Path 173" d="M1451.207,424.618H1350.822a.6.6,0,1,1,0-1.2h100.385a.6.6,0,1,1,0,1.2" transform="translate(-1141.354 -357.922)" fill="#6076e8"/>
        <path id="Path_174" data-name="Path 174" d="M1451.207,440.626H1350.822a.6.6,0,1,1,0-1.2h100.385a.6.6,0,1,1,0,1.2" transform="translate(-1141.354 -371.454)" fill="#6076e8"/>
        <path id="Path_175" data-name="Path 175" d="M1451.207,456.634H1350.822a.6.6,0,1,1,0-1.2h100.385a.6.6,0,1,1,0,1.2" transform="translate(-1141.354 -384.986)" fill="#6076e8"/>
        <path id="Path_176" data-name="Path 176" d="M1451.207,472.643H1350.822a.6.6,0,1,1,0-1.2h100.385a.6.6,0,1,1,0,1.2" transform="translate(-1141.354 -398.518)" fill="#6076e8"/>
        <path id="Path_177" data-name="Path 177" d="M1451.207,488.651H1350.822a.6.6,0,1,1,0-1.2h100.385a.6.6,0,1,1,0,1.2" transform="translate(-1141.354 -412.05)" fill="#6076e8"/>
        <path id="Path_178" data-name="Path 178" d="M1451.207,504.659H1350.822a.6.6,0,1,1,0-1.2h100.385a.6.6,0,1,1,0,1.2" transform="translate(-1141.354 -425.581)" fill="#6076e8"/>
        <path id="Path_179" data-name="Path 179" d="M1451.207,520.667H1350.822a.6.6,0,1,1,0-1.2h100.385a.6.6,0,1,1,0,1.2" transform="translate(-1141.354 -439.113)" fill="#6076e8"/>
        <path id="Path_180" data-name="Path 180" d="M1451.207,536.676H1350.822a.6.6,0,1,1,0-1.2h100.385a.6.6,0,1,1,0,1.2" transform="translate(-1141.354 -452.646)" fill="#6076e8"/>
        <path id="Path_181" data-name="Path 181" d="M1451.207,552.684H1350.822a.6.6,0,1,1,0-1.2h100.385a.6.6,0,1,1,0,1.2" transform="translate(-1141.354 -466.177)" fill="#6076e8"/>
        <path id="Path_182" data-name="Path 182" d="M1451.207,568.692H1350.822a.6.6,0,1,1,0-1.2h100.385a.6.6,0,1,1,0,1.2" transform="translate(-1141.354 -479.709)" fill="#6076e8"/>
        <path id="Path_183" data-name="Path 183" d="M1451.207,584.7H1350.822a.6.6,0,1,1,0-1.2h100.385a.6.6,0,1,1,0,1.2" transform="translate(-1141.354 -493.241)" fill="#6076e8"/>
        <path id="Path_184" data-name="Path 184" d="M1451.542,317.477H1350.487a.263.263,0,0,1-.263-.262v-1.866a.263.263,0,0,1,.263-.262h101.056a.263.263,0,0,1,.262.262v1.866a.263.263,0,0,1-.262.263" transform="translate(-1141.354 -266.344)" fill="#4963ce"/>
        <rect id="Rectangle_43" data-name="Rectangle 43" width="0.688" height="44.935" transform="translate(302.653 51.133)" fill="#4963ce"/>
        <path id="Path_185" data-name="Path 185" d="M1955.026,620.27h-1.207a.18.18,0,0,1-.18-.18V617.2a.18.18,0,0,1,.18-.18h1.207a.18.18,0,0,1,.18.18v2.891a.18.18,0,0,1-.18.18" transform="translate(-1651.426 -521.571)" fill="#4963ce"/>
        <circle id="Ellipse_10" data-name="Ellipse 10" cx="13.416" cy="13.416" r="13.416" transform="translate(354.298 64.424) rotate(-54.218)" fill="none" stroke="#6076e8" stroke-width="1"/>
        <path id="Path_186" data-name="Path 186" d="M2359.329,333.079a11.664,11.664,0,1,1-11.664-11.664,11.664,11.664,0,0,1,11.664,11.664" transform="translate(-1974.639 -271.695)" fill="#3945ba"/>
        <path id="Path_187" data-name="Path 187" d="M2406.66,391.013a1.062,1.062,0,1,1-1.062-1.062,1.062,1.062,0,0,1,1.062,1.062" transform="translate(-2032.573 -329.628)" fill="#fff"/>
        <path id="Path_188" data-name="Path 188" d="M2389.213,358.253h0a.332.332,0,0,1-.451-.129l-3.43-6.187a.332.332,0,0,1,.581-.322l3.43,6.187a.332.332,0,0,1-.129.451" transform="translate(-2016.302 -297.078)" fill="#fff"/>
        <path id="Path_189" data-name="Path 189" d="M2411.959,397.374h0a.332.332,0,0,1,.47,0l2.968,2.968a.332.332,0,0,1-.469.469l-2.968-2.968a.332.332,0,0,1,0-.469" transform="translate(-2038.765 -335.82)" fill="#fff"/>
        <line id="Line_1" data-name="Line 1" y1="1.341" transform="translate(373.098 50.708)" fill="none" stroke="#fff" stroke-linecap="round" stroke-width="2"/>
        <line id="Line_2" data-name="Line 2" x2="1.341" transform="translate(382.362 61.456)" fill="none" stroke="#fff" stroke-linecap="round" stroke-width="2"/>
        <line id="Line_3" data-name="Line 3" y2="1.341" transform="translate(372.955 70.72)" fill="none" stroke="#fff" stroke-linecap="round" stroke-width="2"/>
        <line id="Line_4" data-name="Line 4" x1="1.341" transform="translate(362.349 61.313)" fill="none" stroke="#fff" stroke-linecap="round" stroke-width="2"/>
        <g id="Group_63" data-name="Group 63" transform="translate(363.667 52.025)" opacity="0.5">
          <g id="Group_62" data-name="Group 62">
            <g id="Group_61" data-name="Group 61" clip-path="url(#clip-path-10)">
              <line id="Line_5" data-name="Line 5" x1="0.671" y1="1.162" transform="translate(4.082 0.077)" fill="none" stroke="#dee3fc" stroke-linecap="round" stroke-width="1"/>
              <line id="Line_6" data-name="Line 6" y1="0.671" x2="1.162" transform="translate(17.48 4.083)" fill="none" stroke="#dee3fc" stroke-linecap="round" stroke-width="1"/>
              <line id="Line_7" data-name="Line 7" x2="0.671" y2="1.162" transform="translate(13.965 17.48)" fill="none" stroke="#dee3fc" stroke-linecap="round" stroke-width="1"/>
              <line id="Line_8" data-name="Line 8" x1="1.162" y2="0.671" transform="translate(0.077 13.966)" fill="none" stroke="#dee3fc" stroke-linecap="round" stroke-width="1"/>
            </g>
          </g>
        </g>
        <g id="Group_66" data-name="Group 66" transform="translate(363.738 52.096)" opacity="0.5">
          <g id="Group_65" data-name="Group 65">
            <g id="Group_64" data-name="Group 64" clip-path="url(#clip-path-11)">
              <line id="Line_9" data-name="Line 9" x1="1.162" y1="0.671" transform="translate(0.077 3.888)" fill="none" stroke="#dee3fc" stroke-linecap="round" stroke-width="1"/>
              <line id="Line_10" data-name="Line 10" y1="1.162" x2="0.671" transform="translate(14.018 0.077)" fill="none" stroke="#dee3fc" stroke-linecap="round" stroke-width="1"/>
              <line id="Line_11" data-name="Line 11" x2="1.162" y2="0.671" transform="translate(17.337 14.018)" fill="none" stroke="#dee3fc" stroke-linecap="round" stroke-width="1"/>
              <line id="Line_12" data-name="Line 12" x1="0.671" y2="1.162" transform="translate(3.887 17.337)" fill="none" stroke="#dee3fc" stroke-linecap="round" stroke-width="1"/>
            </g>
          </g>
        </g>
        <rect id="Rectangle_46" data-name="Rectangle 46" width="26.151" height="34.996" transform="translate(322.031 48.046)" fill="#4963ce"/>
        <rect id="Rectangle_47" data-name="Rectangle 47" width="26.151" height="0.799" transform="translate(322.031 83.041)" fill="#6076e8"/>
        <rect id="Rectangle_48" data-name="Rectangle 48" width="22.864" height="31.541" transform="translate(323.674 49.773)" fill="#9ca8ff"/>
        <rect id="Rectangle_49" data-name="Rectangle 49" width="11.239" height="11.432" transform="translate(323.674 49.773)" fill="#7283f7"/>
        <rect id="Rectangle_50" data-name="Rectangle 50" width="11.612" height="2.008" transform="translate(334.914 60.199)" fill="#7283f7"/>
        <rect id="Rectangle_51" data-name="Rectangle 51" width="11.612" height="1.26" transform="translate(334.927 63.21)" fill="#7283f7"/>
        <rect id="Rectangle_52" data-name="Rectangle 52" width="11.612" height="1.26" transform="translate(334.927 65.473)" fill="#7283f7"/>
        <rect id="Rectangle_53" data-name="Rectangle 53" width="11.612" height="1.26" transform="translate(334.927 67.737)" fill="#7283f7"/>
        <rect id="Rectangle_54" data-name="Rectangle 54" width="11.612" height="1.26" transform="translate(334.927 70.001)" fill="#7283f7"/>
        <path id="Path_190" data-name="Path 190" d="M2103.623,470.714V460.661l-11.252,10.053Z" transform="translate(-1768.696 -389.4)" fill="#7283f7"/>
        <path id="Path_191" data-name="Path 191" d="M2092.37,405.727V395.675l11.252,10.053Z" transform="translate(-1768.696 -334.466)" fill="#7283f7"/>
        <path id="Path_192" data-name="Path 192" d="M2141.154,470.714V460.661L2129.9,470.714Z" transform="translate(-1800.422 -389.4)" fill="#7283f7"/>
        <path id="Path_193" data-name="Path 193" d="M2178.685,470.714V460.661l-11.252,10.053Z" transform="translate(-1832.147 -389.4)" fill="#7283f7"/>
        <path id="Path_194" data-name="Path 194" d="M2176.637,327.556a5.806,5.806,0,1,1-5.806-5.806,5.806,5.806,0,0,1,5.806,5.806" transform="translate(-1830.111 -271.977)" fill="#7283f7"/>
        <path id="Path_195" data-name="Path 195" d="M2082.887,601.488c1.283-2.025,1.391-10.256,1.391-10.256h-10.9s-.109,8.231-1.391,10.256Z" transform="translate(-1751.462 -499.772)" fill="#4963ce"/>
        <g id="Group_69" data-name="Group 69" transform="translate(322.55 90.264)" opacity="0.2">
          <g id="Group_68" data-name="Group 68">
            <g id="Group_67" data-name="Group 67" clip-path="url(#clip-path-12)">
              <rect id="Rectangle_55" data-name="Rectangle 55" width="0.86" height="1.99" transform="translate(0)" fill="#fffdfc"/>
            </g>
          </g>
        </g>
        <g id="Group_72" data-name="Group 72" transform="translate(331.321 90.264)" opacity="0.2">
          <g id="Group_71" data-name="Group 71">
            <g id="Group_70" data-name="Group 70" clip-path="url(#clip-path-13)">
              <rect id="Rectangle_57" data-name="Rectangle 57" width="0.86" height="1.99" transform="translate(-0.001)" fill="#fffdfc"/>
            </g>
          </g>
        </g>
        <path id="Path_196" data-name="Path 196" d="M1089.961,704.858c-1.676-2.646-1.817-13.4-1.817-13.4h14.245s.142,10.752,1.817,13.4Z" transform="translate(-919.816 -584.496)" fill="#4963ce"/>
        <g id="Group_75" data-name="Group 75" transform="translate(180.616 105.403)" opacity="0.2">
          <g id="Group_74" data-name="Group 74">
            <g id="Group_73" data-name="Group 73" clip-path="url(#clip-path-14)">
              <rect id="Rectangle_59" data-name="Rectangle 59" width="1.123" height="2.6" transform="translate(0 0)" fill="#fffdfc"/>
            </g>
          </g>
        </g>
        <g id="Group_78" data-name="Group 78" transform="translate(169.16 105.403)" opacity="0.2">
          <g id="Group_77" data-name="Group 77">
            <g id="Group_76" data-name="Group 76" clip-path="url(#clip-path-14)">
              <rect id="Rectangle_61" data-name="Rectangle 61" width="1.123" height="2.6" transform="translate(0 0)" fill="#fffdfc"/>
            </g>
          </g>
        </g>
        <path id="Path_197" data-name="Path 197" d="M2180.716,660.319c1.283-2.025,1.391-10.256,1.391-10.256h-10.9s-.109,8.231-1.391,10.256Z" transform="translate(-1834.157 -549.503)" fill="#e3e5ed"/>
        <g id="Group_81" data-name="Group 81" transform="translate(337.683 99.365)" opacity="0.2">
          <g id="Group_80" data-name="Group 80">
            <g id="Group_79" data-name="Group 79" clip-path="url(#clip-path-12)">
              <rect id="Rectangle_63" data-name="Rectangle 63" width="0.86" height="1.99" transform="translate(0 0)" fill="#fffdfc"/>
            </g>
          </g>
        </g>
        <g id="Group_84" data-name="Group 84" transform="translate(346.453 99.365)" opacity="0.2">
          <g id="Group_83" data-name="Group 83">
            <g id="Group_82" data-name="Group 82" clip-path="url(#clip-path-12)">
              <rect id="Rectangle_65" data-name="Rectangle 65" width="0.86" height="1.99" transform="translate(0.001 0)" fill="#fffdfc"/>
            </g>
          </g>
        </g>
        <path id="Path_198" data-name="Path 198" d="M973.2,594.883H911.17a.777.777,0,1,1,0-1.555H973.2a.777.777,0,0,1,0,1.555" transform="translate(-769.562 -501.544)" fill="#4963ce"/>
        <path id="Path_199" data-name="Path 199" d="M950.061,607.551h0a.774.774,0,0,1-.774-.774v-3.4h1.548v3.4a.774.774,0,0,1-.774.774" transform="translate(-802.439 -510.039)" fill="#4963ce"/>
        <path id="Path_200" data-name="Path 200" d="M1273.314,607.551h0a.774.774,0,0,1-.774-.774v-3.4h1.548v3.4a.774.774,0,0,1-.774.774" transform="translate(-1075.687 -510.039)" fill="#4963ce"/>
        <path id="Path_201" data-name="Path 201" d="M962.9,512.748a11.341,11.341,0,0,1-4.964-7.076s3.843.8,5.769,7.076" transform="translate(-809.754 -427.448)" fill="#dee3fc"/>
        <path id="Path_202" data-name="Path 202" d="M996.039,512.748a11.341,11.341,0,0,0,4.964-7.076s-3.843.8-5.769,7.076" transform="translate(-841.279 -427.448)" fill="#dee3fc"/>
        <path id="Path_203" data-name="Path 203" d="M980.266,503.084a11.342,11.342,0,0,1-2.074-8.391s3.3,2.13,2.825,8.682" transform="translate(-826.737 -418.167)" fill="#dee3fc"/>
        <path id="Path_204" data-name="Path 204" d="M994.113,502.921a11.341,11.341,0,0,0,1.874-8.438s-3.245,2.208-2.618,8.747" transform="translate(-839.635 -417.99)" fill="#dee3fc"/>
        <rect id="Rectangle_67" data-name="Rectangle 67" width="8.89" height="7.434" transform="translate(149.415 84.349)" fill="#fff"/>
        <g id="Group_87" data-name="Group 87" transform="translate(156.557 84.35)" opacity="0.6">
          <g id="Group_86" data-name="Group 86">
            <g id="Group_85" data-name="Group 85" clip-path="url(#clip-path-18)">
              <rect id="Rectangle_68" data-name="Rectangle 68" width="1.747" height="7.434" transform="translate(0.001 0)" fill="#dee3fc"/>
            </g>
          </g>
        </g>
        <path id="Path_205" data-name="Path 205" d="M1049.855,571.836l-1.206,3.325h.666l2.4-1.926" transform="translate(-886.431 -483.376)" fill="#335099"/>
        <path id="Path_206" data-name="Path 206" d="M1092.464,571.836l1.206,3.325H1093l-2.4-1.926" transform="translate(-921.891 -483.376)" fill="#335099"/>
        <path id="Path_207" data-name="Path 207" d="M1057.489,526.11a4.941,4.941,0,1,1-4.941-4.942,4.941,4.941,0,0,1,4.941,4.942" transform="translate(-885.549 -440.547)" fill="#3d59b2"/>
        <path id="Path_208" data-name="Path 208" d="M1061.512,530.3a4.04,4.04,0,1,1-4.04-4.04,4.041,4.041,0,0,1,4.04,4.04" transform="translate(-890.474 -444.85)" fill="#fff"/>
        <path id="Path_209" data-name="Path 209" d="M1078.539,536.275h-.526l.263-2.946Z" transform="translate(-911.252 -450.826)" fill="#dee3fc"/>
        <path id="Path_210" data-name="Path 210" d="M1078.454,551.118l.39-.563,3.02,2.394Z" transform="translate(-911.625 -465.388)" fill="#dee3fc"/>
        <path id="Path_211" data-name="Path 211" d="M1077.1,549.173a.586.586,0,1,1-.586-.586.586.586,0,0,1,.586.586" transform="translate(-909.486 -463.724)" fill="#dee3fc"/>
        <rect id="Rectangle_70" data-name="Rectangle 70" width="22.833" height="2.856" transform="translate(177.831 88.927)" fill="#3d59b2"/>
        <rect id="Rectangle_71" data-name="Rectangle 71" width="3.217" height="1.421" transform="translate(178.56 89.645)" fill="#dbdbdb"/>
        <rect id="Rectangle_72" data-name="Rectangle 72" width="0.733" height="1.421" transform="translate(198.887 89.645)" fill="#dbdbdb"/>
        <rect id="Rectangle_73" data-name="Rectangle 73" width="11.517" height="1.421" transform="translate(184.874 89.645)" fill="#dbdbdb"/>
        <rect id="Rectangle_74" data-name="Rectangle 74" width="16.491" height="2.063" transform="translate(181.003 84.008)" fill="#467cdb"/>
        <rect id="Rectangle_75" data-name="Rectangle 75" width="1.727" height="1.027" transform="translate(181.529 84.526)" fill="#dbdbdb"/>
        <rect id="Rectangle_76" data-name="Rectangle 76" width="0.529" height="2.063" transform="translate(196.209 84.008)" fill="#dbdbdb"/>
        <rect id="Rectangle_77" data-name="Rectangle 77" width="0.529" height="2.063" transform="translate(195.281 84.008)" fill="#dbdbdb"/>
        <rect id="Rectangle_78" data-name="Rectangle 78" width="9.782" height="1.027" transform="translate(184.625 84.526)" fill="#dbdbdb"/>
        <path id="Path_212" data-name="Path 212" d="M1159.59,556.4v2.856h-22.83v-.384h14.949v-2.052H1136.76V556.4Z" transform="translate(-960.911 -470.325)" fill="#687dbe"/>
        <rect id="Rectangle_79" data-name="Rectangle 79" width="14.438" height="2.052" transform="translate(176.359 86.49)" fill="#dbdbdb"/>
        <path id="Path_213" data-name="Path 213" d="M1610.61,630.453h21.9a2.542,2.542,0,0,1,2.541,2.542v5.174a2.542,2.542,0,0,1-2.221,2.522.366.366,0,0,0-.321.364v2.832a.168.168,0,0,1-.305.1l-2.231-3.12a.369.369,0,0,0-.3-.154H1610.61a2.541,2.541,0,0,1-2.541-2.541v-5.174A2.542,2.542,0,0,1,1610.61,630.453Z" transform="translate(-1359.312 -532.926)" fill="none" stroke="#fff" stroke-width="0.896"/>
        <path id="Path_214" data-name="Path 214" d="M1744.355,658.983a.837.837,0,1,0,.837-.837A.837.837,0,0,0,1744.355,658.983Z" transform="translate(-1474.516 -556.335)" fill="none" stroke="#fff" stroke-width="0.896"/>
        <path id="Path_215" data-name="Path 215" d="M1717.116,658.983a.837.837,0,1,0,.837-.837A.837.837,0,0,0,1717.116,658.983Z" transform="translate(-1451.491 -556.335)" fill="none" stroke="#fff" stroke-width="0.896"/>
        <path id="Path_216" data-name="Path 216" d="M1689.877,658.983a.837.837,0,1,0,.837-.837A.837.837,0,0,0,1689.877,658.983Z" transform="translate(-1428.465 -556.335)" fill="none" stroke="#fff" stroke-width="0.896"/>
        <path id="Path_217" data-name="Path 217" d="M1662.638,658.983a.837.837,0,1,0,.837-.837A.837.837,0,0,0,1662.638,658.983Z" transform="translate(-1405.44 -556.335)" fill="none" stroke="#fff" stroke-width="0.896"/>
        <path id="Path_218" data-name="Path 218" d="M1635.4,658.983a.837.837,0,1,0,.837-.837A.837.837,0,0,0,1635.4,658.983Z" transform="translate(-1382.414 -556.335)" fill="none" stroke="#fff" stroke-width="0.896"/>
        <path id="Path_219" data-name="Path 219" d="M1741.1,1145.412h1.407l8.214-31.879h-3.683Z" transform="translate(-1471.768 -941.277)" fill="#c4c9fc"/>
        <path id="Path_220" data-name="Path 220" d="M1897.683,1145.412h-1.407l-8.214-31.879h3.683Z" transform="translate(-1595.993 -941.277)" fill="#c4c9fc"/>
        <path id="Path_221" data-name="Path 221" d="M1821.605,1145.412h1.406l8.214-31.879h-3.683Z" transform="translate(-1539.816 -941.277)" fill="#a4afff"/>
        <path id="Path_222" data-name="Path 222" d="M1978.184,1145.412h-1.406l-8.214-31.879h3.683Z" transform="translate(-1664.041 -941.277)" fill="#a4afff"/>
        <path id="Path_223" data-name="Path 223" d="M1792.554,1081.215c1.438.262,6.475,1.951,4.97,3.02-2.614,1.857-29.24,2.017-34.979-.088-4.54-1.666-3.3-5.572,1.651-6.26s20.848,1.957,28.357,3.328" transform="translate(-1487.513 -911.051)" fill="#c4c9fc"/>
        <path id="Path_224" data-name="Path 224" d="M1722.426,909.26l-6.859-33.118a1.991,1.991,0,0,1,1.949-2.395h15.138V909.26Z" transform="translate(-1450.146 -738.584)" fill="#c4c9fc"/>
        <path id="Path_225" data-name="Path 225" d="M2032.276,1294.4h-11.118a6.066,6.066,0,0,1,.725-4.433s.9.718,3.576.232a11.911,11.911,0,0,0,1.891,1.321c.777.376,5.226,1.25,4.926,2.879" transform="translate(-1708.379 -1090.422)" fill="#fff"/>
        <path id="Path_226" data-name="Path 226" d="M1827.911,1259.35a4.247,4.247,0,0,1-1.134,1.226,4.965,4.965,0,0,0-2.07,2.92,4.827,4.827,0,0,0,1.659,1.722c.518.38,2.421,2.947,3.193,3.259h5.136s.4-1.831-2.218-2.446a6.465,6.465,0,0,1-1.894-3.407l.759-2.041Z" transform="translate(-1542.439 -1064.537)" fill="#fff"/>
        <path id="Path_227" data-name="Path 227" d="M1849.615,1021.114h0a9.829,9.829,0,0,1,.451-2.3s19.5,3.677,24.688,5.419c2.577.866,4.544,2.456,4.787,4.781l.012,0c.026.244.653,23.47.742,31.925a12.754,12.754,0,0,1-4.392.392c-.592-3.442-2.373-10.951-3.137-14.519a102.786,102.786,0,0,1-2.271-12.747c-7.884-.686-18.293-1.845-19.542-2.476-2.06-1.04-2.68-4.718-1.339-10.478" transform="translate(-1562.893 -861.214)" fill="#24315d"/>
        <path id="Path_228" data-name="Path 228" d="M1794.332,1019.524c-2.888-.653-6.165-1.38-8.877-1.984l-7.316-1.667-8.048-2.63s-.07.563-.225,2.086c0,0-2.863,9.415,1.677,11.847,3.524,1.888,10.718,2.286,17.469,2.546l10.238-6.271c-.613-1.968-3.136-3.522-4.917-3.927" transform="translate(-1495.328 -856.501)" fill="#2d3a70"/>
        <path id="Path_229" data-name="Path 229" d="M1840.6,1096.255c-.912,3-2.913,9.183-3.934,11.992a8.037,8.037,0,0,0,4.239,2.077c3.722-7.33,10.655-19.22,13.055-23.749h0l1.958-3.511a4.939,4.939,0,0,0,.552-3.831l-11.221,4.408c-2.141,3.46-3.432,8.625-4.648,12.615" transform="translate(-1552.548 -912.282)" fill="#2d3a70"/>
        <path id="Path_230" data-name="Path 230" d="M1888.954,884.458l-5.015,1.878c-.058-.083-.111-.169-.161-.252v0a13.29,13.29,0,0,1-1.626-4.135v-.008c-.268-.821-.5-1.643-.7-2.41-.566-2.179-.863-3.913-.863-3.913l5.72-2.782,1.032,4.532.347,1.535v0Z" transform="translate(-1589.675 -737.81)" fill="#e5918f"/>
        <path id="Path_231" data-name="Path 231" d="M1886.167,904.178c.2.768.433,1.589.7,2.41v.008a13.293,13.293,0,0,0,1.626,4.135,35.959,35.959,0,0,1-.38-4.854,19.268,19.268,0,0,0,4.288-2.324v0l-.347-1.535a7.583,7.583,0,0,0-1.238.012c-.363.07-3.149,1.255-3.871,1.527a2.04,2.04,0,0,0-.78.623" transform="translate(-1594.391 -762.464)" fill="#cc6362"/>
        <path id="Path_232" data-name="Path 232" d="M1761.109,833.034a38.535,38.535,0,0,1,.051,9.166,20.33,20.33,0,0,0-.2,2.175c0,.3.38.611.537.7,1.638.945,8.015,1.086,11.222,1.086,2.848,0,7.128-.454,7.664-1.172.5-.66.041-1.614-.194-2.934-1.048-5.956-.677-9.059-.611-13.36,0-.107,0-.214,0-.326v-.082h0c.339-.049.66-.111.941-.169.462-.1.817-.206.97-.256,3.459-1.085,3.975-2.2,3.975-2.2a34.229,34.229,0,0,0-3.211-9c-.025-.045-.05-.091-.078-.141s-.054-.095-.083-.14a8.222,8.222,0,0,0-2.282-2.373c-.091-.066-.177-.128-.272-.194a19.2,19.2,0,0,0-6.071-2.518.065.065,0,0,0-.017,0c-.822-.053-1.717-.07-2.691-.037a32.132,32.132,0,0,0-6.707,1.1l-.029.008a8.885,8.885,0,0,0-3.385,2.373,11.079,11.079,0,0,0-1.585,2.125c.111,2.666.689,7.466,1.015,11.614.054.627.995,3.962,1.032,4.556" transform="translate(-1486.948 -685.748)" fill="#fff"/>
        <path id="Path_233" data-name="Path 233" d="M1891.743,880.339c.338-.05.66-.111.941-.169l-.8-7.347c-.029,1.2-.128,6.769-.14,7.516" transform="translate(-1599.104 -737.803)" fill="#e3e6ed"/>
        <path id="Path_234" data-name="Path 234" d="M1864.979,725.667s.758,4.987-1.468,5.5c-1.432.332-1.259-1.419-1.259-1.419l-.038-2.073Z" transform="translate(-1574.144 -613.411)" fill="#192c51"/>
        <path id="Path_235" data-name="Path 235" d="M1815.391,776.575c-4.631.549-5.7-3.062-4.932-3.422a.9.9,0,0,0,.73-.743c.669-2.6-.165-6.727-.165-6.727s3.3,2.608,4.845,3.83l.789.631a5.367,5.367,0,0,0-.074,1.758,1.327,1.327,0,0,0,.074.268,3,3,0,0,1,.053.615l0,0c.318.4,1.651,3.434-1.325,3.793" transform="translate(-1530.203 -647.237)" fill="#e5918f"/>
        <path id="Path_236" data-name="Path 236" d="M1834.761,789.133a4.622,4.622,0,0,1-3.025-3.066l1.754.413.557.264.788.631a5.377,5.377,0,0,0-.074,1.758" transform="translate(-1548.38 -664.468)" fill="#cc6362"/>
        <path id="Path_237" data-name="Path 237" d="M1817.456,714.454c.029,1.507.022,5.553-.8,7.878a2.5,2.5,0,0,1-2.61,1.644,6.536,6.536,0,0,1-4.151-2.107c-.737-.783-1.565-.883-1.948-1.888-.622-1.632-1.585-4.664-1.033-6.623.754-2.673,8.943-5.7,10.378-.251a5.715,5.715,0,0,1,.164,1.346" transform="translate(-1527.258 -600.228)" fill="#e5918f"/>
        <path id="Path_238" data-name="Path 238" d="M1797.533,703.75c-.3-2,.11-2.388.883-2.823,1.595-.9,8.5-.551,11.776,1.2.751.4.4,1.931.077,2.493-2.026,3.568-5.973,2.039-7.53,1.707-.234,1.1-.017,2.561-.818,3.422a2.926,2.926,0,0,1-2.246.559c-.086.222-.522.45-.529.752-.025,1.036.224,2.4.187,3.643l-.447-.157c-.092-.307-5.666-10.158-1.353-10.795" transform="translate(-1518.086 -592.094)" fill="#192c51"/>
        <ellipse id="Ellipse_11" data-name="Ellipse 11" cx="1.051" cy="1.351" rx="1.051" ry="1.351" transform="translate(287.939 115.507) rotate(-0.213)" fill="none" stroke="#fff" stroke-width="0.246"/>
        <ellipse id="Ellipse_12" data-name="Ellipse 12" cx="1.051" cy="1.351" rx="1.051" ry="1.351" transform="translate(284.999 115.471) rotate(-0.213)" fill="none" stroke="#fff" stroke-width="0.246"/>
        <path id="Path_239" data-name="Path 239" d="M1856.819,754.816s-.191-.215-.837-.044" transform="translate(-1568.875 -637.958)" fill="none" stroke="#fff" stroke-width="0.246"/>
        <line id="Line_13" data-name="Line 13" x1="2.501" y2="0.035" transform="translate(282.509 117)" fill="none" stroke="#fff" stroke-width="0.246"/>
        <path id="Path_240" data-name="Path 240" d="M1817.274,755.386c-1.644.859-2.672-3.313-1.061-3.691,1.222-.286,1.474,1.436,1.474,1.436s.526,1.764-.413,2.254" transform="translate(-1534.574 -635.386)" fill="#e5918f"/>
        <g id="Group_90" data-name="Group 90" transform="translate(281.595 116.94)" opacity="0.5">
          <g id="Group_89" data-name="Group 89">
            <g id="Group_88" data-name="Group 88" clip-path="url(#clip-path-19)">
              <path id="Path_241" data-name="Path 241" d="M1821.179,755.949a1.337,1.337,0,0,1,.329,1.9c-.061.081-.124.161-.188.238.047-.09.1-.174.148-.262a1.5,1.5,0,0,0-.289-1.881" transform="translate(-1821.051 -755.949)" fill="#cc6362"/>
              <path id="Path_242" data-name="Path 242" d="M1820.347,761.3c.322-.064.583.225.687.5l-.091.031c-.072-.274-.28-.561-.6-.534" transform="translate(-1820.347 -760.468)" fill="#cc6362"/>
            </g>
          </g>
        </g>
        <path id="Path_243" data-name="Path 243" d="M1779.838,872.823s-.91,5.456-1.563,7.932a7.164,7.164,0,0,1-2.012.138Z" transform="translate(-1501.487 -737.803)" fill="#e3e6ed"/>
        <path id="Path_244" data-name="Path 244" d="M1741.273,883.894s-.046.305-.132.817c-.153.9-.421,2.431-.763,4.049-.231,1.09-.5,2.216-.776,3.215h-6.368c0-.017,0-.033,0-.05a.236.236,0,0,1,.008-.074c.091-.97.214-2.1.355-3.248.008-.066.012-.1.012-.1.107-.891.219-1.8.33-2.654.054-.446.107-.875.161-1.284.256-1.969.458-3.434.458-3.434Z" transform="translate(-1465.115 -744.824)" fill="#e5918f"/>
        <path id="Path_245" data-name="Path 245" d="M1737.824,897.182a15.5,15.5,0,0,0,6.434,2.914c.343-1.618.611-3.153.763-4.049a1.457,1.457,0,0,0-.305-.371c-.343-.173-4.094-1.135-4.094-1.135l-2.637,1.358c-.054.409-.107.838-.161,1.284" transform="translate(-1468.995 -756.162)" fill="#cc6362"/>
        <path id="Path_246" data-name="Path 246" d="M1735.419,824.851a14.431,14.431,0,0,1,2.322-3.947,7.428,7.428,0,0,1,3.187-1.949c.721-.291,1.269-.458,1.269-.458s2.147,1.547,1.392,7.642a54.386,54.386,0,0,1-2.314,8.1,11.358,11.358,0,0,1-4.941-.827,10.406,10.406,0,0,1-3.1-1.717,50.113,50.113,0,0,1,2.186-6.848" transform="translate(-1465.115 -691.882)" fill="#fff"/>
        <path id="Path_247" data-name="Path 247" d="M1833.9,836.455s2.932,16.6,2.932,20.188c0,1.533-2.194,5.4-2.581,5.4-.439,0-2.729-4.038-2.681-5.576.172-5.606.937-19.949.937-19.949Z" transform="translate(-1548.237 -707.061)" fill="#46509b"/>
        <path id="Path_248" data-name="Path 248" d="M1902.253,948.889s1.427,2.6,3.593,2.909,16.471-1.747,16.471-1.747v-1.977l-15.091-1.242Z" transform="translate(-1607.988 -800.364)" fill="#e5918f"/>
        <rect id="Rectangle_81" data-name="Rectangle 81" width="25.029" height="1.082" transform="translate(286.036 148.589)" fill="#3945ba"/>
        <path id="Path_249" data-name="Path 249" d="M1755.981,947.807a15.347,15.347,0,0,0-2.631-.575,7.56,7.56,0,0,1-1.5.5,6.4,6.4,0,0,1-1.189-.086l-12.412-1.788-5.432.834s-.6,3.964,1.571,4.274,16.273-1.738,16.273-1.738h7a10.257,10.257,0,0,0-1.685-1.419" transform="translate(-1464.703 -799.539)" fill="#e5918f"/>
        <path id="Path_250" data-name="Path 250" d="M1836.118,822.383l1.111,2.235s-.323.724-.935.768a2.172,2.172,0,0,1-1.136-.618Z" transform="translate(-1551.271 -695.166)" fill="#46509b"/>
        <path id="Path_251" data-name="Path 251" d="M1809.909,805.857a6.042,6.042,0,0,0,3.749,2.556l-.961,2.386a4.284,4.284,0,0,1-4.11-3.6Z" transform="translate(-1528.812 -681.196)" fill="#e3e5ed"/>
        <path id="Path_252" data-name="Path 252" d="M1841.369,809.9l1.11,2.236s1.926-.669,1.03-3.791l-.531-.729a2.554,2.554,0,0,1-1.61,2.284" transform="translate(-1556.522 -682.685)" fill="#e3e5ed"/>
        <path id="Path_253" data-name="Path 253" d="M1587.2,984.042l-11.542,51.715h-1.9l9.859-51.715Z" transform="translate(-1330.307 -831.817)" fill="#3945ba"/>
        <path id="Path_254" data-name="Path 254" d="M2213.729,984.042l11.542,51.715h1.9l-9.859-51.715Z" transform="translate(-1871.281 -831.817)" fill="#3945ba"/>
        <rect id="Rectangle_82" data-name="Rectangle 82" width="93.452" height="1.869" transform="translate(252.583 156.452)" fill="#3945ba"/>
        <path id="Path_255" data-name="Path 255" d="M1683.85,970.178H1569.114a1.268,1.268,0,1,1,0-2.537H1683.85a1.268,1.268,0,1,1,0,2.537" transform="translate(-1325.311 -817.954)" fill="#f5f7ff"/>
        <rect id="Rectangle_83" data-name="Rectangle 83" width="6.166" height="11.473" transform="translate(329.255 135.163)" fill="#7a84ce"/>
        <rect id="Rectangle_84" data-name="Rectangle 84" width="3.458" height="15.097" transform="translate(336.708 134.59)" fill="#3945ba"/>
        <path id="Path_256" data-name="Path 256" d="M2132.5,870.047h-1.959l-2.017,7.3h-4.1v7.8h8.074Z" transform="translate(-1795.794 -735.457)" fill="#2f3c89"/>
        <path id="Path_257" data-name="Path 257" d="M2180.845,882.349a1.076,1.076,0,1,0,1.076-1.076,1.076,1.076,0,0,0-1.076,1.076" transform="translate(-1843.484 -744.946)" fill="#7a84ce"/>
        <rect id="Rectangle_85" data-name="Rectangle 85" width="1.844" height="6.56" transform="translate(337.514 139.096)" fill="#7a84ce"/>
        <rect id="Rectangle_86" data-name="Rectangle 86" width="1.844" height="0.673" transform="translate(337.514 145.962)" fill="#7a84ce"/>
        <rect id="Rectangle_87" data-name="Rectangle 87" width="1.844" height="0.673" transform="translate(337.514 146.913)" fill="#7a84ce"/>
        <rect id="Rectangle_88" data-name="Rectangle 88" width="6.166" height="11.473" transform="translate(324.296 135.163)" fill="#fff"/>
        <rect id="Rectangle_89" data-name="Rectangle 89" width="3.457" height="15.097" transform="translate(331.749 134.59)" fill="#525bad"/>
        <path id="Path_258" data-name="Path 258" d="M2100.445,870.047h-1.959l-2.017,7.3h-4.1v7.8h8.074Z" transform="translate(-1768.696 -735.457)" fill="#454f94"/>
        <path id="Path_259" data-name="Path 259" d="M2148.787,882.349a1.076,1.076,0,1,0,1.075-1.076,1.076,1.076,0,0,0-1.075,1.076" transform="translate(-1816.385 -744.946)" fill="#7a84ce"/>
        <rect id="Rectangle_90" data-name="Rectangle 90" width="1.844" height="6.56" transform="translate(332.556 139.096)" fill="#7a84ce"/>
        <rect id="Rectangle_91" data-name="Rectangle 91" width="1.844" height="0.673" transform="translate(332.556 145.962)" fill="#7a84ce"/>
        <rect id="Rectangle_92" data-name="Rectangle 92" width="1.844" height="0.673" transform="translate(332.556 146.913)" fill="#7a84ce"/>
        <path id="Path_260" data-name="Path 260" d="M1900.478,759.284l-1.005-.672a.985.985,0,0,0-.571-.185h-32.043a1.823,1.823,0,0,0-1.781,1.433l-5.517,25.19a.993.993,0,0,0,.425,1.04l-.006,0,1.009.681.179-.512h31.411a1.823,1.823,0,0,0,1.781-1.433l5.517-25.19a.984.984,0,0,0,.02-.194Z" transform="translate(-1571.881 -641.104)" fill="#dee3fc"/>
        <path id="Path_261" data-name="Path 261" d="M1867.04,790.648h32.043a1.823,1.823,0,0,0,1.781-1.433l5.517-25.19a1,1,0,0,0-.975-1.211h-32.043a1.823,1.823,0,0,0-1.781,1.433l-5.517,25.19a1,1,0,0,0,.975,1.211" transform="translate(-1577.378 -644.811)" fill="#3945ba"/>
        <path id="Path_262" data-name="Path 262" d="M1982.348,866.669a.863.863,0,0,0-.85-.716H1977.3l-.528-.634-.232,1.063a.655.655,0,0,0-.039.354l2.477,14.4h5.853Z" transform="translate(-1670.748 -731.46)" fill="#f5f7ff"/>
        <path id="Path_263" data-name="Path 263" d="M1980.546,877.6h5.853l-2.489-14.463a.863.863,0,0,0-.85-.717h-4.331a.67.67,0,0,0-.66.784Z" transform="translate(-1672.068 -729.006)" fill="#dee3fc"/>
        <path id="Path_264" data-name="Path 264" d="M1924.55,959.68h8.746v-1.457h-8.361a.386.386,0,0,0-.386.386Z" transform="translate(-1626.836 -809.993)" fill="#dee3fc"/>
        <path id="Path_265" data-name="Path 265" d="M1969.984,959.68h16.645v-1.032a.425.425,0,0,0-.425-.425h-15.795a.425.425,0,0,0-.425.425Z" transform="translate(-1665.242 -809.993)" fill="#3945ba"/>
        <g id="Group_93" data-name="Group 93" transform="translate(257.396 134.43)" opacity="0.4">
          <g id="Group_92" data-name="Group 92">
            <g id="Group_91" data-name="Group 91" clip-path="url(#clip-path-20)">
              <path id="Path_266" data-name="Path 266" d="M1666.91,869.264c.308-.37,3.2-.687,2.927,1.79-.13,1.179-1.81,1.489-2.406,1.7s.312.49.375,1.023-.374.858-1.675.73-1.109,1.406-1.109,1.406h-.341a1.571,1.571,0,0,1-.16-1.329c.3-.575,1.066-.77.746-1.239s-1.651-.608-1.289-1.646c.267-.766,3.06-.416,3.068-.986.006-.443-.578-.922-.137-1.451" transform="translate(-1663.917 -869.013)" fill="#fff"/>
            </g>
          </g>
        </g>
        <path id="Path_267" data-name="Path 267" d="M1657.672,909.576l-1.258,8.628a.2.2,0,0,1-.192.168h-3.981a.193.193,0,0,1-.192-.168l-.11-.762-1.147-7.866a.193.193,0,0,1,.192-.221h6.5a.194.194,0,0,1,.192.221" transform="translate(-1395.425 -768.684)" fill="#dee3fc"/>
        <path id="Path_268" data-name="Path 268" d="M1688.121,920.251h.5a1.064,1.064,0,0,1,1.064,1.064v2.415a2.173,2.173,0,0,1-2.173,2.173" transform="translate(-1426.466 -777.895)" fill="none" stroke="#c1ccf4" stroke-width="1.025"/>
        <path id="Path_269" data-name="Path 269" d="M1663.955,909.576,1662.7,918.2a.2.2,0,0,1-.192.168h-3.981a.193.193,0,0,1-.192-.168l-.11-.762c3.618-.84,4.913-8.087,4.913-8.087h.627a.194.194,0,0,1,.192.221" transform="translate(-1401.708 -768.684)" fill="#c1ccf4"/>
        <path id="Path_270" data-name="Path 270" d="M2249.037,894.284l-2.051,8.042.39.1,2.537-7.918" transform="translate(-1899.394 -755.944)" fill="#adbae0"/>
        <path id="Path_271" data-name="Path 271" d="M2262.1,880.985l-.624,2.445a.23.23,0,0,0,.446.114l.07-.276a.958.958,0,0,1,1.233-.41s-1.08-.135-1.117-.132.026-1.873-.009-1.74" transform="translate(-1911.633 -744.697)" fill="#beebfd"/>
        <path id="Path_272" data-name="Path 272" d="M2253.348,893.809l-.006,8.3h-.4l-.5-8.3" transform="translate(-1904.007 -755.542)" fill="#c0caed"/>
        <path id="Path_273" data-name="Path 273" d="M2247.955,879.612c0,.138,0,2.523,0,2.523a.23.23,0,1,1-.459,0v-.285a.958.958,0,0,0-1.093-.7s1.08.137,1.114.148.44-1.821.439-1.683" transform="translate(-1898.899 -743.536)" fill="#beebfd"/>
        <path id="Path_274" data-name="Path 274" d="M2259.136,870.232a.593.593,0,0,0,1.149.293.956.956,0,0,1,.112-.3c.115-.163.35-.225.773-.121l.02.006a2.411,2.411,0,1,0-1.314-2.779c-.012.045-.019.091-.029.136h0Zm2.233-.824a1.485,1.485,0,0,1-.79-1.9c.224-.877.942-1.454,1.6-1.286a1.484,1.484,0,0,1,.79,1.9c-.224.877-.942,1.454-1.6,1.286" transform="translate(-1909.649 -731.588)" fill="#525bad"/>
        <path id="Path_275" data-name="Path 275" d="M2233.452,863.667a2.2,2.2,0,0,0,1.958,2.37l.029,0c.43.006.64.124.71.309a.958.958,0,0,1,.035.317.593.593,0,1,0,1.186,0v-2.854h0c0-.046.006-.092.006-.139a2,2,0,1,0-3.92,0m.726,0c0-.905.555-1.642,1.236-1.641s1.233.738,1.233,1.643-.555,1.642-1.235,1.641-1.233-.738-1.233-1.643" transform="translate(-1887.953 -728.063)" fill="#525bad"/>
        <path id="Path_276" data-name="Path 276" d="M2247.533,872.169a.045.045,0,0,0,.042-.042l.016-.23a.046.046,0,1,0-.091-.006l-.015.23a.045.045,0,0,0,.042.049h.006" transform="translate(-1899.815 -736.979)" fill="#fff"/>
        <path id="Path_277" data-name="Path 277" d="M2241.3,887.956l.608.041.65-9.808-.3-.02-.3-.02Z" transform="translate(-1894.589 -742.305)" fill="#454f94"/>
        <path id="Path_278" data-name="Path 278" d="M2245.8,873.016l.123.008.188.827-.608-.041Z" transform="translate(-1898.138 -737.967)" fill="#626faf"/>
        <path id="Path_279" data-name="Path 279" d="M2228.129,875.621l1.044-.188-1.639-9.079a.033.033,0,0,0-.038-.026l-.98.177a.033.033,0,0,0-.026.038Z" transform="translate(-1882.067 -732.313)" fill="#2d3a70"/>
        <path id="Path_280" data-name="Path 280" d="M2226.664,867.507l1.044-.189-.174-.964a.033.033,0,0,0-.038-.026l-.98.177a.033.033,0,0,0-.026.038Z" transform="translate(-1882.067 -732.313)" fill="#fff"/>
        <g id="Group_96" data-name="Group 96" transform="translate(344.595 135.006)" opacity="0.5">
          <g id="Group_95" data-name="Group 95">
            <g id="Group_94" data-name="Group 94" clip-path="url(#clip-path-21)">
              <rect id="Rectangle_94" data-name="Rectangle 94" width="1.061" height="0.318" transform="translate(0.001 0.188) rotate(-10.24)" fill="#599dd0"/>
            </g>
          </g>
        </g>
        <rect id="Rectangle_96" data-name="Rectangle 96" width="1.831" height="9.906" transform="translate(341.612 136.151) rotate(-21.51)" fill="#454f94"/>
        <line id="Line_14" data-name="Line 14" x1="0.561" y2="0.221" transform="translate(341.73 136.23)" fill="none" stroke="#caf1fd" stroke-width="0.19"/>
        <line id="Line_15" data-name="Line 15" x1="0.561" y2="0.221" transform="translate(341.919 136.708)" fill="none" stroke="#caf1fd" stroke-width="0.19"/>
        <line id="Line_16" data-name="Line 16" x1="0.561" y2="0.221" transform="translate(342.107 137.187)" fill="none" stroke="#caf1fd" stroke-width="0.19"/>
        <line id="Line_17" data-name="Line 17" x1="0.836" y2="0.329" transform="translate(342.296 137.558)" fill="none" stroke="#caf1fd" stroke-width="0.19"/>
        <line id="Line_18" data-name="Line 18" x1="0.561" y2="0.221" transform="translate(342.485 138.144)" fill="none" stroke="#caf1fd" stroke-width="0.19"/>
        <line id="Line_19" data-name="Line 19" x1="0.561" y2="0.221" transform="translate(342.673 138.623)" fill="none" stroke="#caf1fd" stroke-width="0.19"/>
        <line id="Line_20" data-name="Line 20" x1="0.561" y2="0.221" transform="translate(342.862 139.102)" fill="none" stroke="#caf1fd" stroke-width="0.19"/>
        <line id="Line_21" data-name="Line 21" x1="0.836" y2="0.329" transform="translate(343.051 139.472)" fill="none" stroke="#caf1fd" stroke-width="0.19"/>
        <line id="Line_22" data-name="Line 22" x1="0.562" y2="0.221" transform="translate(343.239 140.059)" fill="none" stroke="#caf1fd" stroke-width="0.19"/>
        <line id="Line_23" data-name="Line 23" x1="0.561" y2="0.221" transform="translate(343.428 140.538)" fill="none" stroke="#caf1fd" stroke-width="0.19"/>
        <line id="Line_24" data-name="Line 24" x1="0.561" y2="0.221" transform="translate(343.617 141.017)" fill="none" stroke="#caf1fd" stroke-width="0.19"/>
        <line id="Line_25" data-name="Line 25" x1="0.836" y2="0.329" transform="translate(343.805 141.387)" fill="none" stroke="#caf1fd" stroke-width="0.19"/>
        <line id="Line_26" data-name="Line 26" x1="0.561" y2="0.221" transform="translate(343.994 141.974)" fill="none" stroke="#caf1fd" stroke-width="0.19"/>
        <line id="Line_27" data-name="Line 27" x1="0.562" y2="0.221" transform="translate(344.183 142.453)" fill="none" stroke="#caf1fd" stroke-width="0.19"/>
        <line id="Line_28" data-name="Line 28" x1="0.561" y2="0.221" transform="translate(344.371 142.932)" fill="none" stroke="#caf1fd" stroke-width="0.19"/>
        <line id="Line_29" data-name="Line 29" x1="0.836" y2="0.329" transform="translate(344.56 143.302)" fill="none" stroke="#caf1fd" stroke-width="0.19"/>
        <line id="Line_30" data-name="Line 30" x1="0.561" y2="0.221" transform="translate(344.749 143.889)" fill="none" stroke="#caf1fd" stroke-width="0.19"/>
        <line id="Line_31" data-name="Line 31" x1="0.561" y2="0.221" transform="translate(344.938 144.368)" fill="none" stroke="#caf1fd" stroke-width="0.19"/>
        <line id="Line_32" data-name="Line 32" x1="0.561" y2="0.221" transform="translate(345.126 144.846)" fill="none" stroke="#caf1fd" stroke-width="0.19"/>
        <path id="Path_281" data-name="Path 281" d="M2217.559,909.268l.907,8.191a.741.741,0,0,0,.737.659h4.524a.741.741,0,0,0,.737-.659l.907-8.191a.189.189,0,0,0-.187-.213h-7.437a.189.189,0,0,0-.188.213" transform="translate(-1874.517 -768.43)" fill="#c1ccf4"/>
        <path id="Path_282" data-name="Path 282" d="M2217.559,909.268l.907,8.191a.741.741,0,0,0,.737.659h2.8a.741.741,0,0,0,.737-.659l.907-8.191a.189.189,0,0,0-.188-.213h-5.708a.189.189,0,0,0-.188.213" transform="translate(-1874.517 -768.43)" fill="#dee3fc"/>
        <path id="Path_283" data-name="Path 283" d="M941.4,1053.259a3.8,3.8,0,0,1,.052-1.62,16.047,16.047,0,0,0-.181-8.724c-1.928-6.02-9.741-11.351-9.741-11.351s2.121,8.883,3.865,12.666a47.626,47.626,0,0,0,4.749,7.58,3.7,3.7,0,0,1,.682,1.557,64.8,64.8,0,0,1,1.077,12.485l.586.023a65.418,65.418,0,0,0-1.088-12.615" transform="translate(-787.432 -871.988)" fill="#dee3fc"/>
        <path id="Path_284" data-name="Path 284" d="M1005.918,1076.821a70.325,70.325,0,0,0,2.274-10.688s-7.006,5.781-7.58,10.254a15.019,15.019,0,0,0,.477,6.23,4.259,4.259,0,0,1,.165,1.693,59.344,59.344,0,0,0-.145,11.7l.528-.061a58.377,58.377,0,0,1,.083-10.988,4.37,4.37,0,0,1,.965-2.322,18.354,18.354,0,0,0,3.232-5.823" transform="translate(-845.716 -901.21)" fill="#b4c1ef"/>
        <path id="Path_285" data-name="Path 285" d="M1018.9,1064.657s-7.549,2.8-9.523,8.966a16.447,16.447,0,0,0-.164,9.016,3.1,3.1,0,0,1,0,1.536,69.161,69.161,0,0,0-1.8,14.534h.6a68.684,68.684,0,0,1,1.735-14.22,5.339,5.339,0,0,1,.9-1.912,48.133,48.133,0,0,0,4.748-7.607,81.594,81.594,0,0,0,3.506-10.312" transform="translate(-851.574 -899.962)" fill="#dee3fc"/>
        <path id="Path_286" data-name="Path 286" d="M927.054,1114.115a20.946,20.946,0,0,0-1.743-6.852,2.338,2.338,0,0,1-.176-1.24,11.321,11.321,0,0,0-.176-3.684c-.613-3.024-4.627-9.558-10.439-9.941a42.314,42.314,0,0,1,3.037,5.921c1.305,3.413,3.169,6.983,6.259,8.353a2.323,2.323,0,0,1,1.2,1.242,20.251,20.251,0,0,1,1.512,6.24Z" transform="translate(-773.049 -923.412)" fill="#b4c1ef"/>
        <path id="Path_287" data-name="Path 287" d="M956.466,1228.233h9.591l2.488-15.207a1.106,1.106,0,0,0-1.091-1.284H955.069a1.106,1.106,0,0,0-1.091,1.284Z" transform="translate(-806.391 -1024.294)" fill="#dee3fc"/>
        <path id="Path_288" data-name="Path 288" d="M1067.786,935.419c-7.613,2.184-15.942,8.057-14.308,32.231.664,9.829,7.291,26.034,29.58,26.034,23.485,0,37.347,2.555,46.593-9.732s1.007-23.631-9.975-26.52c-8.132-2.14-15.571-4.258-20.437-7.907s-14.668-18.92-31.452-14.1" transform="translate(-890.338 -789.93)" fill="#fff"/>
        <path id="Path_289" data-name="Path 289" d="M1097.066,977.854c-3.249,2.813-5.064,6.957-6.043,11.065a46.281,46.281,0,0,0,1.3,22.122c2.248,6.659,7.054,10.751,13.677,12.8.872.252,1.818.522,2.7.715a90.913,90.913,0,0,0,31.865.827,48.622,48.622,0,0,0,12.319-3.439,48.7,48.7,0,0,1-12.294,3.588,91.24,91.24,0,0,1-19.216.961,73.149,73.149,0,0,1-14.3-2.033c-7.215-1.9-12.6-6.132-15.009-13.332a38.633,38.633,0,0,1-1.85-9.455,39.873,39.873,0,0,1,.661-12.792c1.031-4.113,2.9-8.246,6.19-11.031" transform="translate(-921.382 -826.587)" fill="#c4c9fc"/>
        <path id="Path_290" data-name="Path 290" d="M1357.156,1082.283l2.182,7.236,2.871-.2.389-.026c-.591,2.605.417,6.168,1.45,10.038.154.588.547,1.89.951,3.275s.82,2.841,1.022,3.736l.723,3.99a17.333,17.333,0,0,1,2.021,2.478c2.882,4.144,5.338,3.1,5.424,2.927-.269-.408-3.208-4.619-3.4-4.9a4.615,4.615,0,0,1-.91-2.792l-.123-2.336c-.195-8.98.3-16.874.279-17.035.217-4.275-1.33-5.279-4.073-6.3a11.331,11.331,0,0,0-2.68-.269c-2.807-.09-6.124.176-6.124.176" transform="translate(-1147.214 -914.697)" fill="#e5918f"/>
        <path id="Path_291" data-name="Path 291" d="M1413.59,1261.285a4.286,4.286,0,0,1,1.507,1.188c.764.86,1.522,2.394,2.285,3.057a.316.316,0,0,0,.416-.009,2.034,2.034,0,0,1,1.726-.614,11.844,11.844,0,0,0,2,2.25c1.388,1.178,2.769,1.474,2.863,1.747a.783.783,0,0,1-.605,1.142c-1.327.148-5.553,0-5.553,0a3.508,3.508,0,0,1-2.1-1.271,35.8,35.8,0,0,0-2.993-4.027c-.748-.629-.571-2.144.454-3.464" transform="translate(-1194.146 -1066.173)" fill="#22256f"/>
        <path id="Path_292" data-name="Path 292" d="M1413.541,1280.6s.192,1.236.255,2.432c.051.969.109,2.547.129,3.11a.215.215,0,0,0,.217.207h1.385a.216.216,0,0,0,.217-.218,24.217,24.217,0,0,1,.3-4.651c.357-1.154-2.5-.88-2.5-.88" transform="translate(-1194.876 -1082.48)" fill="#22256f"/>
        <path id="Path_293" data-name="Path 293" d="M1322.665,1090.446c.588-.082,1.587-.191,2.212-.258.15-.019.277-.03.374-.041a15.82,15.82,0,0,0-1.651,5.9c-.034.385-.045.906-.045,1.508,0,3.118.533,7.044.537,7.3-.019,1.2-.056,2.875-.112,3.234-.09.573-.73.618-.67,1.468a10.9,10.9,0,0,0,1.6,4.118c.839,1.2,2.9,3.17,3.62,2.676s.457-2.141.064-3.328c-.221-.662-.6-1.658-.9-2.407a4.613,4.613,0,0,1-.3-2.156l.266-2.523c.546-2.687,1.306-5.446,2.04-7.936s1.271-3.316,1.705-4.921c0,0,2.358-7.531.865-8.92a10.893,10.893,0,0,0-5.36-1.962,6.886,6.886,0,0,0-3.624.438c-2.841,1.34-1.527,7.943-.625,7.816" transform="translate(-1117.126 -914.734)" fill="#e5918f"/>
        <path id="Path_294" data-name="Path 294" d="M1330.08,1249.9a2.181,2.181,0,0,0,.206,1.768c.524,1.065.973,1.959,1.36,2.835s.855-.165,1.69-.287c1.129-.164,1.307.47,1.307.47s.887,2.076,1.138,2.933c.219.749.777,1.739.853,2.191s-.316.653-1.247.622a4.805,4.805,0,0,1-3.907-1.779,12,12,0,0,1-1.732-3.485c-.688-1.742-1-2.232-.965-3.377a2.677,2.677,0,0,1,1.3-1.89" transform="translate(-1123.227 -1056.553)" fill="#22256f"/>
        <path id="Path_295" data-name="Path 295" d="M1326.341,1263.674s-.361,3.13-.634,4.245a.367.367,0,0,0,.2.415,2.741,2.741,0,0,0,1.147.287.37.37,0,0,0,.363-.26,24.065,24.065,0,0,1,1.149-3.1" transform="translate(-1120.621 -1068.193)" fill="#22256f"/>
        <path id="Path_296" data-name="Path 296" d="M1374.8,1086.792c1.392.282,3.215,1.1,2.995,2.812a19.5,19.5,0,0,1-.34,3.18,23.765,23.765,0,0,1-.6,2.483,30.993,30.993,0,0,0,.766-5.031,8.724,8.724,0,0,0,.018-1.259c-.247-1.274-1.721-1.846-2.836-2.184" transform="translate(-1162.131 -918.673)" fill="#cc6362"/>
        <path id="Path_297" data-name="Path 297" d="M1213.87,1057c.3-.692,3.639-2.609,7.127-3.331a23.06,23.06,0,0,1,6.865-.2s.116.423,3.075.911c8.2,1.354,11.426,2.512,13.861,3.663a22.535,22.535,0,0,0-2.313-.191c-3.5-.045-8.057-.177-9.424.719a4.394,4.394,0,0,0-1.857,4.149c.241,2.483,1.541,3.214,1.541,3.214s-12.378,1.18-15.608-.834c-3.975-2.485-3.267-8.1-3.267-8.1" transform="translate(-1026.052 -890.358)" fill="#22256f"/>
        <path id="Path_298" data-name="Path 298" d="M1289.421,974.871l-5.677-8.44-.739-2.5-3.95,2.236,1.754,3.422s4.7,6.257,7.48,6.552,1.132-1.269,1.132-1.269" transform="translate(-1081.195 -814.818)" fill="#e5918f"/>
        <path id="Path_299" data-name="Path 299" d="M1289.667,930.775a5.993,5.993,0,0,1-2.575,1.721,4.5,4.5,0,0,1-.553.161c-.4.091-.607-.21-.677-.747-.276-2.122,1.548-7.937,1.548-7.937Z" transform="translate(-1086.924 -781.041)" fill="#467cdb"/>
        <path id="Path_300" data-name="Path 300" d="M1287.249,967.769a4.533,4.533,0,0,1-.553.161c-.4.091-.607-.211-.677-.747l.437-1.482s.421,1.077.792,2.068" transform="translate(-1087.081 -816.314)" fill="#316db5"/>
        <path id="Path_301" data-name="Path 301" d="M1189.729,906.9a5.846,5.846,0,0,0-3.123,2.229c-.651.888.39,2.258.188,3.939-.619,5.159,2.211,13.651,2.648,15.449.9,3.7.636,4.329,1.208,4.687.408.255,1.679-.082,2.885-.663,2.447-1.18,6.043-3.636,11.139-3.24a2.105,2.105,0,0,0-.081-.818c-.437-2.241-2.365-7.758-2.141-10.843.082-1.127.246-2.856.353-4.282.119-1.593,1.036-2.805.627-4.011a4.842,4.842,0,0,0-3.077-2.677c-2.176-.692-10.626.23-10.626.23" transform="translate(-1002.863 -766.199)" fill="#467cdb"/>
        <path id="Path_302" data-name="Path 302" d="M1195.561,959.077s-1.726,6.46-2.578,8.292l-2.141-1.522Z" transform="translate(-1006.628 -810.714)" fill="#316db5"/>
        <path id="Path_303" data-name="Path 303" d="M1248.4,1072.488h10.782l-3.159,1.333Z" transform="translate(-1055.278 -906.581)" fill="#218aff"/>
        <path id="Path_304" data-name="Path 304" d="M1245.856,1073.236l7.708,1.134.271-.77-7.867-1.133a.389.389,0,0,0-.111.77" transform="translate(-1052.85 -906.56)" fill="#76beff"/>
        <path id="Path_305" data-name="Path 305" d="M1318.756,992.464l-.574-.335a.449.449,0,0,0-.242-.073h-17.187a.892.892,0,0,0-.859.653l-3.711,13.375a.251.251,0,0,0,.242.318H1314.2a.474.474,0,0,0,.457-.347l3.724-13.422a.465.465,0,0,0,.009-.061Z" transform="translate(-1095.665 -838.592)" fill="#f79826"/>
        <path id="Path_306" data-name="Path 306" d="M1300.583,1008.185h17.774a.474.474,0,0,0,.457-.347l3.638-13.1a.455.455,0,0,0-.438-.577h-17.188a.891.891,0,0,0-.859.653l-3.625,13.048a.251.251,0,0,0,.242.318" transform="translate(-1099.18 -840.375)" fill="#218aff"/>
        <path id="Path_307" data-name="Path 307" d="M1168.213,957.831a.353.353,0,0,1,.01-.06c.172-1.151.416-2.234.489-2.528.01-.05.015-.078.015-.078.564-2.791,1.219-5.727,1.219-5.727l5.091,2.6a65.538,65.538,0,0,1-1.889,6.395s3.424,2.429,5.9,4.1c2.561,1.73,3.579,2.359,3.579,2.359a12.992,12.992,0,0,0-.674,1.538,90.229,90.229,0,0,1-9.923-3.469,25.425,25.425,0,0,1-3.156-1.632c-.029-.019-.447-.268-.476-.286-.184-.095-.287-.363-.331-.735v0a10.7,10.7,0,0,1,.148-2.476" transform="translate(-987.352 -802.567)" fill="#e5918f"/>
        <path id="Path_308" data-name="Path 308" d="M1262.125,1052.918a14.165,14.165,0,0,0-.722-1.574,5.392,5.392,0,0,0-1.828-1.429c-.693-.243-1.39-.558-1.39-.558s-1.064,1.342-.674,1.538c.317.159.917.782,1.455,1.044.136.15.284.312.323.351.077.078.4.937.49,1s.344.123.31-.2c-.025-.239-.129-.8-.183-1.093a1.525,1.525,0,0,1,.291.337,6.389,6.389,0,0,0,.491.934c.123.136.476.253.4-.162-.013-.072-.038-.179-.071-.3a4.69,4.69,0,0,0,.4.631c.123.136.476.253.4-.162-.011-.064-.033-.156-.06-.261a.38.38,0,0,0,.281.068c.133-.058.085-.155.085-.155" transform="translate(-1062.91 -887.029)" fill="#e5918f"/>
        <path id="Path_309" data-name="Path 309" d="M1177.61,932.581a24.135,24.135,0,0,1-6.48-2.372c1.631-4.937,2.577-6.234,2.577-6.234s5.491,2.4,5.653,3.568c.087.64-.8,2.837-1.75,5.038" transform="translate(-989.965 -781.042)" fill="#467cdb"/>
        <path id="Path_310" data-name="Path 310" d="M1217.265,863.949s-.421,1.956-3.232,2.348a10.634,10.634,0,0,1-6.054-1.907,10.819,10.819,0,0,0,2.129-.929,2.961,2.961,0,0,0,.871-1.18,9.14,9.14,0,0,0-.2-6.158l5.283,2.4c-.285.211-.586.462-.586.462v.054c0,.2.012.966.083,1.762.008.074.012.148.021.223a.05.05,0,0,0,0,.025h0l-.388.165a8.885,8.885,0,0,0,.3,1.6,1.51,1.51,0,0,0,.421.763,2.5,2.5,0,0,0,1.354.367" transform="translate(-1021.113 -723.688)" fill="#e5918f"/>
        <path id="Path_311" data-name="Path 311" d="M1237.612,881.17l-.388.165a8.888,8.888,0,0,0,.3,1.6,8.876,8.876,0,0,1-3.479-3.013l3.566,1.222Z" transform="translate(-1043.148 -743.806)" fill="#cc6362"/>
        <path id="Path_312" data-name="Path 312" d="M1278.662,839.187s.062,1.84-.507,2.312l-.351-2.609Z" transform="translate(-1080.137 -709.12)" fill="#18004d"/>
        <path id="Path_313" data-name="Path 313" d="M1221.889,822.292c.971,1.128,5.043,4.285,6.683.69a11.315,11.315,0,0,0,.866-3.421,16.288,16.288,0,0,0-.354-4.426c-.242-1.212-.889-3.516-4.119-3.16-3.213.354-7.339,5.367-3.076,10.317" transform="translate(-1031.33 -686.337)" fill="#e5918f"/>
        <path id="Path_314" data-name="Path 314" d="M1203.62,805.775s-2.425.175-3.111-1.427c-.764-1.784,1.38-3.8,3.026-2.924a3.324,3.324,0,0,1,1.471,3.038" transform="translate(-1014.664 -677.27)" fill="#18004d"/>
        <path id="Path_315" data-name="Path 315" d="M1213.624,815.749s-.5-.439.709-1.974c.376-.476,1.606-1.216,1.936-.966l-.887,1.47Z" transform="translate(-1025.798 -687.03)" fill="#506af8"/>
        <path id="Path_316" data-name="Path 316" d="M1210.147,816.026c.557,2.936,2.187,3.841,2.953,4.1a32.172,32.172,0,0,0,.061-3.227,1.7,1.7,0,0,1,.021-1.118.611.611,0,0,1,.735-.315c5.383-.168,6.286-4.043,6.286-4.043-.247-1.848-2.909-2.83-4.08-3.009-2.767-.431-6.816,3.167-5.976,7.614" transform="translate(-1022.851 -683.326)" fill="#18004d"/>
        <path id="Path_317" data-name="Path 317" d="M1245.119,810.478s1.678,2.306,2.981,2.371c0,0,.417-3.143-1.364-4.418a6.208,6.208,0,0,0-5.184-.829" transform="translate(-1049.492 -682.469)" fill="#18004d"/>
        <path id="Path_318" data-name="Path 318" d="M1226.282,852.649s-.183-1.379-1.46-.946c-.833.283-.412,2.284-.037,2.918a.729.729,0,0,0,1.323-.06" transform="translate(-1034.943 -719.88)" fill="#e5918f"/>
        <path id="Path_319" data-name="Path 319" d="M1244.172,830.18a4.388,4.388,0,0,1-3.725,3.5,7.843,7.843,0,0,1-1.8.109c2.465.11,4.936-.985,5.381-3.626l.14.015" transform="translate(-1047.041 -701.744)" fill="#18004d"/>
        <path id="Path_320" data-name="Path 320" d="M1228.254,857.309a.5.5,0,0,1,.693.18c.361.472.172,1.046-.208.973a.364.364,0,0,1-.2-.512c.1-.19.362-.122.362-.122s-.139-.588-.652-.518" transform="translate(-1038.252 -724.629)" fill="#cc6362"/>
        <path id="Path_321" data-name="Path 321" d="M1229.813,1100.768s-.636-1.307-5.61-2.81c-4.443-1.343-11.032.36-11.68-4.484l-.351,7.294Z" transform="translate(-1024.658 -924.321)" fill="#fff"/>
        <path id="Path_322" data-name="Path 322" d="M2446.261,505.4h-13.3a2.541,2.541,0,0,0-2.541,2.541v5.174a2.542,2.542,0,0,0,2.22,2.521.366.366,0,0,1,.321.364v2.832a.168.168,0,0,0,.3.1l2.231-3.12a.37.37,0,0,1,.3-.155h10.459a2.541,2.541,0,0,0,2.541-2.541v-5.174A2.541,2.541,0,0,0,2446.261,505.4Z" transform="translate(-2054.455 -427.221)" fill="none" stroke="#fff" stroke-width="0.896"/>
        <path id="Path_323" data-name="Path 323" d="M2459.427,533.933a.837.837,0,1,1-.837-.837A.837.837,0,0,1,2459.427,533.933Z" transform="translate(-2077.556 -450.63)" fill="none" stroke="#fff" stroke-width="0.896"/>
        <path id="Path_324" data-name="Path 324" d="M2486.666,533.933a.837.837,0,1,1-.837-.837A.837.837,0,0,1,2486.666,533.933Z" transform="translate(-2100.582 -450.63)" fill="none" stroke="#fff" stroke-width="0.896"/>
        <path id="Path_325" data-name="Path 325" d="M2513.9,533.933a.837.837,0,1,1-.837-.837A.837.837,0,0,1,2513.9,533.933Z" transform="translate(-2123.607 -450.63)" fill="none" stroke="#fff" stroke-width="0.896"/>
        <path id="Path_326" data-name="Path 326" d="M2261.437,1294.678h10.684a5.051,5.051,0,0,0-.4-4.385s-.885.71-3.538.23a11.783,11.783,0,0,1-1.872,1.307c-.769.372-5.17,1.236-4.874,2.849" transform="translate(-1911.597 -1090.694)" fill="#525bad"/>
        <path id="Path_327" data-name="Path 327" d="M2415.4,1287.779a5.585,5.585,0,0,1-3.56.281,4.628,4.628,0,0,0-.476,1.027c-.22.6-1.54,1.8-1.792,3.1a.314.314,0,0,0,.31.371h6.369a.31.31,0,0,0,.306-.247,5.75,5.75,0,0,0-1.157-4.527" transform="translate(-2036.822 -1088.569)" fill="#525bad"/>
        <path id="Path_328" data-name="Path 328" d="M2311.678,892.223c0-.011,0-.018,0-.018l0,.018" transform="translate(-1954.078 -754.187)" fill="#29394a"/>
        <path id="Path_329" data-name="Path 329" d="M2315.6,951.243a9.33,9.33,0,0,1-4.594.052s-3.407-20.7-8.306-43.112c-.908,3.372-2.489,8.193-3.74,11.944,0,.025-.4,1.164-.4,1.164-.219,1.391.363,11.226-.384,16.942-.479,3.677-1.285,13.438-1.285,13.438a23.451,23.451,0,0,1-4.368-.213s-.579-11.673-.988-16.5-.735-9.1-.825-11.185c-.021-.313.008-1.754.041-2.274,1.209-19.068,3.079-31.152,3.194-31.887-.008.2.128,1.044,3.261.867,4.5-.252,11.325-1.379,11.325-1.379,4.527-.425,5.956,12.237,5.613,17.545a109.665,109.665,0,0,0,.186,14.235c2.394,13.042,1.273,30.361,1.273,30.361" transform="translate(-1936.347 -751.555)" fill="#2d3a70"/>
        <path id="Path_330" data-name="Path 330" d="M2277.148,755.98s-1.571,6.167-.539,7.813,5.047-.542,5.047-.542l-.312-6.274Z" transform="translate(-1924.137 -639.035)" fill="#e5918f"/>
        <path id="Path_331" data-name="Path 331" d="M2284.77,703.3a22.568,22.568,0,0,1-4.428-.987c2.035-8.783,3.785-10.137,3.785-10.137s1.036,7.516.644,11.123" transform="translate(-1927.589 -585.103)" fill="#fff"/>
        <path id="Path_332" data-name="Path 332" d="M2344.11,988.377c1.252-3.755,2.832-8.573,3.737-11.946l-1.868-6.6s-.147,12.841-1.869,18.547" transform="translate(-1981.493 -819.804)" fill="#1f2b38"/>
        <path id="Path_333" data-name="Path 333" d="M2300.966,713.947c.124,1.359,4.569,1.93,7.468,1.93,3.262,0,8.8-1.414,10.428-2.456.406-.26-.345-3.524-.383-7.445a78.006,78.006,0,0,1,.8-12.21c1.111-3.274,2.138-6.081,1.7-8.7a11.791,11.791,0,0,0-1.608-2.164,9.039,9.039,0,0,0-3.446-2.41.1.1,0,0,1-.029-.013,33.4,33.4,0,0,0-6.821-1.115c-4.833-.146-7.163.556-8.871,1.967-1.437,1.186-.774,5.991.07,11.588.286,1.89.806,9.419.914,14.961.059,3.032-.269,5.472-.215,6.063" transform="translate(-1943.662 -574.258)" fill="#fff"/>
        <path id="Path_334" data-name="Path 334" d="M2352.212,641.506a7.879,7.879,0,0,1-.225-1.88,36.985,36.985,0,0,1-.277-6.265l-3.358,2.823-1.583,1.332c-.171.794-.451,1.808-.685,2.631a2.19,2.19,0,0,0,.063,1.474Z" transform="translate(-1983.081 -535.384)" fill="#e5918f"/>
        <path id="Path_335" data-name="Path 335" d="M2350.94,651.617a8.028,8.028,0,0,1-4.346,3.959c.237-.822.514-1.835.687-2.629l1.583-1.333Z" transform="translate(-1983.593 -550.814)" fill="#cc6362"/>
        <path id="Path_336" data-name="Path 336" d="M2324.029,584.238s-.675,7.077,1.637,8.365c1.269.707,3.949.435,5.687-1.187a6.679,6.679,0,0,0,1.573-2.67c.58-1.591,1.468-4.545.9-6.435-.745-2.5-7.946-4.62-9.572.163a12.383,12.383,0,0,0-.229,1.763" transform="translate(-1964.441 -489.954)" fill="#e5918f"/>
        <path id="Path_337" data-name="Path 337" d="M2318.128,568.321a1.951,1.951,0,0,0,.778,3.131,6.47,6.47,0,0,0,1.819.341,13.406,13.406,0,0,0,4.005-.415,9.74,9.74,0,0,0,.4,3.069c.36.613,2.325.427,2.352.728.134,1.5.162,2.682.257,4.51l.308-.151c.052-.615,1.5-3.972,1.706-5.755.023-.125.512-3.111-.08-4.6-.6-1.518-1.719-1.169-1.719-1.169a4.521,4.521,0,0,0-3.456-1.795,6.99,6.99,0,0,0-6.369,2.1" transform="translate(-1959.11 -478.563)" fill="#192c51"/>
        <path id="Path_338" data-name="Path 338" d="M2369.2,618.261c1.611.879,2.7-3.23,1.115-3.632-1.2-.3-1.483,1.395-1.483,1.395s-.552,1.735.368,2.237" transform="translate(-2002.252 -519.519)" fill="#e5918f"/>
        <path id="Path_339" data-name="Path 339" d="M2377.305,753.891c.368-1.02.873-2.189,1.392-3.316.379-.816.767-1.613,1.116-2.311.721-1.445,7.679.706,6.613,2.758-.528,1.024-2.9,5.447-2.9,5.447s-3.486,5.879-6.836,5.5c-2.277-.255.21-6.948.615-8.082" transform="translate(-2008.232 -632.114)" fill="#e5918f"/>
        <path id="Path_340" data-name="Path 340" d="M2396.07,695.129a22.374,22.374,0,0,1-1.3,5.1c-.487,1.259-1.21,2.811-1.7,3.793-2.373-.188-6.483-2.379-7.771-3.187.722-1.667,4.9-9.856,4.9-9.856l-1.634-4.214a16.25,16.25,0,0,1,3.025,1.3c.017.008.025.017.042.025q.192.112.371.235a8.541,8.541,0,0,1,4.061,6.806" transform="translate(-2016.313 -580.526)" fill="#fff"/>
        <path id="Path_341" data-name="Path 341" d="M2357.776,832.049c.08-.031.155-.063.229-.095a.915.915,0,0,1-.119.048.747.747,0,0,0-.11.047" transform="translate(-1993.045 -703.256)" fill="#e5918f"/>
        <path id="Path_342" data-name="Path 342" d="M2335.329,702.353s.516,18.985.516,21.309c0,1.726-2.151,5.312-2.566,5.691s-1.943-4.108-1.98-5.723c-.095-4.216,3.107-21.331,3.107-21.331Z" transform="translate(-1970.662 -593.659)" fill="#2d3a70"/>
        <path id="Path_343" data-name="Path 343" d="M2351.318,688.8l-.62.288-.82-.1-.277-.539,1.1-1.9Z" transform="translate(-1986.135 -580.342)" fill="#2d3a70"/>
        <path id="Path_344" data-name="Path 344" d="M2361.988,673.512a3.6,3.6,0,0,0-.423-.958,9.152,9.152,0,0,0-.581-.8s-.483,1.521-4.294,2.289l.62,2.25s3.192-.41,4.679-2.778" transform="translate(-1992.127 -567.835)" fill="#e3e5ed"/>
        <path id="Path_345" data-name="Path 345" d="M2344.284,674.416s-.1.436.5,1.135a8.089,8.089,0,0,0,.943.742l-1.1,1.9a4.306,4.306,0,0,1-.911-2.967,1.82,1.82,0,0,1,.232-.391c.073-.1.337-.417.337-.417" transform="translate(-1981.159 -570.088)" fill="#e3e5ed"/>
        <g id="Group_99" data-name="Group 99" transform="translate(367.236 95.789)" opacity="0.5">
          <g id="Group_98" data-name="Group 98">
            <g id="Group_97" data-name="Group 97" clip-path="url(#clip-path-22)">
              <path id="Path_346" data-name="Path 346" d="M2374.789,619.219a1.786,1.786,0,0,0-.683,1.814c.011.1.026.2.033.3-.284-.727-.192-1.817.65-2.112" transform="translate(-2373.99 -619.219)" fill="#cc6362"/>
              <path id="Path_347" data-name="Path 347" d="M2374.925,624.508a.872.872,0,0,0-.857.527l-.1-.052a.931.931,0,0,1,.957-.476" transform="translate(-2373.969 -623.679)" fill="#cc6362"/>
            </g>
          </g>
        </g>
        <path id="Path_348" data-name="Path 348" d="M2307.789,902.719s.508.125,1.4.277c.182.03.384.065.6.1a40.757,40.757,0,0,0,7.542.432c.2-.008.4-.019.6-.027a30.551,30.551,0,0,0,8.822-1.73,5.509,5.509,0,0,0-.77-2.166,30.347,30.347,0,0,1-8.173,1.495c-.2.008-.4.019-.607.023a31.477,31.477,0,0,1-7.042-.524c-.2-.034-.4-.076-.6-.118-.486-.1-.979-.216-1.476-.349a9.36,9.36,0,0,0-.3,2.588" transform="translate(-1950.783 -760.442)" fill="#1f2b38"/>
        <path id="Path_349" data-name="Path 349" d="M2316.865,908.134h.6c0-.083,0-.167,0-.25a9.115,9.115,0,0,1,.372-2.5c-.2-.034-.395-.076-.6-.118a9.924,9.924,0,0,0-.376,2.516c0,.114,0,.228,0,.349" transform="translate(-1958.463 -765.23)" fill="#2d3a70"/>
        <path id="Path_350" data-name="Path 350" d="M2368.818,911.7c0,.061-.011.125-.015.19l.6.049c.008-.091.011-.178.019-.266a10.29,10.29,0,0,0-.121-2.4c-.2.008-.4.019-.607.023a9.89,9.89,0,0,1,.129,2.405" transform="translate(-2002.27 -768.61)" fill="#2d3a70"/>
        <path id="Path_351" data-name="Path 351" d="M2403,904.805a9.854,9.854,0,0,1,.516,2.3v.015c.008.057.011.114.019.174l.6-.053c-.008-.087-.019-.171-.027-.254v-.011a10.183,10.183,0,0,0-.512-2.3q-.285.063-.592.125" transform="translate(-2031.276 -764.732)" fill="#2d3a70"/>
        <path id="Path_352" data-name="Path 352" d="M2338.151,908.381c-.007.447-.018,1.379,0,1.982a.261.261,0,0,1-.267.269c-.535-.01-1.721-.04-2.4-.13a.26.26,0,0,1-.227-.252,17.2,17.2,0,0,1,.045-2.078.261.261,0,0,1,.289-.232c.434.047,1.369.139,2.308.176a.262.262,0,0,1,.255.265" transform="translate(-1973.998 -767.486)" fill="#2b435d"/>
        <path id="Path_353" data-name="Path 353" d="M2314.385,776.646s-9.862-3.84-13.784-4.661c.04.362.168,1.058.253,1.4a15.05,15.05,0,0,1,3.5,2.671c1.857,1.788,6.929,5.793,8.648,6.329s2.8-4.39,1.387-5.741" transform="translate(-1944.715 -652.564)" fill="#e5918f"/>
        <path id="Path_354" data-name="Path 354" d="M2278.527,784.654s.507,1.144,5.389,1.42a33.423,33.423,0,0,0,8.938-.734s-9.557-4.646-11.036-4.68-3.291,4-3.291,4" transform="translate(-1926.056 -659.896)" fill="#e5918f"/>
        <path id="Path_355" data-name="Path 355" d="M2340.4,782a20.89,20.89,0,0,0,3.629.144c1.135-.155,2.527-.511,3.051-.511a6.768,6.768,0,0,1,4.177,2.343c.426.574-1.724,2.567-4.362.525Z" transform="translate(-1978.356 -660.722)" fill="#e5918f"/>
        <path id="Path_356" data-name="Path 356" d="M2302.237,781.051a22.2,22.2,0,0,1,4.46,3.5,55.833,55.833,0,0,0,6.417,4.855,7.622,7.622,0,0,0,1.266.64,7.638,7.638,0,0,1-1.281-.615,49.307,49.307,0,0,1-6.444-4.831,23.8,23.8,0,0,0-4.418-3.553" transform="translate(-1946.098 -660.228)" fill="#cc6362"/>
        <path id="Path_357" data-name="Path 357" d="M2329.828,780.436c2.242.784,4.689,1.7,6.9,2.577-2.242-.784-4.689-1.7-6.9-2.577" transform="translate(-1969.421 -659.708)" fill="#cc6362"/>
        <path id="Path_358" data-name="Path 358" d="M2382.4,800.173c1.133.95,3.3,1.326,4.292,0-.918,1.424-3.218,1.052-4.292,0" transform="translate(-2013.857 -676.392)" fill="#cc6362"/>
        <line id="Line_33" data-name="Line 33" x2="268.363" transform="translate(133.39 203.939)" fill="none" stroke="#fff" stroke-linecap="round" stroke-width="1.114"/>
      </g>
    </g>
  </g>
</svg>
