<svg id="Group_7006" data-name="Group 7006" xmlns="http://www.w3.org/2000/svg" xmlns:xlink="http://www.w3.org/1999/xlink" width="479.638" height="206.354" viewBox="0 0 479.638 206.354">
  <defs>
    <clipPath id="clip-path">
      <rect id="Rectangle_19" data-name="Rectangle 19" width="479.638" height="206.354" fill="none"/>
    </clipPath>
    <clipPath id="clip-path-2">
      <path id="Path_25" data-name="Path 25" d="M583.7,151.058c-77.456,26.649-4.5,124.086-4.5,124.086s268.1.834,304.594.555,64.9-58.582,26.269-75.172c-24.626-10.576-48.671-25.975-42.642-38.855,5.518-11.788,4.515-44.531-39.13-55.881-21.791-5.667-44.024-3.982-65.034-2.3-24.811,1.99-47.918,3.981-66.579-6.137-17.212-9.332-31.271-13.1-42.908-13.1-46.956,0-54.435,61.425-70.07,66.8" transform="translate(-548.07 -84.254)" fill="none"/>
    </clipPath>
    <clipPath id="clip-path-3">
      <rect id="Rectangle_20" data-name="Rectangle 20" width="161.212" height="99.652" fill="none"/>
    </clipPath>
    <clipPath id="clip-path-4">
      <rect id="Rectangle_21" data-name="Rectangle 21" width="312.162" height="164.462" fill="none"/>
    </clipPath>
  </defs>
  <g id="Group_104" data-name="Group 104" transform="translate(0 0)">
    <g id="Group_26" data-name="Group 26">
      <g id="Group_25" data-name="Group 25" clip-path="url(#clip-path)">
        <path id="Path_22" data-name="Path 22" d="M583.7,151.059c19.51-6.713,26.316-100.689,112.979-53.7,34.464,18.686,84.09-3.927,131.613,8.433,43.645,11.351,44.648,44.094,39.13,55.881-6.03,12.88,18.016,28.279,42.642,38.855,38.628,16.59,10.223,74.893-26.269,75.172s-304.594-.555-304.594-.555-72.957-97.437,4.5-124.086" transform="translate(-463.325 -71.226)" fill="#ebf3fa"/>
      </g>
    </g>
    <g id="Group_34" data-name="Group 34" transform="translate(84.744 13.028)">
      <g id="Group_33" data-name="Group 33" clip-path="url(#clip-path-2)">
        <g id="Group_29" data-name="Group 29" transform="translate(233.682 93.58)" opacity="0.6">
          <g id="Group_28" data-name="Group 28" transform="translate(0)">
            <g id="Group_27" data-name="Group 27" clip-path="url(#clip-path-3)">
              <path id="Path_23" data-name="Path 23" d="M2208.193,721.625v-7.739h-2.9V700.579h-15.56v13.307h-14.548V692.2h-16.053v14.076h-3.661v-16.8h-16.054v31.508h-20.3v18.373h-7.586v-8.18H2094.1v4.838h-10V714.355h-12.358v16.031h-12.358v58.739h161.212v-67.5Z" transform="translate(-2059.379 -689.474)" fill="#dcebf9"/>
            </g>
          </g>
        </g>
        <g id="Group_32" data-name="Group 32" transform="translate(-84.744 28.77)" opacity="0.6">
          <g id="Group_31" data-name="Group 31" transform="translate(0 0)">
            <g id="Group_30" data-name="Group 30" clip-path="url(#clip-path-4)">
              <path id="Path_24" data-name="Path 24" d="M299.332,310.607h-3V288.646h-16.1v21.962H265.172V274.822H248.56v23.231h-3.788V270.318H228.159v52h-21.01v30.323H199.3v-13.5H181.267v7.984H170.915V311.382H158.126v26.457H145.338v2.982h-9.667V330.087h-2.646V311.632H118.838v18.456H105.575V300.014H90.939v19.522H87.6V296.229H72.966v43.7H54.456V365.41H47.54V354.066H31.654v6.71H22.534V330.738H11.267v22.233H0v81.466H145.338v.343H312.162V323.38h-12.83Z" transform="translate(0 -270.318)" fill="#dcebf9"/>
            </g>
          </g>
        </g>
        <rect id="Rectangle_22" data-name="Rectangle 22" width="8.661" height="206.127" transform="translate(227.419 -13.028)" fill="#deedff"/>
        <rect id="Rectangle_23" data-name="Rectangle 23" width="8.661" height="206.127" transform="translate(59.399 -13.028)" fill="#deedff"/>
      </g>
    </g>
  </g>
</svg>
