<svg id="Group_41" data-name="Group 41" xmlns="http://www.w3.org/2000/svg" xmlns:xlink="http://www.w3.org/1999/xlink" width="479.638" height="206.354" viewBox="0 0 479.638 206.354">
  <defs>
    <clipPath id="clip-path">
      <rect id="Rectangle_19" data-name="Rectangle 19" width="479.638" height="206.354" fill="none"/>
    </clipPath>
    <clipPath id="clip-path-2">
      <path id="Path_25" data-name="Path 25" d="M583.7,151.058c-77.456,26.649-4.5,124.086-4.5,124.086s268.1.834,304.594.555,64.9-58.582,26.269-75.172c-24.626-10.576-48.671-25.975-42.642-38.855,5.518-11.788,4.515-44.531-39.13-55.881-21.791-5.667-44.024-3.982-65.034-2.3-24.811,1.99-47.918,3.981-66.579-6.137-17.212-9.332-31.271-13.1-42.908-13.1-46.956,0-54.435,61.425-70.07,66.8" transform="translate(-548.07 -84.254)" fill="none"/>
    </clipPath>
    <clipPath id="clip-path-3">
      <rect id="Rectangle_20" data-name="Rectangle 20" width="161.212" height="99.652" fill="none"/>
    </clipPath>
    <clipPath id="clip-path-4">
      <rect id="Rectangle_21" data-name="Rectangle 21" width="312.162" height="164.462" fill="none"/>
    </clipPath>
    <clipPath id="clip-path-5">
      <rect id="Rectangle_26" data-name="Rectangle 26" width="158.972" height="22.058" fill="none"/>
    </clipPath>
  </defs>
  <g id="Group_104" data-name="Group 104" transform="translate(0 0)">
    <g id="Group_26" data-name="Group 26">
      <g id="Group_25" data-name="Group 25" clip-path="url(#clip-path)">
        <path id="Path_22" data-name="Path 22" d="M583.7,151.059c19.51-6.713,26.316-100.689,112.979-53.7,34.464,18.686,84.09-3.927,131.613,8.433,43.645,11.351,44.648,44.094,39.13,55.881-6.03,12.88,18.016,28.279,42.642,38.855,38.628,16.59,10.223,74.893-26.269,75.172s-304.594-.555-304.594-.555-72.957-97.437,4.5-124.086" transform="translate(-463.325 -71.226)" fill="#ebf3fa"/>
      </g>
    </g>
    <g id="Group_34" data-name="Group 34" transform="translate(84.744 13.028)">
      <g id="Group_33" data-name="Group 33" clip-path="url(#clip-path-2)">
        <g id="Group_29" data-name="Group 29" transform="translate(233.682 93.58)" opacity="0.6">
          <g id="Group_28" data-name="Group 28" transform="translate(0)">
            <g id="Group_27" data-name="Group 27" clip-path="url(#clip-path-3)">
              <path id="Path_23" data-name="Path 23" d="M2208.193,721.625v-7.739h-2.9V700.579h-15.56v13.307h-14.548V692.2h-16.053v14.076h-3.661v-16.8h-16.054v31.508h-20.3v18.373h-7.586v-8.18H2094.1v4.838h-10V714.355h-12.358v16.031h-12.358v58.739h161.212v-67.5Z" transform="translate(-2059.379 -689.474)" fill="#dcebf9"/>
            </g>
          </g>
        </g>
        <g id="Group_32" data-name="Group 32" transform="translate(-84.744 28.77)" opacity="0.6">
          <g id="Group_31" data-name="Group 31" transform="translate(0 0)">
            <g id="Group_30" data-name="Group 30" clip-path="url(#clip-path-4)">
              <path id="Path_24" data-name="Path 24" d="M299.332,310.607h-3V288.646h-16.1v21.962H265.172V274.822H248.56v23.231h-3.788V270.318H228.159v52h-21.01v30.323H199.3v-13.5H181.267v7.984H170.915V311.382H158.126v26.457H145.338v2.982h-9.667V330.087h-2.646V311.632H118.838v18.456H105.575V300.014H90.939v19.522H87.6V296.229H72.966v43.7H54.456V365.41H47.54V354.066H31.654v6.71H22.534V330.738H11.267v22.233H0v81.466H145.338v.343H312.162V323.38h-12.83Z" transform="translate(0 -270.318)" fill="#dcebf9"/>
            </g>
          </g>
        </g>
        <rect id="Rectangle_22" data-name="Rectangle 22" width="8.661" height="206.127" transform="translate(227.419 -13.028)" fill="#deedff"/>
        <rect id="Rectangle_23" data-name="Rectangle 23" width="8.661" height="206.127" transform="translate(59.399 -13.028)" fill="#deedff"/>
      </g>
    </g>
    <g id="Group_39" data-name="Group 39" transform="translate(89.253 55.963)">
      <g id="Group_105" data-name="Group 105">
        <path id="Path_26" data-name="Path 26" d="M2675.611,1190.464h-25.286l-2.441-17.453h30.169Z" transform="translate(-2327.715 -1049.158)" fill="#b74b42"/>
        <path id="Path_27" data-name="Path 27" d="M2673.96,1167.751h-30.194a.657.657,0,0,1-.657-.657v-1.308a.657.657,0,0,1,.657-.657h30.194a.657.657,0,0,1,.657.657v1.308a.657.657,0,0,1-.657.657" transform="translate(-2323.679 -1042.495)" fill="#a53d38"/>
        <path id="Path_28" data-name="Path 28" d="M2739.992,1204.364h0a.915.915,0,0,1-.915-.916v-11.431a.915.915,0,1,1,1.831,0v11.431a.915.915,0,0,1-.916.916" transform="translate(-2404.809 -1064.452)" fill="#a53d38"/>
        <path id="Path_29" data-name="Path 29" d="M2687.469,1204.6h0a.915.915,0,0,1-1.032-.781l-1.568-11.323a.916.916,0,0,1,1.814-.251l1.568,11.323a.915.915,0,0,1-.781,1.032" transform="translate(-2358.974 -1064.747)" fill="#a53d38"/>
        <path id="Path_30" data-name="Path 30" d="M2783.94,1204.6h0a.915.915,0,0,0,1.032-.781l1.568-11.323a.915.915,0,1,0-1.813-.251l-1.568,11.323a.916.916,0,0,0,.781,1.032" transform="translate(-2442.066 -1064.747)" fill="#a53d38"/>
        <path id="Path_31" data-name="Path 31" d="M2676.663,1213.355h-25.286l-2.441-17.453H2679.1Z" transform="translate(-2328.605 -1068.51)" fill="#b74b42"/>
        <path id="Path_32" data-name="Path 32" d="M2675.013,1190.643h-30.194a.657.657,0,0,1-.657-.657v-1.308a.657.657,0,0,1,.657-.657h30.194a.657.657,0,0,1,.657.657v1.308a.657.657,0,0,1-.657.657" transform="translate(-2324.57 -1061.847)" fill="#a53d38"/>
        <path id="Path_33" data-name="Path 33" d="M2741.044,1227.256h0a.916.916,0,0,1-.916-.916V1214.91a.915.915,0,1,1,1.831,0v11.431a.915.915,0,0,1-.915.916" transform="translate(-2405.698 -1083.804)" fill="#a53d38"/>
        <path id="Path_34" data-name="Path 34" d="M2688.522,1227.488h0a.915.915,0,0,1-1.032-.781l-1.568-11.323a.916.916,0,0,1,1.814-.251l1.568,11.323a.916.916,0,0,1-.781,1.032" transform="translate(-2359.865 -1084.098)" fill="#a53d38"/>
        <path id="Path_35" data-name="Path 35" d="M2784.992,1227.488h0a.916.916,0,0,0,1.033-.781l1.568-11.323a.915.915,0,1,0-1.813-.251l-1.568,11.323a.916.916,0,0,0,.781,1.032" transform="translate(-2442.956 -1084.098)" fill="#a53d38"/>
        <path id="Path_36" data-name="Path 36" d="M2625.182,1298.9h0a1.106,1.106,0,1,1,1.105-1.106,1.109,1.109,0,0,1-1.105,1.106" transform="translate(-2307.589 -1153.714)" fill="#163560"/>
        <path id="Path_37" data-name="Path 37" d="M2854.843,1299.331h0a1.106,1.106,0,1,1,1.106-1.106,1.109,1.109,0,0,1-1.106,1.106" transform="translate(-2501.74 -1154.077)" fill="#163560"/>
        <path id="Path_38" data-name="Path 38" d="M2676.663,1233.881h-25.286l-2.441-17.453H2679.1Z" transform="translate(-2328.605 -1085.084)" fill="#b74b42"/>
        <path id="Path_39" data-name="Path 39" d="M2675.013,1211.169h-30.194a.657.657,0,0,1-.657-.657V1209.2a.657.657,0,0,1,.657-.657h30.194a.657.657,0,0,1,.657.657v1.308a.657.657,0,0,1-.657.657" transform="translate(-2324.57 -1079.199)" fill="#a53d38"/>
        <path id="Path_40" data-name="Path 40" d="M2741.044,1247.782h0a.916.916,0,0,1-.916-.916v-11.431a.915.915,0,1,1,1.831,0v11.431a.915.915,0,0,1-.915.916" transform="translate(-2405.698 -1101.156)" fill="#a53d38"/>
        <path id="Path_41" data-name="Path 41" d="M2688.522,1248.014h0a.915.915,0,0,1-1.032-.781l-1.568-11.323a.916.916,0,0,1,1.814-.251l1.568,11.323a.916.916,0,0,1-.781,1.032" transform="translate(-2359.865 -1101.451)" fill="#a53d38"/>
        <path id="Path_42" data-name="Path 42" d="M2784.992,1248.014h0a.916.916,0,0,0,1.033-.781l1.568-11.323a.915.915,0,1,0-1.813-.251l-1.568,11.323a.916.916,0,0,0,.781,1.032" transform="translate(-2442.956 -1101.451)" fill="#a53d38"/>
        <path id="Path_43" data-name="Path 43" d="M2785.07,1228.037h0a.559.559,0,0,1-.791,0l-13.15-13.15a.559.559,0,0,1,.791-.791l13.149,13.15a.559.559,0,0,1,0,.791" transform="translate(-2431.767 -1083.752)" fill="#365da4"/>
        <path id="Path_44" data-name="Path 44" d="M2629.025,1228.037h0a.559.559,0,0,0,.791,0l13.15-13.15a.559.559,0,1,0-.791-.791l-13.149,13.15a.559.559,0,0,0,0,.791" transform="translate(-2311.634 -1083.752)" fill="#365da4"/>
        <path id="Path_45" data-name="Path 45" d="M1602.487,630.753s2.426-1.05,1.462-3.029-1.194-.888-.618-3.414,1.179-4.195-.282-3.788-2.966,4.354-3.292,2.319,1.872-3.593,0-4.136-3.011-.95-3.011-2.944-1.7-.629-.57,2.563.031,1.478-.854,2.523.366,2.238.977,2.6.773.249.285,1.548-1.79,1.747-.285,2.622,3.214.311,2.319,1.631,3.052,2.44,1.994,4.464,1.875-2.963,1.875-2.963" transform="translate(-1437.644 -577.283)" fill="#a8d29f"/>
        <path id="Path_46" data-name="Path 46" d="M1596.46,642.739s-4.338-1.525-3.28-2.362,2.279-1.45.529-2.67-3.435-5.817-1.84-4.922,2.429-.042.354-1.588.428-3.986,1-2.969.692,5.127,1.79,4.15.692-3.621,2.238-1.261-.488,3.707.733,5.007,4.576.22,3.174,2.561-2.93,4.476-2.319,5.819-2.376-1.765-2.376-1.765" transform="translate(-1434.444 -588.407)" fill="#66a357"/>
        <path id="Path_47" data-name="Path 47" d="M1649.225,651.815c-5.059,3.288-9.977,4.7-10.984,3.148s2.277-5.472,7.336-8.76,9.977-4.7,10.984-3.148-2.277,5.472-7.336,8.76" transform="translate(-1474.032 -600.612)" fill="#f1a34f"/>
        <path id="Path_48" data-name="Path 48" d="M1662.858,682.142c-.869,1.707-1.832,2.96-2.15,2.8s.128-1.677,1-3.385,1.832-2.96,2.15-2.8-.128,1.677-1,3.385" transform="translate(-1493.093 -631.315)" fill="#e58638"/>
        <path id="Path_49" data-name="Path 49" d="M1690.493,667.437c-.869,1.707-1.831,2.96-2.15,2.8s.128-1.677,1-3.385,1.832-2.96,2.15-2.8-.128,1.677-1,3.385" transform="translate(-1516.455 -618.884)" fill="#e58638"/>
        <path id="Path_50" data-name="Path 50" d="M1716.921,654.5c-.869,1.707-1.832,2.96-2.15,2.8s.128-1.677,1-3.385,1.831-2.96,2.15-2.8-.128,1.677-1,3.385" transform="translate(-1538.796 -607.945)" fill="#e58638"/>
        <path id="Path_51" data-name="Path 51" d="M1711.988,618.487a1.627,1.627,0,0,1-.022-1.481l3.248-6.779a.722.722,0,0,0-.339-.964l-.715-.343a.722.722,0,0,0-.964.339l-3.248,6.779a1.628,1.628,0,0,1-1.168.911,3.046,3.046,0,0,0-2.219,1.686L1704,623.975l-1.993,4.16-1.084,2.262a.834.834,0,0,0,.392,1.113l4,1.916a.834.834,0,0,0,1.113-.392l1.084-2.262,1.993-4.16,2.558-5.339a3.046,3.046,0,0,0-.077-2.786" transform="translate(-1527.109 -572.228)" fill="#365da4"/>
        <path id="Path_52" data-name="Path 52" d="M1773.64,610.474l-.057-.027.105-.22a.722.722,0,0,0-.339-.963l-.715-.343a.723.723,0,0,0-.964.339l-.105.22-.076-.036a.074.074,0,0,0-.1.035l-.141.293a.074.074,0,0,0,.035.1l.075.036-1.347,2.812,2.018.967,1.347-2.812.057.027a.074.074,0,0,0,.1-.035l.141-.294a.074.074,0,0,0-.034-.1" transform="translate(-1585.583 -572.228)" fill="#163560"/>
        <path id="Path_53" data-name="Path 53" d="M1713.363,688.541l1.82-3.8-5.5-2.637-1.82,3.8-1.993,4.16-.46.961,5.5,2.637.46-.961Z" transform="translate(-1530.965 -634.157)" fill="#163560"/>
        <path id="Path_54" data-name="Path 54" d="M1555.621,778.94h0a1.106,1.106,0,1,1,1.106-1.106,1.109,1.109,0,0,1-1.106,1.106" transform="translate(-1403.407 -714.15)" fill="#163560"/>
        <path id="Path_55" data-name="Path 55" d="M1785.282,779.369h0a1.106,1.106,0,1,1,1.106-1.106,1.109,1.109,0,0,1-1.106,1.106" transform="translate(-1597.557 -714.513)" fill="#163560"/>
        <path id="Path_56" data-name="Path 56" d="M2155.657,963.914H2125.51a2.363,2.363,0,0,0-2.363,2.363h0a2.363,2.363,0,0,0,2.363,2.363h13.532v15.006h3.083V968.641h13.532a2.363,2.363,0,0,0,2.363-2.363h0a2.363,2.363,0,0,0-2.363-2.363" transform="translate(-1884.115 -872.392)" fill="#163560"/>
        <path id="Path_57" data-name="Path 57" d="M1954.933,711.7s-.993-2.434-2.086-2.533-4.57-.646-4.818-.149a3.437,3.437,0,0,0,.745,2.931c.745.646,5.365,1.689,5.365,1.689Z" transform="translate(-1735.995 -656.735)" fill="#ffb27d"/>
        <path id="Path_58" data-name="Path 58" d="M2131.142,518.448s.315.732,2.7.692.412-2.279.412-2.279l-2.479,1.027Z" transform="translate(-1890.874 -494.463)" fill="#a53d38"/>
        <path id="Path_59" data-name="Path 59" d="M2150.98,505.182a14.676,14.676,0,0,1-1.1-5.059,15.523,15.523,0,0,0,1.807,5.592c5.37,3.526,15.663,15.3,15.459,17.529,0,0,3.626-6.149,3.688-6.186,0,0,4.563-7.7-3.364-12.57-4.029-2.476-4.018-6.786-4.028-9.552-.031-8-4.272-12.939-6.855-11.2a5.254,5.254,0,0,0-1.875-.489,1.583,1.583,0,0,1,.715.339,6.262,6.262,0,0,0-3.389.648c-2.958,1.681-5.606,16.764-1.058,20.949" transform="translate(-1905.577 -466.038)" fill="#163560"/>
        <path id="Path_60" data-name="Path 60" d="M2170.985,586.278c-.027.012,2.593,1.372,4.563.833,1.854-.505,3.064-2.909,3.039-2.914-.785-.156-1.011-1.235-.995-5.87l-.355.07-5.967,1.182s.136,1.878.14,3.647c0,1.485-.086,2.894-.426,3.053" transform="translate(-1924.556 -546.425)" fill="#ffb27d"/>
        <path id="Path_61" data-name="Path 61" d="M2172.837,579.96s.136,1.878.14,3.647c3.339-.094,5.1-3.14,5.827-4.828Z" transform="translate(-1926.122 -546.807)" fill="#e8945b"/>
        <path id="Path_62" data-name="Path 62" d="M2158.875,507.549a17.543,17.543,0,0,0,2.169-5.129c.3-1.688-.56-7.944-6.846-7.043a8.541,8.541,0,0,0-3.542,1.339c-1.365.922-3.335,2.912-1.132,8.371l.572,1.844Z" transform="translate(-1905.577 -476.227)" fill="#163560"/>
        <path id="Path_63" data-name="Path 63" d="M2151.241,524.374s7.9.13,7.905-4.791,1.029-8.218-4.015-8.509-6.026,1.585-6.427,3.227.482,9.912,2.537,10.073" transform="translate(-1905.641 -489.546)" fill="#ffb27d"/>
        <path id="Path_64" data-name="Path 64" d="M2155.746,506.031s-5.4-3.689-7.1-1.138c-.517-.444-1.439-.765-2.658.713-1.831,2.22-.2,6.144-.2,6.144.752.088.929-2.492,1.323-3.745a6.269,6.269,0,0,1,1.758-2.328c.689,1.554,2.585,5.272,5.2,5.944,3.32.854,4.759-.036,4.759-.036a9.4,9.4,0,0,1-3.074-5.553" transform="translate(-1902.686 -483.585)" fill="#163560"/>
        <path id="Path_65" data-name="Path 65" d="M2028.988,639.6c.779-3.267-1.871-9.607-4.638-14.856-2.51-4.757-5.116-8.616-5.35-8.478-6.621,3.93-7.219.663-7.219.663s-6.014.8-7.718,3.73c-2.355,4.054-4.92,16.218-7.441,16.039-1.157-.083-12.8-4.459-12.8-4.459s-1.94,1.817-1.568,4.046a121.589,121.589,0,0,0,10.609,6.305c2.571,1.3,4.895,2.208,5.987,1.951,2.214-.521,5.674-5.655,7.542-8.677l.012-.02c2.386,13.5-.858,16.578.784,18,1.734,1.5,4.211-.716,9.66,1.646,3.574,1.551,8.535,3.792,11.874,4.182,1.751.206,3.058-.1,3.484-1.282,1.239-3.437-4.706-12.565-3.22-18.793" transform="translate(-1764.968 -578.498)" fill="#f1a34f"/>
        <path id="Path_66" data-name="Path 66" d="M2160.75,575.776s-.147.625-1.7.529c0,0-1.306-.081-1.266-.768a4.2,4.2,0,0,1,2.968.239" transform="translate(-1913.394 -543.931)" fill="#fff"/>
        <path id="Path_67" data-name="Path 67" d="M2219.916,733.938c-.426,1.183-1.733,1.487-3.484,1.282-2.311-1.007-12.295-4.875-12.183-7.5.166-3.88,1.919-4,.681-8.794-.995-3.846,5.766-11.753,7.237-13.307,2.767,5.249,5.308,6.254,4.529,9.521-1.486,6.229,4.459,15.356,3.22,18.793" transform="translate(-1952.676 -654.039)" fill="#e58638"/>
        <path id="Path_68" data-name="Path 68" d="M2064.656,739.39c-1.869,3.022-5.328,8.156-7.542,8.677-1.092.258-3.416-.651-5.987-1.951a15.543,15.543,0,0,0,5.47.3c1.92-.186,2.477-2.539,5.511-6.069,1.968-2.289,2.451-1.713,2.547-.958" transform="translate(-1823.231 -682.02)" fill="#e58638"/>
        <path id="Path_69" data-name="Path 69" d="M2156.931,478.725s8.057.885,12.238-.305c0,0-.077-6.164-6.119-6.164s-6.118,6.47-6.118,6.47" transform="translate(-1912.675 -456.754)" fill="#b74b42"/>
        <path id="Path_70" data-name="Path 70" d="M2135.26,508.037s-3.977.693-4.119,2.951c0,0,4.283-2.889,7.833.265,2.075,1.882,6.348-2.186,6.348-2.186Z" transform="translate(-1890.873 -487.003)" fill="#b74b42"/>
        <path id="Path_71" data-name="Path 71" d="M2157.6,479.59s2.905-.785,10.062,1.03c0-.009-.9-6.028-4.685-6.227-3.231-.169-4.992,3.219-5.41,5.24Z" transform="translate(-1913.21 -458.557)" fill="#a53d38"/>
        <path id="Path_72" data-name="Path 72" d="M2189.977,470.781c0,.167-.417.3-.931.3s-.931-.135-.931-.3.417-.3.931-.3.931.135.931.3" transform="translate(-1939.037 -455.253)" fill="#a53d38"/>
        <path id="Path_73" data-name="Path 73" d="M2155.2,633.893c-3.2-6.082-.353-16.613-.353-16.613l-1.372-.232c-2.013,1.555-2.91,10.164-2.91,10.164H2142.7c-.492-4.11,1.813-9.511,1.813-9.511l-2.019.485c-3.994,11.32-2.028,28.594-2.028,28.594h10.571a12.182,12.182,0,0,0-.436-2.73c-.673-2.6,2.2-7.063,4.592-10.158" transform="translate(-1898.35 -579.159)" fill="#b74b42"/>
        <path id="Path_74" data-name="Path 74" d="M2217.055,809.34h-11.689c.059,2.327-.991,3.1-1.117,6.063-.112,2.621,9.872,6.489,12.183,7.5,1.751.205,3.058-.1,3.484-1.282.846-2.349-1.661-7.355-2.861-12.277" transform="translate(-1952.676 -741.718)" fill="#a53d38"/>
        <path id="Path_75" data-name="Path 75" d="M2219.882,732.361l0-.014-2.942-2.65a7.391,7.391,0,0,1-4.235-3.708c-2.387,3.095-5.265,7.556-4.592,10.158a12.17,12.17,0,0,1,.436,2.73h11.69a14.259,14.259,0,0,1-.36-6.516" transform="translate(-1955.862 -671.255)" fill="#a53d38"/>
        <path id="Path_76" data-name="Path 76" d="M2168.66,785.164a4.761,4.761,0,0,0-3-1.591c-1.609,0-2.575.92-2.609,1.418a2.816,2.816,0,0,0,1.684,2.377,22.82,22.82,0,0,0,4.7.154Z" transform="translate(-1917.845 -719.935)" fill="#ffb27d"/>
        <path id="Path_77" data-name="Path 77" d="M2198.4,616.29s6.438.4,8.667,3.505c3.137,4.376,8.587,22.242,7.1,26.329l-19.57.016s-.494-2.317.167-3.391,11.394-2.807,11.89-3.3-6.193-9.66-6.193-11.147-2.062-12.01-2.062-12.01" transform="translate(-1944.367 -578.518)" fill="#f1a34f"/>
        <path id="Path_78" data-name="Path 78" d="M2208.379,627.212s.612-8.161,2.91-10.164l1.748.312s-1.758,6.513-1.5,10.5-2.1,3.216-2.1,3.216Z" transform="translate(-1956.168 -579.159)" fill="#b74b42"/>
        <path id="Path_79" data-name="Path 79" d="M2064.228,1102.649a1.121,1.121,0,0,1-.64,1.033l-.006,0a7.448,7.448,0,0,1-3.473.389c-.182-.007-.346-.012-.492-.012h-.2c-1.407.035-1.258.456-3.932.685-3.048.26-4.171-.673-4.351-1.1-.151-.36,1.157-.769,2.618-1.236l.213-.068c.195-.062.39-.126.584-.189,1.74-.578,3.453-1.265,3.88-3.026.453-1.868-.909-7.081-.909-7.081l4.83-.521s.466,5.449.769,7.147a18.753,18.753,0,0,0,.815,2.4q.026.082.048.164a5.343,5.343,0,0,1,.246,1.4" transform="translate(-1823.225 -980.275)" fill="#e49963"/>
        <path id="Path_80" data-name="Path 80" d="M2064.228,1154.87a1.12,1.12,0,0,1-.64,1.033l-.006,0a8.626,8.626,0,0,1-3.47.38c-.182-.005-.346-.006-.494,0h-.2c-1.407.035-1.258.456-3.932.685-3.048.26-4.171-.673-4.351-1.1-.151-.36,1.157-.769,2.618-1.236a9.031,9.031,0,0,0,4.677.4c2.034-.383,4.054-1.395,5.507-1.733q.026.082.048.164a5.343,5.343,0,0,1,.246,1.4" transform="translate(-1823.225 -1032.496)" fill="#c65447"/>
        <path id="Path_81" data-name="Path 81" d="M1861.876,1072.358c-.268,1.341-2.181,1.118-4.317.6s-1.629.1-4.669-.238-3.961-1.47-4.054-1.922c-.083-.4,1.419-.543,3.031-.728.2-.023.406-.048.61-.073,1.819-.228,3.152-1.4,4.8-2.366,1.565-.913,3.9-4.634,3.9-4.634l4.17.33s-2.188,3.323-3.034,4.768a5.037,5.037,0,0,0-.409,2.842,5.361,5.361,0,0,1-.032,1.426" transform="translate(-1652.216 -956.15)" fill="#e49963"/>
        <path id="Path_82" data-name="Path 82" d="M1857.559,1111.627c-2.136-.522-1.629.1-4.669-.238s-3.961-1.47-4.054-1.922c-.083-.4,1.419-.543,3.031-.728l.015.031a8.57,8.57,0,0,0,4.354,1.353c2.063.05,4.248-.541,5.672-.518a5.36,5.36,0,0,1-.032,1.426c-.268,1.342-2.181,1.118-4.317.6" transform="translate(-1652.216 -994.824)" fill="#c65447"/>
        <path id="Path_83" data-name="Path 83" d="M2036.532,914.591l8.986,24.184a8.226,8.226,0,0,0,2.7-.248,11.64,11.64,0,0,0,2.614-1.273s-2.229-23.221-6.316-28.051-7.988,5.387-7.988,5.387" transform="translate(-1810.892 -825.044)" fill="#365da4"/>
        <path id="Path_84" data-name="Path 84" d="M1967.722,848.863s-25.822-8.731-31.581-6.873-23.05,36.259-23.05,36.259a3.338,3.338,0,0,0,1.455.919,13.731,13.731,0,0,0,3.389.348s15.6-13.375,17.462-17.276,2.6-7.617,4.458-7.245,23.964,9.1,28.98,3.9a14.479,14.479,0,0,0,3.7-11.96Z" transform="translate(-1706.539 -769.1)" fill="#466aa5"/>
        <path id="Path_85" data-name="Path 85" d="M2212,692.82l-3.874-.13a.473.473,0,0,1-.457-.488l.058-1.733a.473.473,0,0,1,.488-.456l3.874.13a.473.473,0,0,1,.457.488l-.058,1.733a.472.472,0,0,1-.488.456" transform="translate(-1955.57 -640.841)" fill="#deedff"/>
        <rect id="Rectangle_24" data-name="Rectangle 24" width="1.693" height="1.263" transform="translate(252.696 51.337) rotate(-88.085)" fill="#739af0"/>
        <path id="Path_86" data-name="Path 86" d="M2224.641,693.972l-1.571-.053a.212.212,0,1,1,.014-.423l1.571.053a.212.212,0,1,1-.014.423" transform="translate(-1968.415 -643.787)" fill="#739af0"/>
        <path id="Path_87" data-name="Path 87" d="M2224.622,699.161l-1.833-.061a.081.081,0,0,1,.005-.161l1.833.061a.081.081,0,1,1-.005.161" transform="translate(-1968.285 -648.388)" fill="#739af0"/>
        <path id="Path_88" data-name="Path 88" d="M2224.565,700.855l-1.833-.061a.081.081,0,0,1,.006-.161l1.833.061a.081.081,0,0,1-.005.161" transform="translate(-1968.237 -649.82)" fill="#739af0"/>
        <path id="Path_89" data-name="Path 89" d="M1507.418,1249.241c.112,1.383,2.065,1.384,4.279,1.11s1.629.292,4.732.312,4.165-1.013,4.312-1.458c.131-.394-1.366-.714-2.968-1.092-.2-.047-.4-.1-.606-.146a8.144,8.144,0,0,1-4.561-2.952c-1.346-1.725-2.576-9.578-2.576-9.578l-4.849.9s2.823,6.731,3.112,8.939c.13.991-.575,1.652-.74,2.519a5.427,5.427,0,0,0-.136,1.441" transform="translate(-1361.701 -1101.932)" fill="#b77446"/>
        <path id="Path_90" data-name="Path 90" d="M1532.916,1316.8c-.116.354-.815,1.083-2.668,1.353H1526.8a7.373,7.373,0,0,0-2.925-.208c-2.214.274-4.168.273-4.279-1.111a5.414,5.414,0,0,1,.136-1.44c1.438.145,3.57,1,5.654,1.192a8.688,8.688,0,0,0,4.547-.849l.019-.029c1.6.378,3.1.7,2.967,1.092" transform="translate(-1373.875 -1169.522)" fill="#365da4"/>
        <path id="Path_91" data-name="Path 91" d="M1434.129,924.764a7.931,7.931,0,0,1-2.465,1.057,4.95,4.95,0,0,1-2.623-.036s-8.616-21.633-8.124-28.943c.012-.176.019-.363.021-.56a30.72,30.72,0,0,0-.483-4.9c-.116-.713-.25-1.46-.4-2.233-.345-1.8-.773-3.747-1.243-5.729-.206-.873-.422-1.753-.642-2.633-2.166-8.65-4.812-17.173-4.812-17.173s15.548-5.079,16.427-.332a94.657,94.657,0,0,1,.956,20.256,160.737,160.737,0,0,0,.631,24.092,132.893,132.893,0,0,0,2.757,17.137" transform="translate(-1284.076 -785.603)" fill="#365da4"/>
        <path id="Path_92" data-name="Path 92" d="M1447.252,978.741a30.707,30.707,0,0,0-.483-4.9c-.116-.713-.25-1.46-.4-2.233-.345-1.8-.773-3.747-1.243-5.729-.206-.873-.422-1.753-.642-2.633.307-2.639.555-4.45.555-4.45a22.126,22.126,0,0,1,2.212,19.949" transform="translate(-1310.39 -868.062)" fill="#285493"/>
        <path id="Path_93" data-name="Path 93" d="M1406.062,1257.318c-.109.331-.73.991-2.328,1.3h-4.161a5.923,5.923,0,0,0-2.557-.151c-2.214.273-4.167.273-4.278-1.111a5.414,5.414,0,0,1,.136-1.44c.165-.867.74-1.52.74-2.519,0-2.968-.687-8.36-.687-8.36l4.559,1.628s-1.028,5.361.442,6.466c1.551,1.167,2.755,2.507,4.561,2.952q.3.074.606.145c1.6.378,3.1.7,2.968,1.092" transform="translate(-1266.635 -1110.045)" fill="#b77446"/>
        <path id="Path_94" data-name="Path 94" d="M1406.062,1316.8c-.109.332-.73.992-2.33,1.3h-4.16a5.919,5.919,0,0,0-2.555-.151c-2.214.274-4.167.273-4.278-1.111a5.414,5.414,0,0,1,.136-1.44c1.438.145,3.57,1,5.653,1.192a8.688,8.688,0,0,0,4.548-.849l.019-.029c1.6.378,3.1.7,2.968,1.092" transform="translate(-1266.635 -1169.522)" fill="#365da4"/>
        <path id="Path_95" data-name="Path 95" d="M1382.844,832.7s-5.059,25.211-5.913,38.932-1.921,25.081-1.921,25.081a6.691,6.691,0,0,1-2.371.326,8.722,8.722,0,0,1-2.4-.489s-5.013-20.644-3.353-28.908.277-15.886-.52-22.74c-1.143-9.828,3.255-14.4,6.325-17.51,3.108-3.152,10.15,5.307,10.15,5.307" transform="translate(-1244.194 -756.381)" fill="#365da4"/>
        <path id="Path_96" data-name="Path 96" d="M1352.111,513.7c.5-4.1-.779-10.672-8.972-9.623s-10.774,9.1-9.122,12.68-2.378,4.443-3.644,8.293c-1.087,3.307-1.466,7.413-3.225,9.256-5.671,5.941,5.445,15.078,12.146,13.151,12.206-3.509,13.778-4.033,13.345-13.623-.222-4.914-4.045-6.818-1.618-8.239,5.864-3.434-.048-2.607,1.089-11.895" transform="translate(-1209.877 -483.561)" fill="#163560"/>
        <path id="Path_97" data-name="Path 97" d="M1407.082,595.835a22.433,22.433,0,0,0-2.754-.459,11.537,11.537,0,0,1-.368-4.956l-6.1-1.856c-.291,6.424-.865,7.275-.994,7.386a27.708,27.708,0,0,0-4.04,1.3s3.891,22.263,2.22,26.512a44.882,44.882,0,0,0-2.307,8.02l18.133.225s-.254-14.584.582-19.746-4.378-16.429-4.378-16.429" transform="translate(-1266.648 -555.08)" fill="#a86337"/>
        <path id="Path_98" data-name="Path 98" d="M1426.019,537.39s-7.3,1.465-8.14-3.093-2.352-7.439,2.271-8.567,5.852.443,6.5,1.9,1.241,9.265-.636,9.764" transform="translate(-1287.116 -501.635)" fill="#b77446"/>
        <path id="Path_99" data-name="Path 99" d="M1417.7,649.788c-.054-.634-.254-.779-.254-.779-5.8.851-9.64.8-11.523,1.17-1.479.287-2.083.328-2.337-.03-8.009-11.262-13.677-14.8-13.677-14.8a9.585,9.585,0,0,0-2.969-.685s-.34,4.282-2.541,4.646c-3.806.627-6.873-2.859-7.769-4.263,0,0-4.371,1.1-5.654,2.566-.922,1.051-.8,3.565-.528,5.146a7.026,7.026,0,0,0,.278,1.147c.27.715,1.294,5.966,1.761,8.056.011.053.022.1.031.148.033.14.061.263.087.365,0,0,0,.005,0,.009.027.112.05.2.068.255l.033.1a.014.014,0,0,0,0,.007,17.356,17.356,0,0,1,.842,7.028,7.58,7.58,0,0,1-.209,1.126c-.609,3.122-3.14,9.278-3.665,12.1a3.715,3.715,0,0,0,1.824,1.546,17.252,17.252,0,0,0,3.494,1.12,33.708,33.708,0,0,0,3.558.567c.776.087,1.608.161,2.455.21.119.008.238.014.357.019,5.463.271,11.58.137,12.377-2.46.382-1.246-1.141-8.739-1.344-10.965-.355-3.911.224-9.266.485-13.412a26.721,26.721,0,0,0,9.11,6.717,22.394,22.394,0,0,0,3.717-.558c1.433-.32,2.934-.746,4.371-1.2a72.23,72.23,0,0,0,7.878-3.085,9.377,9.377,0,0,1-.26-1.814" transform="translate(-1247.15 -594.053)" fill="#a8d29f"/>
        <path id="Path_100" data-name="Path 100" d="M1420.611,508.7c-3.6-3.547-7.227-2.333-7.227-2.333s-1.818,2.063-3.052,3.452c-2.158,2.427,1.887,10.03,1.887,10.03s-.572-4.677,1.828-7.3a10.012,10.012,0,0,0,2-2.966,5.075,5.075,0,0,0,1.458.843c2.322.815,3.6,4.55,3.6,4.55.831-1.743,1.065-4.747-.486-6.276" transform="translate(-1280.98 -485.423)" fill="#163560"/>
        <path id="Path_101" data-name="Path 101" d="M1460.873,585.607s.2.541,1.569.3c0,0,1.153-.206,1.047-.813a3.762,3.762,0,0,0-2.616.518" transform="translate(-1324.243 -552.095)" fill="#fff"/>
        <path id="Path_102" data-name="Path 102" d="M1385.245,695.274c-1.035,3.51-1.636,6.4-4.235,8.352-.847-.049-1.678-.123-2.455-.21a33.7,33.7,0,0,1-3.558-.567,17.253,17.253,0,0,1-3.494-1.12,3.714,3.714,0,0,1-1.824-1.546c.525-2.826,3.056-8.982,3.665-12.1a7.467,7.467,0,0,0,.121-.819,20.374,20.374,0,0,0-.754-7.335.015.015,0,0,1,0-.007l-.1-.357s0-.005,0-.009c-.022-.077-.051-.2-.087-.365-.01-.045-.021-.094-.031-.148-.417-1.98-1.508-8.195-1.786-9.006a8.206,8.206,0,0,1-.273-1.238l2.183-2.1s12.526,5.349,15.286,12.728-1.168,10.814-2.655,15.85" transform="translate(-1247.151 -621.131)" fill="#66a357"/>
        <path id="Path_103" data-name="Path 103" d="M1535.655,725.885a35.087,35.087,0,0,1-8.088,1.76,26.769,26.769,0,0,1-9.2-6.816c-.19-.852-.373-2.282.659-1.87,1.448.579,6.8,7.455,8.831,7.6a62.96,62.96,0,0,0,7.8-.674" transform="translate(-1372.722 -665.251)" fill="#66a357"/>
        <path id="Path_104" data-name="Path 104" d="M1401.239,663.894a64.276,64.276,0,0,1-11.528,4.385,24.014,24.014,0,0,1-4.291.69,21.729,21.729,0,0,1-10.151-7.925c-8.487-11.888-1.935-13.17-1.935-13.17s5.67,3.537,13.677,14.8c.28.394.984.305,2.805-.063,1.946-.393,5.818-.346,11.164-1.131a2.991,2.991,0,0,1,.145.833c.12,1.4.113,1.583.113,1.583" transform="translate(-1248.2 -605.219)" fill="#a8d29f"/>
        <path id="Path_105" data-name="Path 105" d="M1619.466,719.316c-.692-.652-3.951-.244-5.173.367a9.938,9.938,0,0,1-1.415.561c-5.7.826-9.666.854-11.529,1.218a10.548,10.548,0,0,0-.213,5.708c1.433-.32,2.935-.746,4.371-1.2a72.282,72.282,0,0,0,7.854-3.073,19.022,19.022,0,0,1,2.4-.2c2.974-.081,4.4-2.729,3.707-3.381" transform="translate(-1442.574 -665.333)" fill="#a86337"/>
        <path id="Path_106" data-name="Path 106" d="M1650.46,1108.787h160.355v-41.871l-160.355-.417Z" transform="translate(-1484.516 -959.989)" fill="#699ff0"/>
        <rect id="Rectangle_25" data-name="Rectangle 25" width="160.355" height="10.522" transform="translate(165.944 75.205)" fill="#699ff0"/>
        <path id="Path_107" data-name="Path 107" d="M1732.53,816.924H1552.151a3.387,3.387,0,0,1-3.387-3.387v-.809a3.387,3.387,0,0,1,3.387-3.387H1732.53a3.387,3.387,0,0,1,3.387,3.387v.809a3.387,3.387,0,0,1-3.387,3.387" transform="translate(-1398.544 -741.718)" fill="#466aa5"/>
        <g id="Group_37" data-name="Group 37" transform="translate(167.328 85.727)" opacity="0.9">
          <g id="Group_36" data-name="Group 36">
            <g id="Group_35" data-name="Group 35" clip-path="url(#clip-path-5)">
              <path id="Path_108" data-name="Path 108" d="M1659.405,948.092l158.972.4V926.435H1659.405Z" transform="translate(-1659.406 -926.435)" fill="#afcdfb"/>
            </g>
          </g>
        </g>
        <path id="Path_109" data-name="Path 109" d="M1875.05,616.133H1866.9a.765.765,0,0,1-.765-.765v-1.858a.765.765,0,0,1,.765-.765h8.155a.765.765,0,0,1,.765.765v1.858a.765.765,0,0,1-.765.765" transform="translate(-1666.839 -575.522)" fill="#365da4"/>
        <path id="Path_110" data-name="Path 110" d="M1871.531,658.065h-15.137v-5.582h11.768a3.369,3.369,0,0,1,3.369,3.369Z" transform="translate(-1658.608 -609.115)" fill="#699ff0"/>
        <path id="Path_111" data-name="Path 111" d="M1893.682,707.256h-32.23V688.585h19.391a4.9,4.9,0,0,1,4.331,2.607Z" transform="translate(-1662.884 -639.635)" fill="#365da4"/>
        <path id="Path_112" data-name="Path 112" d="M1840.4,707.256h-32.23V689.779a1.194,1.194,0,0,1,1.194-1.194h18.2a4.9,4.9,0,0,1,4.331,2.607Z" transform="translate(-1617.837 -639.635)" fill="#699ff0"/>
        <path id="Path_113" data-name="Path 113" d="M1855.215,658.065h-15.137v-4.388a1.194,1.194,0,0,1,1.194-1.194h10.574a3.369,3.369,0,0,1,3.369,3.369Z" transform="translate(-1644.814 -609.115)" fill="#365da4"/>
        <rect id="Rectangle_27" data-name="Rectangle 27" width="1.556" height="2.757" transform="translate(202.242 40.611)" fill="#699ff0"/>
        <path id="Path_114" data-name="Path 114" d="M1867.945,616.133h-8.155a.765.765,0,0,1-.765-.765v-1.858a.765.765,0,0,1,.765-.765h8.155a.765.765,0,0,1,.765.765v1.858a.765.765,0,0,1-.765.765" transform="translate(-1660.833 -575.522)" fill="#699ff0"/>
        <rect id="Rectangle_28" data-name="Rectangle 28" width="6.368" height="1.546" transform="translate(199.597 37.997)" fill="#365da4"/>
        <path id="Path_115" data-name="Path 115" d="M1607.1,713.919h-25.286l-2.441-17.453h30.169Z" transform="translate(-1424.422 -646.297)" fill="#b74b42"/>
        <path id="Path_116" data-name="Path 116" d="M1605.452,691.207h-30.194a.657.657,0,0,1-.657-.657v-1.308a.657.657,0,0,1,.657-.657h30.194a.657.657,0,0,1,.657.657v1.308a.657.657,0,0,1-.657.657" transform="translate(-1420.386 -639.635)" fill="#a53d38"/>
        <path id="Path_117" data-name="Path 117" d="M1671.485,727.819h0a.915.915,0,0,1-.916-.915V715.473a.916.916,0,0,1,1.831,0V726.9a.916.916,0,0,1-.916.915" transform="translate(-1501.516 -661.591)" fill="#a53d38"/>
        <path id="Path_118" data-name="Path 118" d="M1618.962,728.052h0a.915.915,0,0,1-1.032-.781l-1.568-11.323a.916.916,0,1,1,1.814-.251l1.568,11.323a.916.916,0,0,1-.781,1.032" transform="translate(-1455.682 -661.886)" fill="#a53d38"/>
        <path id="Path_119" data-name="Path 119" d="M1715.432,728.052h0a.915.915,0,0,0,1.032-.781l1.568-11.323a.916.916,0,1,0-1.814-.251l-1.568,11.323a.916.916,0,0,0,.781,1.032" transform="translate(-1538.773 -661.886)" fill="#a53d38"/>
        <path id="Path_120" data-name="Path 120" d="M1715.51,708.075h0a.559.559,0,0,1-.791,0l-13.15-13.15a.559.559,0,0,1,.791-.791l13.149,13.15a.559.559,0,0,1,0,.791" transform="translate(-1527.584 -644.188)" fill="#365da4"/>
        <path id="Path_121" data-name="Path 121" d="M1559.464,708.075h0a.559.559,0,0,0,.791,0l13.149-13.15a.559.559,0,0,0-.791-.791l-13.15,13.15a.559.559,0,0,0,0,.791" transform="translate(-1407.451 -644.188)" fill="#365da4"/>
        <path id="Path_122" data-name="Path 122" d="M1511.455,724.9c-.739-.7-4.218-.261-5.523.391a11.888,11.888,0,0,1-2.19.8v-.009c-5.346.785-9.245.955-11.191,1.348a6.3,6.3,0,0,1-.106,5.669,74.1,74.1,0,0,0,11.633-4.2,16.012,16.012,0,0,1,3.422-.382c3.175-.087,4.7-2.914,3.957-3.609" transform="translate(-1350.932 -670.033)" fill="#b77446"/>
        <path id="Path_123" data-name="Path 123" d="M1122.33,1119.818h-18.921a1.319,1.319,0,0,1,0-2.639h16.9c-19.072-10.354-34.776-1.981-40.04.826a2.511,2.511,0,0,1-3.548-3.059l10.506-29.438a1.319,1.319,0,1,1,2.485.887l-10.4,29.129a49.263,49.263,0,0,1,16.78-5.695c9.312-1.232,18.5.815,27.319,6.084a2.1,2.1,0,0,1-1.08,3.9" transform="translate(-999.36 -974.445)" fill="#233862"/>
        <path id="Path_124" data-name="Path 124" d="M993.835,815.31a1.316,1.316,0,0,1-.974-.428l-7.124-7.783a1.319,1.319,0,1,1,1.946-1.782l7.124,7.783a1.319,1.319,0,0,1-.973,2.21" transform="translate(-922.282 -737.954)" fill="#365da4"/>
        <path id="Path_125" data-name="Path 125" d="M962.149,1124.376c-13.631-9.345-28.431-9.877-43.99-1.581a2.511,2.511,0,0,1-3.549-3.059l10.506-29.438,2.485.887-10.4,29.129a49.586,49.586,0,0,1,17.861-5.8c9.938-1.084,19.552,1.5,28.574,7.689Z" transform="translate(-862.319 -979.234)" fill="#365da4"/>
        <path id="Path_126" data-name="Path 126" d="M932.891,838.471l-16.607-.373,3.958,41.4h67.62l6.769-27.648Z" transform="translate(-863.859 -766.03)" fill="#699ff0"/>
        <path id="Path_127" data-name="Path 127" d="M916.284,838.1l3.958,41.4h50.922l6.86-28.021Z" transform="translate(-863.859 -766.03)" fill="#afcdfb"/>
        <path id="Path_128" data-name="Path 128" d="M897.432,812.427h-17.15a1.319,1.319,0,0,1,0-2.638h17.15a1.319,1.319,0,0,1,0,2.638" transform="translate(-832.309 -742.098)" fill="#233862"/>
        <path id="Path_129" data-name="Path 129" d="M882.921,815.31a1.317,1.317,0,0,1-.974-.428l-7.124-7.783a1.319,1.319,0,0,1,1.946-1.782l7.124,7.783a1.319,1.319,0,0,1-.973,2.21" transform="translate(-828.517 -737.954)" fill="#365da4"/>
        <path id="Path_130" data-name="Path 130" d="M892.742,1275.871l-1.456.006a4.177,4.177,0,0,0,.514,8.339l1.456-.006a4.178,4.178,0,1,0-.514-8.339" transform="translate(-839.412 -1136.107)" fill="#233862"/>
        <path id="Path_131" data-name="Path 131" d="M902.6,1288.586a2.638,2.638,0,1,1-2.684-2.592,2.639,2.639,0,0,1,2.684,2.592" transform="translate(-847.83 -1144.671)" fill="#365da4"/>
        <path id="Path_132" data-name="Path 132" d="M1199.889,1275.871l-1.456.006a4.177,4.177,0,0,0,.514,8.339l1.456-.006a4.178,4.178,0,1,0-.514-8.339" transform="translate(-1099.068 -1136.107)" fill="#233862"/>
        <path id="Path_133" data-name="Path 133" d="M1209.746,1288.586a2.638,2.638,0,1,1-2.684-2.592,2.639,2.639,0,0,1,2.684,2.592" transform="translate(-1107.485 -1144.671)" fill="#365da4"/>
        <path id="Path_134" data-name="Path 134" d="M1353.463,1275.871l-1.456.006a4.177,4.177,0,0,0,.514,8.339l1.456-.006a4.178,4.178,0,1,0-.514-8.339" transform="translate(-1228.896 -1136.107)" fill="#233862"/>
        <path id="Path_135" data-name="Path 135" d="M1054.847,1275.871l-1.456.006a4.177,4.177,0,0,0,.514,8.339l1.456-.006a4.178,4.178,0,0,0-.514-8.339" transform="translate(-976.453 -1136.107)" fill="#233862"/>
        <path id="Path_136" data-name="Path 136" d="M985.455,918.755a.329.329,0,0,1-.233-.1l-25.329-25.329a.33.33,0,0,1,.466-.466l25.329,25.329a.33.33,0,0,1-.233.563" transform="translate(-900.644 -812.245)" fill="#699ff0"/>
        <path id="Path_137" data-name="Path 137" d="M1033.313,935.9a.328.328,0,0,1-.233-.1l-27.968-27.967a.33.33,0,0,1,.466-.466l27.968,27.967a.33.33,0,0,1-.233.563" transform="translate(-938.871 -824.506)" fill="#699ff0"/>
        <path id="Path_138" data-name="Path 138" d="M1009.335,977.616a.328.328,0,0,1-.233-.1L998.713,967.13a.33.33,0,1,1,.466-.466l10.389,10.389a.33.33,0,0,1-.233.563" transform="translate(-933.461 -874.635)" fill="#699ff0"/>
        <path id="Path_139" data-name="Path 139" d="M1129.1,943.379a.328.328,0,0,1-.233-.1l-9.853-9.853a.33.33,0,0,1,.466-.466l9.853,9.853a.33.33,0,0,1-.233.563" transform="translate(-1035.16 -846.145)" fill="#699ff0"/>
        <path id="Path_140" data-name="Path 140" d="M1084.558,926.567a.328.328,0,0,1-.233-.1l-8.4-8.4a.33.33,0,0,1,.466-.466l8.4,8.4a.33.33,0,0,1-.233.563" transform="translate(-998.736 -833.162)" fill="#699ff0"/>
        <path id="Path_141" data-name="Path 141" d="M1066.7,988.11a.33.33,0,0,1-.233-.563l17.623-17.623a.33.33,0,1,1,.466.466l-17.623,17.623a.329.329,0,0,1-.233.1" transform="translate(-990.737 -877.391)" fill="#699ff0"/>
        <path id="Path_142" data-name="Path 142" d="M1031.687,952.953a.33.33,0,0,1-.233-.563l16.441-16.441a.33.33,0,0,1,.467.466l-16.441,16.441a.329.329,0,0,1-.233.1" transform="translate(-961.14 -848.669)" fill="#699ff0"/>
        <path id="Path_143" data-name="Path 143" d="M1012.951,937.687a.33.33,0,0,1-.233-.563l13.972-13.972a.33.33,0,0,1,.466.466l-13.972,13.972a.328.328,0,0,1-.233.1" transform="translate(-945.301 -837.85)" fill="#699ff0"/>
        <path id="Path_144" data-name="Path 144" d="M989.348,915.021a.33.33,0,0,1-.233-.563l7.091-7.091a.33.33,0,1,1,.466.466l-7.091,7.091a.328.328,0,0,1-.233.1" transform="translate(-925.347 -824.506)" fill="#699ff0"/>
        <path id="Path_145" data-name="Path 145" d="M579.226,1249.9s-2.4,2.223-1.931,3.8,2.633,2.633,2.925,4.564,1.463,2.984,2.516,2.984h5.021s.775-1.359-1.1-1.768-2.578-2.678-2.461-4.785a37.7,37.7,0,0,0-.175-4.915l-3.979-.936Z" transform="translate(-577.234 -1113.267)" fill="#233862"/>
        <path id="Path_146" data-name="Path 146" d="M793.617,1289.44H780.284a1.142,1.142,0,0,1-.26-.078c-.889-.444-.612-3.844-.5-4.9.021-.2.035-.31.035-.31s4.682-3.744,5.325-.877c.019.089.044.177.07.264.809,2.682,4.443,3.9,6.542,4.241a2.286,2.286,0,0,1,2.125,1.657" transform="translate(-748.135 -1141.461)" fill="#233862"/>
        <path id="Path_147" data-name="Path 147" d="M745.441,825.9s-.711,8.869-1.546,19.53c-1.135,14.482-2.5,32.271-2.636,35.641-.234,5.852-1.171,15.213-1.171,15.213s-2.222,2.224-6.67,1.286a153.12,153.12,0,0,1-5.1-27.5l-.053-.7c-1.053-14.393-2.691-44.7-2.691-44.7Z" transform="translate(-702.642 -754.679)" fill="#f1a34f"/>
        <path id="Path_148" data-name="Path 148" d="M745.441,825.9s-.711,8.869-1.546,19.53l-15.572,24.64-.053-.7c-1.053-14.393-2.691-44.7-2.691-44.7Z" transform="translate(-702.642 -754.679)" fill="#d86713"/>
        <path id="Path_149" data-name="Path 149" d="M627.675,807.761s-12.813,32.121-21.238,47.216-11.058,19.307-11.058,19.307-4.827-1.931-5.266-3.247c0,0,3.222-29.141,8.864-36.245,3.188-4.014,6.933-16.06,7.109-20.273s1.141-12.55,1.141-12.55Z" transform="translate(-588.122 -735.487)" fill="#f1a34f"/>
        <path id="Path_150" data-name="Path 150" d="M903.878,782.079l.732,1.46a3.279,3.279,0,0,1,2.7,4.4s-.552,1.6-1.579,1.092-.521-.463-1.993-1.143-2.324-1.987-1.995-3.186l-.236-1.271Z" transform="translate(-851.367 -718.673)" fill="#ffb27d"/>
        <path id="Path_151" data-name="Path 151" d="M734.287,460.833a37.6,37.6,0,0,0,.587-5.357l-6.5-5.239A13.037,13.037,0,0,1,724,460.9s8.663,4.264,13.671,2.685a11.991,11.991,0,0,0-3.382-2.757" transform="translate(-701.305 -438.14)" fill="#ffb27d"/>
        <path id="Path_152" data-name="Path 152" d="M750.153,408.545s-8.271,1.374-9.047-3.79-2.367-8.464,2.881-9.559,6.572.72,7.25,2.381,1.047,10.478-1.085,10.968" transform="translate(-715.053 -391.329)" fill="#ffb27d"/>
        <path id="Path_153" data-name="Path 153" d="M728.76,385.788a8.56,8.56,0,0,1,7.7-8.027c5.162-.76,2.036-5.073,1.446-5.756,0,0-3.946.753-7.984,1.639-8.476,1.86-2.06,11.116-1.164,12.144" transform="translate(-702.652 -372.005)" fill="#a53d38"/>
        <path id="Path_154" data-name="Path 154" d="M751.928,581.7a14.148,14.148,0,0,0,1.927-2.611s-9.4-11.675-10.161-12.886-6.471-20.63-6.471-20.63l-14.432-2.924s12.046,24.852,14.042,27.882C740.131,575.538,750,582.99,750,582.99a5.94,5.94,0,0,0,1.932-1.29" transform="translate(-700.286 -516.265)" fill="#3b76ca"/>
        <path id="Path_155" data-name="Path 155" d="M719.7,557.264a.81.81,0,0,1-.526.2c-1.88-.026-7.363,1.019-12,.542a34.568,34.568,0,0,1-11.09-3.2c-.494-.221-1.63-.828-1.6-1.38.017-.6.077-1.48.152-2.584a138.227,138.227,0,0,0,.275-18.051c-.081-1.418-.123-2.824-.128-4.209-.038-10.32,1.973-19.447,6.085-22.519.351-.252,2.543.853,4.524,1.83a6.625,6.625,0,0,0,4.84.532l2.28,1.649a17.284,17.284,0,0,1,5.416,8.65c.853,3.435,1.354,9.628,1.63,16.047.125,2.908.226,5.843.252,8.626v.1c.024.276.024.577.024.853.1,7.145,0,12.812-.125,12.913" transform="translate(-676.347 -485.304)" fill="#699dee"/>
        <path id="Path_156" data-name="Path 156" d="M695.46,634.971a138.225,138.225,0,0,0,.275-18.051c-.08-1.418-.123-2.824-.128-4.209,1.713-4.155,3.113-7.168,3.113-7.168h4.317s3.165,21.62-7.577,29.429" transform="translate(-677.18 -569.432)" fill="#3b76ca"/>
        <path id="Path_157" data-name="Path 157" d="M613.865,797.777l-.82,1.412a3.279,3.279,0,0,1-2.2,4.671s-1.639.414-1.779-.723.1-.689-.136-2.293.388-3.033,1.572-3.414l.934-.894Z" transform="translate(-603.984 -730.894)" fill="#ffb27d"/>
        <path id="Path_158" data-name="Path 158" d="M615.4,556.8a14.146,14.146,0,0,0,3.24.18s4.615-14.258,5.21-15.561,13.71-16.718,13.71-16.718l-5.464-13.674s-14.186,23.7-15.626,27.026c-2.38,5.5-3.206,17.838-3.206,17.838a5.939,5.939,0,0,0,2.137.909" transform="translate(-607.691 -489.533)" fill="#699dee"/>
      </g>
    </g>
  </g>
</svg>
