<svg id="Group_7016" data-name="Group 7016" xmlns="http://www.w3.org/2000/svg" xmlns:xlink="http://www.w3.org/1999/xlink" width="74.247" height="44.066" viewBox="0 0 74.247 44.066">
  <defs>
    <clipPath id="clip-path">
      <rect id="Rectangle_2267" data-name="Rectangle 2267" width="74.247" height="44.066" fill="none"/>
    </clipPath>
  </defs>
  <g id="Group_7015" data-name="Group 7015" clip-path="url(#clip-path)">
    <path id="Path_3222" data-name="Path 3222" d="M14.515,24.365A7.314,7.314,0,0,1,7.384,31.5,7.4,7.4,0,0,1,0,25.162,1.966,1.966,0,0,1,1.593,23.1c.941,0,1.955.8,1.955,1.52a3.772,3.772,0,0,0,3.837,3.33,3.472,3.472,0,0,0,3.547-3.583,3.68,3.68,0,0,0-3.547-3.8,1.793,1.793,0,0,1,0-3.583,3.636,3.636,0,0,0,3.547-3.8A3.494,3.494,0,0,0,7.384,9.6a4.084,4.084,0,0,0-3.837,2.86,1.7,1.7,0,0,1-1.955,1.484A1.929,1.929,0,0,1,0,11.913,7.441,7.441,0,0,1,7.384,6.086a7.113,7.113,0,0,1,7.131,7.095,7.279,7.279,0,0,1-2.534,5.61,7.261,7.261,0,0,1,2.534,5.575" transform="translate(0 -4.276)" fill="#fff"/>
    <path id="Path_3223" data-name="Path 3223" d="M66.033,32.084a1.815,1.815,0,0,1-1.81,1.809,5.5,5.5,0,0,0-5.5,5.5V46.67a1.792,1.792,0,1,1-3.583,0V39.4a9.091,9.091,0,0,1,9.085-9.085,1.785,1.785,0,0,1,1.81,1.774" transform="translate(-38.742 -21.297)" fill="#fff"/>
    <path id="Path_3224" data-name="Path 3224" d="M167.779,9.162a1.841,1.841,0,0,1-.543-1.267,1.792,1.792,0,0,1,3.077-1.267,1.792,1.792,0,0,1-2.534,2.533m-.543,20.487V15.063a1.792,1.792,0,0,1,3.583,0V29.65a1.792,1.792,0,1,1-3.583,0" transform="translate(-117.507 -4.276)" fill="#fff"/>
    <path id="Path_3225" data-name="Path 3225" d="M199.052,10.787a1.815,1.815,0,0,1-1.81,1.809h-2.57V25.374a1.792,1.792,0,1,1-3.583,0V12.6h-2.606a1.808,1.808,0,0,1-1.774-1.809,1.777,1.777,0,0,1,1.774-1.774h2.606V1.774a1.792,1.792,0,0,1,3.583,0V9.014h2.57a1.785,1.785,0,0,1,1.81,1.774" transform="translate(-131.189 -0.001)" fill="#fff"/>
    <path id="Path_3226" data-name="Path 3226" d="M236.18,9.162a1.841,1.841,0,0,1-.543-1.267,1.792,1.792,0,0,1,3.077-1.267,1.792,1.792,0,0,1-2.534,2.533m-.543,20.487V15.063a1.792,1.792,0,0,1,3.583,0V29.65a1.792,1.792,0,1,1-3.583,0" transform="translate(-165.568 -4.276)" fill="#fff"/>
    <path id="Path_3227" data-name="Path 3227" d="M102.883,3.1v8.956a8.963,8.963,0,0,0-3.4,7.351H99.3V19.1a.242.242,0,0,0,0-.452V3.1a1.792,1.792,0,0,1,3.583,0" transform="translate(-69.772 -0.931)" fill="#fff"/>
    <text id="APP" transform="translate(52.364 36.125)" fill="#fcb852" font-size="10" font-family="Poppins-Medium, Poppins" font-weight="500"><tspan x="0" y="0">APP</tspan></text>
    <path id="Path_3228" data-name="Path 3228" d="M93.716,90.211H81.194c-.214,0-.387.092-.387.206s.173.206.387.206H93.716c.214,0,.387-.092.387-.206s-.173-.206-.387-.206" transform="translate(-56.778 -63.386)" fill="#fcb852"/>
    <path id="Path_3229" data-name="Path 3229" d="M93.193,84.876H85.579c-.207,0-.375.092-.375.206s.168.206.375.206h7.614c.207,0,.375-.092.375-.206s-.168-.206-.375-.206" transform="translate(-59.868 -59.637)" fill="#fcb852"/>
    <path id="Path_3230" data-name="Path 3230" d="M96.308,79.541H92.149c-.206,0-.372.092-.372.206s.166.206.372.206h4.159c.206,0,.372-.092.372-.206s-.166-.206-.372-.206" transform="translate(-64.486 -55.889)" fill="#fcb852"/>
    <path id="Path_3231" data-name="Path 3231" d="M116.165,40.082a.242.242,0,0,1,0-.485.226.226,0,0,0,.238-.161,9.34,9.34,0,0,0-.205-1.564.228.228,0,0,0-.271-.092.247.247,0,0,1-.065.009.238.238,0,0,1-.232-.181.243.243,0,0,1,.172-.3.231.231,0,0,0,.187-.2.082.082,0,0,0,0-.027,9,9,0,0,0-.6-1.448.231.231,0,0,0-.285-.021.228.228,0,0,1-.122.033.246.246,0,0,1-.211-.122.243.243,0,0,1,.089-.33.249.249,0,0,0,.134-.2.169.169,0,0,0-.009-.054,8.737,8.737,0,0,0-.96-1.252.228.228,0,0,0-.28.054.241.241,0,0,1-.342,0,.232.232,0,0,1-.071-.169.243.243,0,0,1,.071-.172.282.282,0,0,0,.083-.187.151.151,0,0,0-.03-.1,9.406,9.406,0,0,0-1.255-.96.234.234,0,0,0-.253.128.241.241,0,0,1-.208.122.258.258,0,0,1-.122-.033.244.244,0,0,1-.089-.333.284.284,0,0,0,.039-.14.188.188,0,0,0-.059-.146,9.27,9.27,0,0,0-1.451-.6.229.229,0,0,0-.22.187.243.243,0,0,1-.3.172.24.24,0,0,1-.172-.3.223.223,0,0,0-.092-.268,8.793,8.793,0,0,0-1.567-.205.226.226,0,0,0-.155.235.244.244,0,1,1-.488,0,.223.223,0,0,0-.158-.235,9.074,9.074,0,0,0-1.567.205.225.225,0,0,0-.089.268.243.243,0,1,1-.47.125.223.223,0,0,0-.223-.184,9.039,9.039,0,0,0-1.451.6.228.228,0,0,0-.018.282.246.246,0,0,1-.089.333.242.242,0,0,1-.33-.089.224.224,0,0,0-.253-.125c-.1.065-.2.131-.3.2a8.8,8.8,0,0,0-.96.764.229.229,0,0,0,.057.277.242.242,0,1,1-.342.342.228.228,0,0,0-.28-.054,9.033,9.033,0,0,0-.963,1.258.228.228,0,0,0,.128.25.243.243,0,0,1-.244.419.227.227,0,0,0-.282.018,9.23,9.23,0,0,0-.607,1.457.226.226,0,0,0,.187.217.243.243,0,1,1-.125.47.293.293,0,0,0-.152,0,.176.176,0,0,0-.116.092,9.179,9.179,0,0,0-.208,1.576.231.231,0,0,0,.235.149.217.217,0,0,1,.089.018.242.242,0,0,1,0,.452.28.28,0,0,1-.089.015.235.235,0,0,0-.235.155,9.106,9.106,0,0,0,.208,1.573.223.223,0,0,0,.268.089.243.243,0,1,1,.125.47.23.23,0,0,0-.187.2v.018a9.23,9.23,0,0,0,.607,1.457.232.232,0,0,0,.282.015.242.242,0,0,1,.241.419.231.231,0,0,0-.125.253,9.212,9.212,0,0,0,.963,1.258.229.229,0,0,0,.277-.057.242.242,0,0,1,.342.342.228.228,0,0,0-.054.28,9.212,9.212,0,0,0,1.258.963.228.228,0,0,0,.25-.128.243.243,0,0,1,.419.244.231.231,0,0,0,.021.285,9.271,9.271,0,0,0,1.451.6.224.224,0,0,0,.22-.187.243.243,0,0,1,.47.125.224.224,0,0,0,.1.271,9.073,9.073,0,0,0,1.567.205.229.229,0,0,0,.155-.235.242.242,0,1,1,.485,0,.225.225,0,0,0,.161.235,9.04,9.04,0,0,0,1.564-.205.229.229,0,0,0,.092-.268v0a.243.243,0,0,1,.172-.3.247.247,0,0,1,.3.172.233.233,0,0,0,.2.19l.021,0a9.122,9.122,0,0,0,1.448-.6.228.228,0,0,0,.021-.282.242.242,0,0,1,.086-.333.246.246,0,0,1,.333.089.226.226,0,0,0,.256.125,9.191,9.191,0,0,0,1.252-.96.228.228,0,0,0-.054-.28.244.244,0,0,1,0-.345.246.246,0,0,1,.342,0,.262.262,0,0,0,.184.083.16.16,0,0,0,.1-.03,8.938,8.938,0,0,0,.957-1.252.224.224,0,0,0-.125-.253.246.246,0,0,1-.122-.211.258.258,0,0,1,.033-.122.246.246,0,0,1,.333-.089v0a.227.227,0,0,0,.285-.024,9.121,9.121,0,0,0,.6-1.448.221.221,0,0,0-.187-.22l0,0a.242.242,0,1,1,.128-.467.376.376,0,0,0,.077.012.2.2,0,0,0,.193-.11,9.3,9.3,0,0,0,.205-1.561.229.229,0,0,0-.238-.158m-8.858,6.8a7.041,7.041,0,1,1,7.041-7.041,7.048,7.048,0,0,1-7.041,7.041" transform="translate(-69.006 -21.603)" fill="#333"/>
    <path id="Path_3232" data-name="Path 3232" d="M113.311,39.282a6.556,6.556,0,1,0,6.556,6.556,6.563,6.563,0,0,0-6.556-6.556m5.827,6.6a5.827,5.827,0,0,1-5.826,5.827h0a5.827,5.827,0,1,1,5.828-5.827" transform="translate(-75.01 -27.601)" fill="#fff"/>
    <path id="Path_3233" data-name="Path 3233" d="M131.834,47.561h0a.986.986,0,0,0,.365-.07l2.951-1.165-.135-.242a5.466,5.466,0,0,0-3.606-2.686l-.268-.059-.29,3.141a.976.976,0,0,0,.252.756.993.993,0,0,0,.732.325m.186-.522a.5.5,0,0,1-.559-.131.5.5,0,0,1-.128-.385l.193-2.087a4.5,4.5,0,0,1,2.456,1.827Z" transform="translate(-91.937 -30.452)" fill="#333"/>
    <path id="Path_3234" data-name="Path 3234" d="M137.951,59.412l-.021-.273-3.078.61a.96.96,0,0,0-.549,1.56l2.034,2.421.187-.2a5.445,5.445,0,0,0,1.447-3.694c0-.143-.01-.282-.021-.422m-3.36,1.122a.472.472,0,0,1,.356-.308L137,59.818c0,.005,0,.01,0,.015a4.466,4.466,0,0,1-.972,2.775L134.676,61a.472.472,0,0,1-.084-.463" transform="translate(-94.209 -41.554)" fill="#333"/>
    <path id="Path_3235" data-name="Path 3235" d="M115.6,47.561h0a.993.993,0,0,0,.731-.325.977.977,0,0,0,.253-.756l-.29-3.141-.268.059a5.468,5.468,0,0,0-3.607,2.686l-.134.242,2.951,1.165a.992.992,0,0,0,.365.07m.372-.652a.5.5,0,0,1-.559.13l-1.961-.775a4.5,4.5,0,0,1,2.455-1.827l.193,2.087a.5.5,0,0,1-.128.384" transform="translate(-78.898 -30.452)" fill="#333"/>
    <path id="Path_3236" data-name="Path 3236" d="M123.145,67.259a.935.935,0,0,0-.818.472l-1.576,2.726.252.108a5.468,5.468,0,0,0,4.284,0l.252-.108-1.577-2.727a.935.935,0,0,0-.818-.472m-.4.715a.459.459,0,0,1,.8,0l1.048,1.813a4.517,4.517,0,0,1-2.892,0Z" transform="translate(-84.845 -47.259)" fill="#333"/>
    <path id="Path_3237" data-name="Path 3237" d="M114.269,60.374a.952.952,0,0,0-.719-.623l-3.077-.61-.021.273c-.011.139-.021.279-.021.421a5.444,5.444,0,0,0,1.447,3.694l.187.2,2.034-2.421a.952.952,0,0,0,.171-.937m-.542.624-1.353,1.612a4.47,4.47,0,0,1-.971-2.775c0-.005,0-.01,0-.015l2.053.407a.475.475,0,0,1,.271.771" transform="translate(-77.593 -41.555)" fill="#333"/>
    <path id="Path_3238" data-name="Path 3238" d="M127.809,59.755a.728.728,0,1,1-.729-.729.729.729,0,0,1,.729.729" transform="translate(-88.78 -41.474)" fill="#fff"/>
    <path id="Path_3239" data-name="Path 3239" d="M128.471,56.462a.243.243,0,1,1-.243-.243.243.243,0,0,1,.243.243" transform="translate(-89.928 -39.502)" fill="#333"/>
    <path id="Path_3240" data-name="Path 3240" d="M124.08,59.3a.243.243,0,1,1-.306.156.243.243,0,0,1,.306-.156" transform="translate(-86.96 -41.658)" fill="#333"/>
    <path id="Path_3241" data-name="Path 3241" d="M125.421,64.349a.243.243,0,1,1,.054.339.242.242,0,0,1-.054-.339" transform="translate(-88.094 -45.144)" fill="#333"/>
    <path id="Path_3242" data-name="Path 3242" d="M125.421,64.349a.243.243,0,1,1,.054.339.242.242,0,0,1-.054-.339" transform="translate(-88.094 -45.144)" fill="#333"/>
    <path id="Path_3243" data-name="Path 3243" d="M130.639,64.635a.243.243,0,1,1,.339.054.242.242,0,0,1-.339-.054" transform="translate(-91.76 -45.144)" fill="#333"/>
    <path id="Path_3244" data-name="Path 3244" d="M132.524,59.761a.243.243,0,1,1,.156-.306.243.243,0,0,1-.156.306" transform="translate(-92.893 -41.657)" fill="#333"/>
  </g>
</svg>
