<svg xmlns="http://www.w3.org/2000/svg" xmlns:xlink="http://www.w3.org/1999/xlink" width="340.726" height="145.52" viewBox="0 0 340.726 145.52">
  <defs>
    <clipPath id="clip-path">
      <rect id="Rectangle_15" data-name="Rectangle 15" width="340.726" height="145.52" fill="none"/>
    </clipPath>
  </defs>
  <g id="Group_24" data-name="Group 24" transform="translate(-39)">
    <g id="Group_23" data-name="Group 23" transform="translate(39)" clip-path="url(#clip-path)">
      <path id="Path_13" data-name="Path 13" d="M204.706,92.135l-9.051,42.681a3.079,3.079,0,0,1-1.371,2.066,3.973,3.973,0,0,1-2.167.686h-9.542c-1.112,0-1.77-.259-1.964-.779a10.771,10.771,0,0,1-.491-2.065l-.491-2.854c-.593.658-1.25,1.371-1.973,2.159A15.453,15.453,0,0,1,175.2,136.2a12.615,12.615,0,0,1-3.2,1.621,12.936,12.936,0,0,1-4.28.639h-.583a21.619,21.619,0,0,1-9.3-1.871,16.961,16.961,0,0,1-6.485-5.206,18.107,18.107,0,0,1-3.3-7.921,23.279,23.279,0,0,1-.325-3.354l13.85-.018v7.68l25.727-14.832L161.58,98.11v7.671L151,105.8c.38-.787.787-1.557,1.232-2.307a30.758,30.758,0,0,1,6.6-7.865,30.316,30.316,0,0,1,8.7-5.17A28.139,28.139,0,0,1,177.756,88.6q5.016,0,7.523,2.556a11.529,11.529,0,0,1,3.2,5.707l2.465-4.622a11.253,11.253,0,0,1,1.565-2.418,3.378,3.378,0,0,1,2.066-.435h7.773a2.589,2.589,0,0,1,1.918.732,2.038,2.038,0,0,1,.445,2.02" transform="translate(-55.187 -33.097)" fill="#f79826"/>
      <path id="Path_14" data-name="Path 14" d="M.1,45.929,9.048,3.246a2.943,2.943,0,0,1,1.427-2.114A4.48,4.48,0,0,1,12.688.492h7.671a1.816,1.816,0,0,1,1.475.491,3.636,3.636,0,0,1,.589,1.574l.886,5.311q1.081-1.277,2.459-2.656a25.1,25.1,0,0,1,3-2.556A16.676,16.676,0,0,1,32.161.738,9.6,9.6,0,0,1,35.9,0a19.992,19.992,0,0,1,3.639.3,13.07,13.07,0,0,1,2.9.886A14.36,14.36,0,0,1,45,2.656q1.228.884,2.7,2.065a2.118,2.118,0,0,1,.983,1.966A4.088,4.088,0,0,1,47.7,8.95l-8.459,9.639a1.892,1.892,0,0,1-1.622.639,2.341,2.341,0,0,1-1.721-.836,11.32,11.32,0,0,0-2.311-2.263,5.877,5.877,0,0,0-3.2-.688,8.2,8.2,0,0,0-5.31,1.918,7.555,7.555,0,0,0-2.852,4.475l-5.114,24.1a3.311,3.311,0,0,1-3.639,2.852H2.459Q0,48.781,0,46.716a2.551,2.551,0,0,1,.1-.787" transform="matrix(0.999, -0.035, 0.035, 0.999, 207.786, 56.558)" fill="#2a459e"/>
      <path id="Path_19" data-name="Path 19" d="M74.671,28.367l-.013.012H32.742C9.526,28.379,0,18.592,0,18.592,1.485,40.2,14.519,48.211,39.988,48.211H68.42L54.74,112.444H76l13.813-64.86h20.539c1.321-6.366,2.763-12.611,4.084-19.218Z" transform="translate(0 -6.945)" fill="#2a459e"/>
      <path id="Path_20" data-name="Path 20" d="M64.92,106.854c-7.844,0-18.941,0-19.112,0-14.75-.125-23.156-7.66-23.156-7.66.812,13.361,13.071,22.106,27.56,22.228H61.818Z" transform="translate(-8.462 -37.056)" fill="#f79826"/>
      <path id="Path_21" data-name="Path 21" d="M65.61,69.477c-8.685,0-26.457,0-26.631,0C21.237,69.36,11.11,60.314,11.11,60.314c1.284,17.2,13.475,26.678,33.2,26.678H61.78Z" transform="translate(-4.15 -22.531)" fill="#f79826"/>
      <text id="g" transform="translate(146.797 106.966)" fill="#2a459e" font-size="91" font-family="Poppins-BoldItalic, Poppins" font-weight="700" font-style="italic"><tspan x="0" y="0">g</tspan></text>
      <text id="_365" data-name="365" transform="translate(257.376 105)" fill="#f79826" font-size="30" font-family="DINNextLTArabic-Medium, DIN Next LT Arabic" font-weight="500"><tspan x="-24" y="0">365</tspan></text>
    </g>
  </g>
</svg>
