<svg id="Group_7014" data-name="Group 7014" xmlns="http://www.w3.org/2000/svg" xmlns:xlink="http://www.w3.org/1999/xlink" width="97.762" height="24.771" viewBox="0 0 97.762 24.771">
  <defs>
    <clipPath id="clip-path">
      <rect id="Rectangle_2266" data-name="Rectangle 2266" width="97.762" height="24.771" fill="none"/>
    </clipPath>
  </defs>
  <g id="Group_7013" data-name="Group 7013" clip-path="url(#clip-path)">
    <path id="Path_3216" data-name="Path 3216" d="M0,24.307v-24c.145.008.289.02.434.024C3.617.4,6.807.208,9.984.528a11.123,11.123,0,0,1,4.156,1.2A6.654,6.654,0,0,1,16.1,3.256a7.489,7.489,0,0,0-1.807,2.462c-.41.916-.736,1.869-1.09,2.78a4.841,4.841,0,0,0-3.02-2.791,9.244,9.244,0,0,0-4.268-.443V19.435c.8,0,1.57.011,2.343,0a5.241,5.241,0,0,0,2.382-.622,5.709,5.709,0,0,0,3.009-4.1,28.721,28.721,0,0,0,.378-3.707,12.677,12.677,0,0,1,1.034-4.079,11.3,11.3,0,0,1,3.262-4.206A11.757,11.757,0,0,1,20.974,1.06a11.6,11.6,0,0,1,3.939-1A15.53,15.53,0,0,1,29.448.3,12.5,12.5,0,0,1,34.6,2.8c.273.217.512.475.78.727L31.427,7.352a6.836,6.836,0,0,0-9.279-.387,6.258,6.258,0,0,0-2.068,4.167c-.105.9-.058,1.816-.166,2.715a11.964,11.964,0,0,1-1.281,4.466,11.845,11.845,0,0,1-4.908,4.84A11.916,11.916,0,0,1,8.255,24.3c-2.751.044-5.5.011-8.255.012" transform="translate(0 0)" fill="#fff"/>
    <path id="Path_3217" data-name="Path 3217" d="M270.938,248.121a12.733,12.733,0,0,0,3.023-5.6A6.188,6.188,0,0,0,279,246.044a6,6,0,0,0,5.665-2.265l3.927,3.941c-3.5,4.461-12.958,5.184-17.658.4" transform="translate(-253.188 -226.629)" fill="#df4343"/>
    <rect id="Rectangle_2265" data-name="Rectangle 2265" width="5.218" height="21.311" transform="translate(38.467 1.201)" fill="#fff"/>
    <path id="Path_3218" data-name="Path 3218" d="M718.064,7.947a2.921,2.921,0,0,1,5.812,0,2.921,2.921,0,0,1-5.812,0m5.515,19.541h-5.218v-15.5h5.218Z" transform="translate(-671.021 -4.976)" fill="#fff"/>
    <path id="Path_3219" data-name="Path 3219" d="M858.038,100.236h4.83l.207,1.356a6.676,6.676,0,0,1,4.753-1.834c2.893,0,5.76,1.395,5.76,7.594v8.382H868.37v-8.382c0-2.079-.891-2.932-2.467-2.932-1.692,0-2.648,1.2-2.648,2.932v8.382h-5.218Z" transform="translate(-801.826 -93.223)" fill="#fff"/>
    <path id="Path_3220" data-name="Path 3220" d="M1146.66,7.947a2.921,2.921,0,0,1,5.812,0,2.921,2.921,0,0,1-5.812,0m5.515,19.541h-5.218v-15.5h5.218Z" transform="translate(-1071.539 -4.976)" fill="#fff"/>
    <path id="Path_3221" data-name="Path 3221" d="M1273.82,107.432a8.349,8.349,0,0,1,8.628-8.266,9.1,9.1,0,0,1,5.476,1.808l-2.376,3.707a4.233,4.233,0,0,0-2.79-1.046,3.791,3.791,0,0,0,.013,7.581,4.147,4.147,0,0,0,2.751-1.007l2.609,3.526a9.124,9.124,0,0,1-5.683,1.963,8.349,8.349,0,0,1-8.628-8.266" transform="translate(-1190.368 -92.669)" fill="#fff"/>
  </g>
</svg>
