<svg id="Component_3_1" data-name="Component 3 – 1" xmlns="http://www.w3.org/2000/svg" xmlns:xlink="http://www.w3.org/1999/xlink" width="159.842" height="68.267" viewBox="0 0 159.842 68.267">
  <defs>
    <clipPath id="clip-path">
      <rect id="Rectangle_15" data-name="Rectangle 15" width="159.842" height="68.267" fill="none"/>
    </clipPath>
  </defs>
  <g id="Group_1" data-name="Group 1" transform="translate(-39)">
    <g id="Group_23" data-name="Group 23" transform="translate(39)" clip-path="url(#clip-path)">
      <path id="Path_13" data-name="Path 13" d="M174.459,90.256l-4.246,20.022a1.445,1.445,0,0,1-.643.969,1.864,1.864,0,0,1-1.017.322h-4.477c-.522,0-.83-.122-.921-.365a5.052,5.052,0,0,1-.23-.969l-.23-1.339c-.278.309-.587.643-.926,1.013a7.25,7.25,0,0,1-1.152,1.017,5.917,5.917,0,0,1-1.5.761,6.068,6.068,0,0,1-2.008.3h-.274a10.142,10.142,0,0,1-4.364-.878,7.957,7.957,0,0,1-3.042-2.442,8.495,8.495,0,0,1-1.547-3.716,10.921,10.921,0,0,1-.152-1.573l6.5-.009v3.6l12.069-6.958-12.069-6.954v3.6l-4.963.009c.178-.369.369-.73.578-1.082a14.429,14.429,0,0,1,3.094-3.69,14.222,14.222,0,0,1,4.081-2.425,13.2,13.2,0,0,1,4.8-.873,4.734,4.734,0,0,1,3.529,1.2,5.408,5.408,0,0,1,1.5,2.677L168,90.3a5.279,5.279,0,0,1,.734-1.134,1.585,1.585,0,0,1,.969-.2h3.646a1.215,1.215,0,0,1,.9.343.956.956,0,0,1,.209.947" transform="translate(-104.316 -62.56)" fill="#f79826"/>
      <path id="Path_14" data-name="Path 14" d="M322.87,110.452l4.2-20.024a1.38,1.38,0,0,1,.669-.992,2.1,2.1,0,0,1,1.038-.3h3.6a.852.852,0,0,1,.692.23,1.706,1.706,0,0,1,.277.738l.416,2.491q.507-.6,1.153-1.246a11.776,11.776,0,0,1,1.407-1.2,7.823,7.823,0,0,1,1.592-.9,4.5,4.5,0,0,1,1.753-.346,9.379,9.379,0,0,1,1.707.138,6.132,6.132,0,0,1,1.361.416,6.737,6.737,0,0,1,1.2.692q.576.415,1.269.969a.994.994,0,0,1,.461.922A1.918,1.918,0,0,1,345.2,93.1l-3.968,4.522a.888.888,0,0,1-.761.3,1.1,1.1,0,0,1-.807-.392,5.31,5.31,0,0,0-1.084-1.061,2.757,2.757,0,0,0-1.5-.323,3.847,3.847,0,0,0-2.491.9,3.544,3.544,0,0,0-1.338,2.1l-2.4,11.3a1.553,1.553,0,0,1-1.707,1.338h-5.167q-1.154,0-1.154-.969a1.2,1.2,0,0,1,.046-.369" transform="matrix(0.999, -0.035, 0.035, 0.999, -228.253, -51.053)" fill="#fff"/>
      <path id="Path_19" data-name="Path 19" d="M35.03,23.178l-.006.006H15.36C4.469,23.183,0,18.592,0,18.592.7,28.729,6.811,32.487,18.759,32.487H32.1L25.68,62.62h9.973l6.48-30.427h9.635c.62-2.986,1.3-5.916,1.916-9.015Z" transform="translate(0 -13.128)" fill="#fff"/>
      <path id="Path_20" data-name="Path 20" d="M42.481,102.788H33.515a17.339,17.339,0,0,1-10.863-3.593c.381,6.268,6.132,10.37,12.929,10.428h5.445Z" transform="translate(-15.995 -70.044)" fill="#f79826"/>
      <path id="Path_21" data-name="Path 21" d="M36.677,64.612H24.184c-8.323-.056-13.074-4.3-13.074-4.3.6,8.071,6.321,12.515,15.574,12.515h8.2Z" transform="translate(-7.845 -42.589)" fill="#f79826"/>
      <text id="g" transform="translate(68.927 51.145)" fill="#fff" font-size="44" font-family="Poppins-BoldItalic, Poppins" font-weight="700" font-style="italic"><tspan x="0" y="0">g</tspan></text>
    </g>
  </g>
  <text id="_365" data-name="365" transform="translate(123.642 49.133)" fill="#f79826" font-size="16" font-family="DINNextLTArabic-Medium, DIN Next LT Arabic" font-weight="500"><tspan x="-13" y="0">365</tspan></text>
</svg>
